ISO-10303-21;
HEADER;
/* Generated by software containing ST-Developer
 * from STEP Tools, Inc. (www.steptools.com) 
 */

FILE_DESCRIPTION(
/* description */ (''),
/* implementation_level */ '2;1');

FILE_NAME(
/* name */ 'Inner Wall.step',
/* time_stamp */ '2025-12-05T20:29:52-08:00',
/* author */ (''),
/* organization */ (''),
/* preprocessor_version */ 'ST-DEVELOPER v20.1',
/* originating_system */ 'Autodesk Translation Framework v14.21.0.0',
/* authorisation */ '');

FILE_SCHEMA (('AUTOMOTIVE_DESIGN { 1 0 10303 214 3 1 1 }'));
ENDSEC;

DATA;
#10=MECHANICAL_DESIGN_GEOMETRIC_PRESENTATION_REPRESENTATION('',(#13),#852);
#11=SHAPE_REPRESENTATION_RELATIONSHIP('SRR','None',#859,#12);
#12=ADVANCED_BREP_SHAPE_REPRESENTATION('',(#14),#851);
#13=STYLED_ITEM('',(#868),#14);
#14=MANIFOLD_SOLID_BREP('Body1',#512);
#15=FACE_BOUND('',#92,.T.);
#16=FACE_BOUND('',#93,.T.);
#17=FACE_BOUND('',#94,.T.);
#18=FACE_BOUND('',#95,.T.);
#19=FACE_BOUND('',#96,.T.);
#20=FACE_BOUND('',#97,.T.);
#21=FACE_BOUND('',#99,.T.);
#22=FACE_BOUND('',#100,.T.);
#23=FACE_BOUND('',#101,.T.);
#24=FACE_BOUND('',#102,.T.);
#25=FACE_BOUND('',#103,.T.);
#26=FACE_BOUND('',#104,.T.);
#27=PLANE('',#538);
#28=PLANE('',#542);
#29=PLANE('',#546);
#30=PLANE('',#550);
#31=PLANE('',#557);
#32=PLANE('',#558);
#33=PLANE('',#559);
#34=PLANE('',#560);
#35=PLANE('',#561);
#36=PLANE('',#562);
#37=PLANE('',#563);
#38=PLANE('',#564);
#39=PLANE('',#565);
#40=PLANE('',#566);
#41=PLANE('',#567);
#42=PLANE('',#568);
#43=FACE_OUTER_BOUND('',#68,.T.);
#44=FACE_OUTER_BOUND('',#69,.T.);
#45=FACE_OUTER_BOUND('',#70,.T.);
#46=FACE_OUTER_BOUND('',#71,.T.);
#47=FACE_OUTER_BOUND('',#72,.T.);
#48=FACE_OUTER_BOUND('',#73,.T.);
#49=FACE_OUTER_BOUND('',#74,.T.);
#50=FACE_OUTER_BOUND('',#75,.T.);
#51=FACE_OUTER_BOUND('',#76,.T.);
#52=FACE_OUTER_BOUND('',#77,.T.);
#53=FACE_OUTER_BOUND('',#78,.T.);
#54=FACE_OUTER_BOUND('',#79,.T.);
#55=FACE_OUTER_BOUND('',#80,.T.);
#56=FACE_OUTER_BOUND('',#81,.T.);
#57=FACE_OUTER_BOUND('',#82,.T.);
#58=FACE_OUTER_BOUND('',#83,.T.);
#59=FACE_OUTER_BOUND('',#84,.T.);
#60=FACE_OUTER_BOUND('',#85,.T.);
#61=FACE_OUTER_BOUND('',#86,.T.);
#62=FACE_OUTER_BOUND('',#87,.T.);
#63=FACE_OUTER_BOUND('',#88,.T.);
#64=FACE_OUTER_BOUND('',#89,.T.);
#65=FACE_OUTER_BOUND('',#90,.T.);
#66=FACE_OUTER_BOUND('',#91,.T.);
#67=FACE_OUTER_BOUND('',#98,.T.);
#68=EDGE_LOOP('',(#340,#341,#342,#343));
#69=EDGE_LOOP('',(#344,#345,#346,#347));
#70=EDGE_LOOP('',(#348,#349,#350,#351));
#71=EDGE_LOOP('',(#352,#353,#354,#355));
#72=EDGE_LOOP('',(#356,#357,#358,#359));
#73=EDGE_LOOP('',(#360,#361,#362,#363));
#74=EDGE_LOOP('',(#364,#365,#366,#367));
#75=EDGE_LOOP('',(#368,#369,#370,#371));
#76=EDGE_LOOP('',(#372,#373,#374,#375));
#77=EDGE_LOOP('',(#376,#377,#378,#379));
#78=EDGE_LOOP('',(#380,#381,#382,#383));
#79=EDGE_LOOP('',(#384,#385,#386,#387));
#80=EDGE_LOOP('',(#388,#389,#390,#391));
#81=EDGE_LOOP('',(#392,#393,#394,#395));
#82=EDGE_LOOP('',(#396,#397,#398,#399));
#83=EDGE_LOOP('',(#400,#401,#402,#403));
#84=EDGE_LOOP('',(#404,#405,#406,#407));
#85=EDGE_LOOP('',(#408,#409,#410,#411));
#86=EDGE_LOOP('',(#412,#413,#414,#415));
#87=EDGE_LOOP('',(#416,#417,#418,#419));
#88=EDGE_LOOP('',(#420,#421,#422,#423));
#89=EDGE_LOOP('',(#424,#425,#426,#427));
#90=EDGE_LOOP('',(#428,#429,#430,#431));
#91=EDGE_LOOP('',(#432,#433,#434,#435,#436,#437,#438,#439,#440,#441));
#92=EDGE_LOOP('',(#442));
#93=EDGE_LOOP('',(#443));
#94=EDGE_LOOP('',(#444));
#95=EDGE_LOOP('',(#445));
#96=EDGE_LOOP('',(#446,#447,#448,#449,#450,#451,#452,#453));
#97=EDGE_LOOP('',(#454));
#98=EDGE_LOOP('',(#455,#456,#457,#458,#459,#460,#461,#462,#463,#464));
#99=EDGE_LOOP('',(#465));
#100=EDGE_LOOP('',(#466));
#101=EDGE_LOOP('',(#467));
#102=EDGE_LOOP('',(#468));
#103=EDGE_LOOP('',(#469,#470,#471,#472,#473,#474,#475,#476));
#104=EDGE_LOOP('',(#477));
#105=LINE('',#713,#156);
#106=LINE('',#719,#157);
#107=LINE('',#725,#158);
#108=LINE('',#731,#159);
#109=LINE('',#736,#160);
#110=LINE('',#738,#161);
#111=LINE('',#740,#162);
#112=LINE('',#741,#163);
#113=LINE('',#747,#164);
#114=LINE('',#750,#165);
#115=LINE('',#752,#166);
#116=LINE('',#753,#167);
#117=LINE('',#759,#168);
#118=LINE('',#762,#169);
#119=LINE('',#764,#170);
#120=LINE('',#765,#171);
#121=LINE('',#771,#172);
#122=LINE('',#774,#173);
#123=LINE('',#776,#174);
#124=LINE('',#777,#175);
#125=LINE('',#785,#176);
#126=LINE('',#790,#177);
#127=LINE('',#792,#178);
#128=LINE('',#794,#179);
#129=LINE('',#795,#180);
#130=LINE('',#798,#181);
#131=LINE('',#800,#182);
#132=LINE('',#801,#183);
#133=LINE('',#804,#184);
#134=LINE('',#806,#185);
#135=LINE('',#807,#186);
#136=LINE('',#810,#187);
#137=LINE('',#812,#188);
#138=LINE('',#813,#189);
#139=LINE('',#816,#190);
#140=LINE('',#818,#191);
#141=LINE('',#819,#192);
#142=LINE('',#822,#193);
#143=LINE('',#824,#194);
#144=LINE('',#825,#195);
#145=LINE('',#828,#196);
#146=LINE('',#830,#197);
#147=LINE('',#831,#198);
#148=LINE('',#834,#199);
#149=LINE('',#836,#200);
#150=LINE('',#837,#201);
#151=LINE('',#840,#202);
#152=LINE('',#842,#203);
#153=LINE('',#843,#204);
#154=LINE('',#845,#205);
#155=LINE('',#846,#206);
#156=VECTOR('',#575,2.5);
#157=VECTOR('',#582,2.5);
#158=VECTOR('',#589,2.5);
#159=VECTOR('',#596,2.5);
#160=VECTOR('',#601,10.);
#161=VECTOR('',#602,10.);
#162=VECTOR('',#603,10.);
#163=VECTOR('',#604,10.);
#164=VECTOR('',#611,10.);
#165=VECTOR('',#614,10.);
#166=VECTOR('',#615,10.);
#167=VECTOR('',#616,10.);
#168=VECTOR('',#623,10.);
#169=VECTOR('',#626,10.);
#170=VECTOR('',#627,10.);
#171=VECTOR('',#628,10.);
#172=VECTOR('',#635,10.);
#173=VECTOR('',#638,10.);
#174=VECTOR('',#639,10.);
#175=VECTOR('',#640,10.);
#176=VECTOR('',#651,14.);
#177=VECTOR('',#656,10.);
#178=VECTOR('',#657,10.);
#179=VECTOR('',#658,10.);
#180=VECTOR('',#659,10.);
#181=VECTOR('',#662,10.);
#182=VECTOR('',#663,10.);
#183=VECTOR('',#664,10.);
#184=VECTOR('',#667,10.);
#185=VECTOR('',#668,10.);
#186=VECTOR('',#669,10.);
#187=VECTOR('',#672,10.);
#188=VECTOR('',#673,10.);
#189=VECTOR('',#674,10.);
#190=VECTOR('',#677,10.);
#191=VECTOR('',#678,10.);
#192=VECTOR('',#679,10.);
#193=VECTOR('',#682,10.);
#194=VECTOR('',#683,10.);
#195=VECTOR('',#684,10.);
#196=VECTOR('',#687,10.);
#197=VECTOR('',#688,10.);
#198=VECTOR('',#689,10.);
#199=VECTOR('',#692,10.);
#200=VECTOR('',#693,10.);
#201=VECTOR('',#694,10.);
#202=VECTOR('',#697,10.);
#203=VECTOR('',#698,10.);
#204=VECTOR('',#699,10.);
#205=VECTOR('',#702,10.);
#206=VECTOR('',#703,10.);
#207=CIRCLE('',#527,2.5);
#208=CIRCLE('',#528,2.5);
#209=CIRCLE('',#530,2.5);
#210=CIRCLE('',#531,2.5);
#211=CIRCLE('',#533,2.5);
#212=CIRCLE('',#534,2.5);
#213=CIRCLE('',#536,2.5);
#214=CIRCLE('',#537,2.5);
#215=CIRCLE('',#540,7.99999999999995);
#216=CIRCLE('',#541,7.99999999999995);
#217=CIRCLE('',#544,7.99999999999999);
#218=CIRCLE('',#545,7.99999999999999);
#219=CIRCLE('',#548,7.99999999999999);
#220=CIRCLE('',#549,7.99999999999999);
#221=CIRCLE('',#552,7.99999999999994);
#222=CIRCLE('',#553,7.99999999999994);
#223=CIRCLE('',#555,14.);
#224=CIRCLE('',#556,14.);
#225=VERTEX_POINT('',#710);
#226=VERTEX_POINT('',#712);
#227=VERTEX_POINT('',#716);
#228=VERTEX_POINT('',#718);
#229=VERTEX_POINT('',#722);
#230=VERTEX_POINT('',#724);
#231=VERTEX_POINT('',#728);
#232=VERTEX_POINT('',#730);
#233=VERTEX_POINT('',#734);
#234=VERTEX_POINT('',#735);
#235=VERTEX_POINT('',#737);
#236=VERTEX_POINT('',#739);
#237=VERTEX_POINT('',#743);
#238=VERTEX_POINT('',#745);
#239=VERTEX_POINT('',#749);
#240=VERTEX_POINT('',#751);
#241=VERTEX_POINT('',#755);
#242=VERTEX_POINT('',#757);
#243=VERTEX_POINT('',#761);
#244=VERTEX_POINT('',#763);
#245=VERTEX_POINT('',#767);
#246=VERTEX_POINT('',#769);
#247=VERTEX_POINT('',#773);
#248=VERTEX_POINT('',#775);
#249=VERTEX_POINT('',#782);
#250=VERTEX_POINT('',#784);
#251=VERTEX_POINT('',#788);
#252=VERTEX_POINT('',#789);
#253=VERTEX_POINT('',#791);
#254=VERTEX_POINT('',#793);
#255=VERTEX_POINT('',#797);
#256=VERTEX_POINT('',#799);
#257=VERTEX_POINT('',#803);
#258=VERTEX_POINT('',#805);
#259=VERTEX_POINT('',#809);
#260=VERTEX_POINT('',#811);
#261=VERTEX_POINT('',#815);
#262=VERTEX_POINT('',#817);
#263=VERTEX_POINT('',#821);
#264=VERTEX_POINT('',#823);
#265=VERTEX_POINT('',#827);
#266=VERTEX_POINT('',#829);
#267=VERTEX_POINT('',#833);
#268=VERTEX_POINT('',#835);
#269=VERTEX_POINT('',#839);
#270=VERTEX_POINT('',#841);
#271=EDGE_CURVE('',#225,#225,#207,.T.);
#272=EDGE_CURVE('',#225,#226,#105,.T.);
#273=EDGE_CURVE('',#226,#226,#208,.T.);
#274=EDGE_CURVE('',#227,#227,#209,.T.);
#275=EDGE_CURVE('',#227,#228,#106,.T.);
#276=EDGE_CURVE('',#228,#228,#210,.T.);
#277=EDGE_CURVE('',#229,#229,#211,.T.);
#278=EDGE_CURVE('',#229,#230,#107,.T.);
#279=EDGE_CURVE('',#230,#230,#212,.T.);
#280=EDGE_CURVE('',#231,#231,#213,.T.);
#281=EDGE_CURVE('',#231,#232,#108,.T.);
#282=EDGE_CURVE('',#232,#232,#214,.T.);
#283=EDGE_CURVE('',#233,#234,#109,.T.);
#284=EDGE_CURVE('',#235,#233,#110,.T.);
#285=EDGE_CURVE('',#236,#235,#111,.T.);
#286=EDGE_CURVE('',#236,#234,#112,.T.);
#287=EDGE_CURVE('',#234,#237,#215,.T.);
#288=EDGE_CURVE('',#238,#236,#216,.T.);
#289=EDGE_CURVE('',#238,#237,#113,.T.);
#290=EDGE_CURVE('',#237,#239,#114,.T.);
#291=EDGE_CURVE('',#240,#238,#115,.T.);
#292=EDGE_CURVE('',#240,#239,#116,.T.);
#293=EDGE_CURVE('',#239,#241,#217,.T.);
#294=EDGE_CURVE('',#242,#240,#218,.T.);
#295=EDGE_CURVE('',#242,#241,#117,.T.);
#296=EDGE_CURVE('',#241,#243,#118,.T.);
#297=EDGE_CURVE('',#244,#242,#119,.T.);
#298=EDGE_CURVE('',#244,#243,#120,.T.);
#299=EDGE_CURVE('',#243,#245,#219,.T.);
#300=EDGE_CURVE('',#246,#244,#220,.T.);
#301=EDGE_CURVE('',#246,#245,#121,.T.);
#302=EDGE_CURVE('',#245,#247,#122,.T.);
#303=EDGE_CURVE('',#248,#246,#123,.T.);
#304=EDGE_CURVE('',#248,#247,#124,.T.);
#305=EDGE_CURVE('',#247,#233,#221,.T.);
#306=EDGE_CURVE('',#235,#248,#222,.T.);
#307=EDGE_CURVE('',#249,#249,#223,.T.);
#308=EDGE_CURVE('',#249,#250,#125,.T.);
#309=EDGE_CURVE('',#250,#250,#224,.T.);
#310=EDGE_CURVE('',#251,#252,#126,.T.);
#311=EDGE_CURVE('',#252,#253,#127,.T.);
#312=EDGE_CURVE('',#254,#253,#128,.T.);
#313=EDGE_CURVE('',#251,#254,#129,.T.);
#314=EDGE_CURVE('',#255,#251,#130,.T.);
#315=EDGE_CURVE('',#256,#254,#131,.T.);
#316=EDGE_CURVE('',#255,#256,#132,.T.);
#317=EDGE_CURVE('',#257,#255,#133,.T.);
#318=EDGE_CURVE('',#258,#256,#134,.T.);
#319=EDGE_CURVE('',#257,#258,#135,.T.);
#320=EDGE_CURVE('',#259,#257,#136,.T.);
#321=EDGE_CURVE('',#260,#258,#137,.T.);
#322=EDGE_CURVE('',#259,#260,#138,.T.);
#323=EDGE_CURVE('',#261,#259,#139,.T.);
#324=EDGE_CURVE('',#262,#260,#140,.T.);
#325=EDGE_CURVE('',#261,#262,#141,.T.);
#326=EDGE_CURVE('',#263,#261,#142,.T.);
#327=EDGE_CURVE('',#264,#262,#143,.T.);
#328=EDGE_CURVE('',#263,#264,#144,.T.);
#329=EDGE_CURVE('',#265,#263,#145,.T.);
#330=EDGE_CURVE('',#266,#264,#146,.T.);
#331=EDGE_CURVE('',#265,#266,#147,.T.);
#332=EDGE_CURVE('',#267,#265,#148,.T.);
#333=EDGE_CURVE('',#268,#266,#149,.T.);
#334=EDGE_CURVE('',#267,#268,#150,.T.);
#335=EDGE_CURVE('',#269,#267,#151,.T.);
#336=EDGE_CURVE('',#270,#268,#152,.T.);
#337=EDGE_CURVE('',#269,#270,#153,.T.);
#338=EDGE_CURVE('',#252,#269,#154,.T.);
#339=EDGE_CURVE('',#253,#270,#155,.T.);
#340=ORIENTED_EDGE('',*,*,#271,.F.);
#341=ORIENTED_EDGE('',*,*,#272,.T.);
#342=ORIENTED_EDGE('',*,*,#273,.F.);
#343=ORIENTED_EDGE('',*,*,#272,.F.);
#344=ORIENTED_EDGE('',*,*,#274,.F.);
#345=ORIENTED_EDGE('',*,*,#275,.T.);
#346=ORIENTED_EDGE('',*,*,#276,.F.);
#347=ORIENTED_EDGE('',*,*,#275,.F.);
#348=ORIENTED_EDGE('',*,*,#277,.F.);
#349=ORIENTED_EDGE('',*,*,#278,.T.);
#350=ORIENTED_EDGE('',*,*,#279,.F.);
#351=ORIENTED_EDGE('',*,*,#278,.F.);
#352=ORIENTED_EDGE('',*,*,#280,.F.);
#353=ORIENTED_EDGE('',*,*,#281,.T.);
#354=ORIENTED_EDGE('',*,*,#282,.F.);
#355=ORIENTED_EDGE('',*,*,#281,.F.);
#356=ORIENTED_EDGE('',*,*,#283,.F.);
#357=ORIENTED_EDGE('',*,*,#284,.F.);
#358=ORIENTED_EDGE('',*,*,#285,.F.);
#359=ORIENTED_EDGE('',*,*,#286,.T.);
#360=ORIENTED_EDGE('',*,*,#287,.F.);
#361=ORIENTED_EDGE('',*,*,#286,.F.);
#362=ORIENTED_EDGE('',*,*,#288,.F.);
#363=ORIENTED_EDGE('',*,*,#289,.T.);
#364=ORIENTED_EDGE('',*,*,#290,.F.);
#365=ORIENTED_EDGE('',*,*,#289,.F.);
#366=ORIENTED_EDGE('',*,*,#291,.F.);
#367=ORIENTED_EDGE('',*,*,#292,.T.);
#368=ORIENTED_EDGE('',*,*,#293,.F.);
#369=ORIENTED_EDGE('',*,*,#292,.F.);
#370=ORIENTED_EDGE('',*,*,#294,.F.);
#371=ORIENTED_EDGE('',*,*,#295,.T.);
#372=ORIENTED_EDGE('',*,*,#296,.F.);
#373=ORIENTED_EDGE('',*,*,#295,.F.);
#374=ORIENTED_EDGE('',*,*,#297,.F.);
#375=ORIENTED_EDGE('',*,*,#298,.T.);
#376=ORIENTED_EDGE('',*,*,#299,.F.);
#377=ORIENTED_EDGE('',*,*,#298,.F.);
#378=ORIENTED_EDGE('',*,*,#300,.F.);
#379=ORIENTED_EDGE('',*,*,#301,.T.);
#380=ORIENTED_EDGE('',*,*,#302,.F.);
#381=ORIENTED_EDGE('',*,*,#301,.F.);
#382=ORIENTED_EDGE('',*,*,#303,.F.);
#383=ORIENTED_EDGE('',*,*,#304,.T.);
#384=ORIENTED_EDGE('',*,*,#305,.F.);
#385=ORIENTED_EDGE('',*,*,#304,.F.);
#386=ORIENTED_EDGE('',*,*,#306,.F.);
#387=ORIENTED_EDGE('',*,*,#284,.T.);
#388=ORIENTED_EDGE('',*,*,#307,.F.);
#389=ORIENTED_EDGE('',*,*,#308,.T.);
#390=ORIENTED_EDGE('',*,*,#309,.F.);
#391=ORIENTED_EDGE('',*,*,#308,.F.);
#392=ORIENTED_EDGE('',*,*,#310,.T.);
#393=ORIENTED_EDGE('',*,*,#311,.T.);
#394=ORIENTED_EDGE('',*,*,#312,.F.);
#395=ORIENTED_EDGE('',*,*,#313,.F.);
#396=ORIENTED_EDGE('',*,*,#314,.T.);
#397=ORIENTED_EDGE('',*,*,#313,.T.);
#398=ORIENTED_EDGE('',*,*,#315,.F.);
#399=ORIENTED_EDGE('',*,*,#316,.F.);
#400=ORIENTED_EDGE('',*,*,#317,.T.);
#401=ORIENTED_EDGE('',*,*,#316,.T.);
#402=ORIENTED_EDGE('',*,*,#318,.F.);
#403=ORIENTED_EDGE('',*,*,#319,.F.);
#404=ORIENTED_EDGE('',*,*,#320,.T.);
#405=ORIENTED_EDGE('',*,*,#319,.T.);
#406=ORIENTED_EDGE('',*,*,#321,.F.);
#407=ORIENTED_EDGE('',*,*,#322,.F.);
#408=ORIENTED_EDGE('',*,*,#323,.T.);
#409=ORIENTED_EDGE('',*,*,#322,.T.);
#410=ORIENTED_EDGE('',*,*,#324,.F.);
#411=ORIENTED_EDGE('',*,*,#325,.F.);
#412=ORIENTED_EDGE('',*,*,#326,.T.);
#413=ORIENTED_EDGE('',*,*,#325,.T.);
#414=ORIENTED_EDGE('',*,*,#327,.F.);
#415=ORIENTED_EDGE('',*,*,#328,.F.);
#416=ORIENTED_EDGE('',*,*,#329,.T.);
#417=ORIENTED_EDGE('',*,*,#328,.T.);
#418=ORIENTED_EDGE('',*,*,#330,.F.);
#419=ORIENTED_EDGE('',*,*,#331,.F.);
#420=ORIENTED_EDGE('',*,*,#332,.T.);
#421=ORIENTED_EDGE('',*,*,#331,.T.);
#422=ORIENTED_EDGE('',*,*,#333,.F.);
#423=ORIENTED_EDGE('',*,*,#334,.F.);
#424=ORIENTED_EDGE('',*,*,#335,.T.);
#425=ORIENTED_EDGE('',*,*,#334,.T.);
#426=ORIENTED_EDGE('',*,*,#336,.F.);
#427=ORIENTED_EDGE('',*,*,#337,.F.);
#428=ORIENTED_EDGE('',*,*,#338,.T.);
#429=ORIENTED_EDGE('',*,*,#337,.T.);
#430=ORIENTED_EDGE('',*,*,#339,.F.);
#431=ORIENTED_EDGE('',*,*,#311,.F.);
#432=ORIENTED_EDGE('',*,*,#339,.T.);
#433=ORIENTED_EDGE('',*,*,#336,.T.);
#434=ORIENTED_EDGE('',*,*,#333,.T.);
#435=ORIENTED_EDGE('',*,*,#330,.T.);
#436=ORIENTED_EDGE('',*,*,#327,.T.);
#437=ORIENTED_EDGE('',*,*,#324,.T.);
#438=ORIENTED_EDGE('',*,*,#321,.T.);
#439=ORIENTED_EDGE('',*,*,#318,.T.);
#440=ORIENTED_EDGE('',*,*,#315,.T.);
#441=ORIENTED_EDGE('',*,*,#312,.T.);
#442=ORIENTED_EDGE('',*,*,#271,.T.);
#443=ORIENTED_EDGE('',*,*,#274,.T.);
#444=ORIENTED_EDGE('',*,*,#277,.T.);
#445=ORIENTED_EDGE('',*,*,#280,.T.);
#446=ORIENTED_EDGE('',*,*,#297,.T.);
#447=ORIENTED_EDGE('',*,*,#294,.T.);
#448=ORIENTED_EDGE('',*,*,#291,.T.);
#449=ORIENTED_EDGE('',*,*,#288,.T.);
#450=ORIENTED_EDGE('',*,*,#285,.T.);
#451=ORIENTED_EDGE('',*,*,#306,.T.);
#452=ORIENTED_EDGE('',*,*,#303,.T.);
#453=ORIENTED_EDGE('',*,*,#300,.T.);
#454=ORIENTED_EDGE('',*,*,#307,.T.);
#455=ORIENTED_EDGE('',*,*,#338,.F.);
#456=ORIENTED_EDGE('',*,*,#310,.F.);
#457=ORIENTED_EDGE('',*,*,#314,.F.);
#458=ORIENTED_EDGE('',*,*,#317,.F.);
#459=ORIENTED_EDGE('',*,*,#320,.F.);
#460=ORIENTED_EDGE('',*,*,#323,.F.);
#461=ORIENTED_EDGE('',*,*,#326,.F.);
#462=ORIENTED_EDGE('',*,*,#329,.F.);
#463=ORIENTED_EDGE('',*,*,#332,.F.);
#464=ORIENTED_EDGE('',*,*,#335,.F.);
#465=ORIENTED_EDGE('',*,*,#273,.T.);
#466=ORIENTED_EDGE('',*,*,#276,.T.);
#467=ORIENTED_EDGE('',*,*,#279,.T.);
#468=ORIENTED_EDGE('',*,*,#282,.T.);
#469=ORIENTED_EDGE('',*,*,#296,.T.);
#470=ORIENTED_EDGE('',*,*,#299,.T.);
#471=ORIENTED_EDGE('',*,*,#302,.T.);
#472=ORIENTED_EDGE('',*,*,#305,.T.);
#473=ORIENTED_EDGE('',*,*,#283,.T.);
#474=ORIENTED_EDGE('',*,*,#287,.T.);
#475=ORIENTED_EDGE('',*,*,#290,.T.);
#476=ORIENTED_EDGE('',*,*,#293,.T.);
#477=ORIENTED_EDGE('',*,*,#309,.T.);
#478=CYLINDRICAL_SURFACE('',#526,2.5);
#479=CYLINDRICAL_SURFACE('',#529,2.5);
#480=CYLINDRICAL_SURFACE('',#532,2.5);
#481=CYLINDRICAL_SURFACE('',#535,2.5);
#482=CYLINDRICAL_SURFACE('',#539,7.99999999999995);
#483=CYLINDRICAL_SURFACE('',#543,7.99999999999999);
#484=CYLINDRICAL_SURFACE('',#547,7.99999999999999);
#485=CYLINDRICAL_SURFACE('',#551,7.99999999999994);
#486=CYLINDRICAL_SURFACE('',#554,14.);
#487=ADVANCED_FACE('',(#43),#478,.F.);
#488=ADVANCED_FACE('',(#44),#479,.F.);
#489=ADVANCED_FACE('',(#45),#480,.F.);
#490=ADVANCED_FACE('',(#46),#481,.F.);
#491=ADVANCED_FACE('',(#47),#27,.F.);
#492=ADVANCED_FACE('',(#48),#482,.F.);
#493=ADVANCED_FACE('',(#49),#28,.F.);
#494=ADVANCED_FACE('',(#50),#483,.F.);
#495=ADVANCED_FACE('',(#51),#29,.F.);
#496=ADVANCED_FACE('',(#52),#484,.F.);
#497=ADVANCED_FACE('',(#53),#30,.F.);
#498=ADVANCED_FACE('',(#54),#485,.F.);
#499=ADVANCED_FACE('',(#55),#486,.F.);
#500=ADVANCED_FACE('',(#56),#31,.T.);
#501=ADVANCED_FACE('',(#57),#32,.T.);
#502=ADVANCED_FACE('',(#58),#33,.T.);
#503=ADVANCED_FACE('',(#59),#34,.T.);
#504=ADVANCED_FACE('',(#60),#35,.T.);
#505=ADVANCED_FACE('',(#61),#36,.T.);
#506=ADVANCED_FACE('',(#62),#37,.T.);
#507=ADVANCED_FACE('',(#63),#38,.T.);
#508=ADVANCED_FACE('',(#64),#39,.T.);
#509=ADVANCED_FACE('',(#65),#40,.T.);
#510=ADVANCED_FACE('',(#66,#15,#16,#17,#18,#19,#20),#41,.T.);
#511=ADVANCED_FACE('',(#67,#21,#22,#23,#24,#25,#26),#42,.F.);
#512=CLOSED_SHELL('',(#487,#488,#489,#490,#491,#492,#493,#494,#495,#496,
#497,#498,#499,#500,#501,#502,#503,#504,#505,#506,#507,#508,#509,#510,#511));
#513=DERIVED_UNIT_ELEMENT(#515,1.);
#514=DERIVED_UNIT_ELEMENT(#854,-3.);
#515=(
MASS_UNIT()
NAMED_UNIT(*)
SI_UNIT(.KILO.,.GRAM.)
);
#516=DERIVED_UNIT((#513,#514));
#517=MEASURE_REPRESENTATION_ITEM('density measure',
POSITIVE_RATIO_MEASURE(7850.),#516);
#518=PROPERTY_DEFINITION_REPRESENTATION(#523,#520);
#519=PROPERTY_DEFINITION_REPRESENTATION(#524,#521);
#520=REPRESENTATION('material name',(#522),#851);
#521=REPRESENTATION('density',(#517),#851);
#522=DESCRIPTIVE_REPRESENTATION_ITEM('Steel','Steel');
#523=PROPERTY_DEFINITION('material property','material name',#861);
#524=PROPERTY_DEFINITION('material property','density of part',#861);
#525=AXIS2_PLACEMENT_3D('',#708,#569,#570);
#526=AXIS2_PLACEMENT_3D('',#709,#571,#572);
#527=AXIS2_PLACEMENT_3D('',#711,#573,#574);
#528=AXIS2_PLACEMENT_3D('',#714,#576,#577);
#529=AXIS2_PLACEMENT_3D('',#715,#578,#579);
#530=AXIS2_PLACEMENT_3D('',#717,#580,#581);
#531=AXIS2_PLACEMENT_3D('',#720,#583,#584);
#532=AXIS2_PLACEMENT_3D('',#721,#585,#586);
#533=AXIS2_PLACEMENT_3D('',#723,#587,#588);
#534=AXIS2_PLACEMENT_3D('',#726,#590,#591);
#535=AXIS2_PLACEMENT_3D('',#727,#592,#593);
#536=AXIS2_PLACEMENT_3D('',#729,#594,#595);
#537=AXIS2_PLACEMENT_3D('',#732,#597,#598);
#538=AXIS2_PLACEMENT_3D('',#733,#599,#600);
#539=AXIS2_PLACEMENT_3D('',#742,#605,#606);
#540=AXIS2_PLACEMENT_3D('',#744,#607,#608);
#541=AXIS2_PLACEMENT_3D('',#746,#609,#610);
#542=AXIS2_PLACEMENT_3D('',#748,#612,#613);
#543=AXIS2_PLACEMENT_3D('',#754,#617,#618);
#544=AXIS2_PLACEMENT_3D('',#756,#619,#620);
#545=AXIS2_PLACEMENT_3D('',#758,#621,#622);
#546=AXIS2_PLACEMENT_3D('',#760,#624,#625);
#547=AXIS2_PLACEMENT_3D('',#766,#629,#630);
#548=AXIS2_PLACEMENT_3D('',#768,#631,#632);
#549=AXIS2_PLACEMENT_3D('',#770,#633,#634);
#550=AXIS2_PLACEMENT_3D('',#772,#636,#637);
#551=AXIS2_PLACEMENT_3D('',#778,#641,#642);
#552=AXIS2_PLACEMENT_3D('',#779,#643,#644);
#553=AXIS2_PLACEMENT_3D('',#780,#645,#646);
#554=AXIS2_PLACEMENT_3D('',#781,#647,#648);
#555=AXIS2_PLACEMENT_3D('',#783,#649,#650);
#556=AXIS2_PLACEMENT_3D('',#786,#652,#653);
#557=AXIS2_PLACEMENT_3D('',#787,#654,#655);
#558=AXIS2_PLACEMENT_3D('',#796,#660,#661);
#559=AXIS2_PLACEMENT_3D('',#802,#665,#666);
#560=AXIS2_PLACEMENT_3D('',#808,#670,#671);
#561=AXIS2_PLACEMENT_3D('',#814,#675,#676);
#562=AXIS2_PLACEMENT_3D('',#820,#680,#681);
#563=AXIS2_PLACEMENT_3D('',#826,#685,#686);
#564=AXIS2_PLACEMENT_3D('',#832,#690,#691);
#565=AXIS2_PLACEMENT_3D('',#838,#695,#696);
#566=AXIS2_PLACEMENT_3D('',#844,#700,#701);
#567=AXIS2_PLACEMENT_3D('',#847,#704,#705);
#568=AXIS2_PLACEMENT_3D('',#848,#706,#707);
#569=DIRECTION('axis',(0.,0.,1.));
#570=DIRECTION('refdir',(1.,0.,0.));
#571=DIRECTION('center_axis',(0.,-1.,0.));
#572=DIRECTION('ref_axis',(-1.,0.,-8.0743495106355E-16));
#573=DIRECTION('center_axis',(0.,-1.,0.));
#574=DIRECTION('ref_axis',(-1.,0.,-8.0743495106355E-16));
#575=DIRECTION('',(0.,-1.,0.));
#576=DIRECTION('center_axis',(0.,1.,0.));
#577=DIRECTION('ref_axis',(-1.,0.,-8.0743495106355E-16));
#578=DIRECTION('center_axis',(0.,-1.,0.));
#579=DIRECTION('ref_axis',(-1.,0.,-8.0743495106355E-16));
#580=DIRECTION('center_axis',(0.,-1.,0.));
#581=DIRECTION('ref_axis',(-1.,0.,-8.0743495106355E-16));
#582=DIRECTION('',(0.,-1.,0.));
#583=DIRECTION('center_axis',(0.,1.,0.));
#584=DIRECTION('ref_axis',(-1.,0.,-8.0743495106355E-16));
#585=DIRECTION('center_axis',(0.,-1.,0.));
#586=DIRECTION('ref_axis',(-1.,0.,-8.0743495106355E-16));
#587=DIRECTION('center_axis',(0.,-1.,0.));
#588=DIRECTION('ref_axis',(-1.,0.,-8.0743495106355E-16));
#589=DIRECTION('',(0.,-1.,0.));
#590=DIRECTION('center_axis',(0.,1.,0.));
#591=DIRECTION('ref_axis',(-1.,0.,-8.0743495106355E-16));
#592=DIRECTION('center_axis',(0.,-1.,0.));
#593=DIRECTION('ref_axis',(-1.,0.,-8.0743495106355E-16));
#594=DIRECTION('center_axis',(0.,-1.,0.));
#595=DIRECTION('ref_axis',(-1.,0.,-8.0743495106355E-16));
#596=DIRECTION('',(0.,-1.,0.));
#597=DIRECTION('center_axis',(0.,1.,0.));
#598=DIRECTION('ref_axis',(-1.,0.,-8.0743495106355E-16));
#599=DIRECTION('center_axis',(-1.,0.,-8.0743495106355E-16));
#600=DIRECTION('ref_axis',(8.0743495106355E-16,2.97775923669024E-45,-1.));
#601=DIRECTION('',(-8.0743495106355E-16,0.,1.));
#602=DIRECTION('',(0.,-1.,0.));
#603=DIRECTION('',(8.0743495106355E-16,0.,-1.));
#604=DIRECTION('',(0.,-1.,0.));
#605=DIRECTION('center_axis',(0.,-1.,0.));
#606=DIRECTION('ref_axis',(-1.,0.,-4.13810402493904E-15));
#607=DIRECTION('center_axis',(0.,1.,0.));
#608=DIRECTION('ref_axis',(-1.,0.,-4.13810402493904E-15));
#609=DIRECTION('center_axis',(0.,-1.,0.));
#610=DIRECTION('ref_axis',(-1.,0.,-4.13810402493904E-15));
#611=DIRECTION('',(0.,-1.,0.));
#612=DIRECTION('center_axis',(-5.46206004092925E-16,0.,1.));
#613=DIRECTION('ref_axis',(-1.,-3.48334145689183E-46,-5.46206004092925E-16));
#614=DIRECTION('',(1.,0.,5.46206004092925E-16));
#615=DIRECTION('',(-1.,0.,-5.46206004092925E-16));
#616=DIRECTION('',(0.,-1.,0.));
#617=DIRECTION('center_axis',(0.,-1.,0.));
#618=DIRECTION('ref_axis',(-3.02788100031387E-15,0.,1.));
#619=DIRECTION('center_axis',(0.,1.,0.));
#620=DIRECTION('ref_axis',(-3.02788100031387E-15,0.,1.));
#621=DIRECTION('center_axis',(0.,-1.,0.));
#622=DIRECTION('ref_axis',(-3.02788100031387E-15,0.,1.));
#623=DIRECTION('',(0.,-1.,0.));
#624=DIRECTION('center_axis',(1.,0.,-4.6139136279377E-16));
#625=DIRECTION('ref_axis',(4.6139136279377E-16,-2.97775923669024E-45,1.));
#626=DIRECTION('',(-4.6139136279377E-16,0.,-1.));
#627=DIRECTION('',(4.6139136279377E-16,0.,1.));
#628=DIRECTION('',(0.,-1.,0.));
#629=DIRECTION('center_axis',(0.,-1.,0.));
#630=DIRECTION('ref_axis',(1.,0.,-3.02788073561608E-16));
#631=DIRECTION('center_axis',(0.,1.,0.));
#632=DIRECTION('ref_axis',(1.,0.,-3.02788073561608E-16));
#633=DIRECTION('center_axis',(0.,-1.,0.));
#634=DIRECTION('ref_axis',(1.,0.,-3.02788073561608E-16));
#635=DIRECTION('',(0.,-1.,0.));
#636=DIRECTION('center_axis',(5.46206004092926E-16,0.,-1.));
#637=DIRECTION('ref_axis',(1.,3.48334145689183E-46,5.46206004092926E-16));
#638=DIRECTION('',(-1.,0.,-5.46206004092926E-16));
#639=DIRECTION('',(1.,0.,5.46206004092926E-16));
#640=DIRECTION('',(0.,-1.,0.));
#641=DIRECTION('center_axis',(0.,-1.,0.));
#642=DIRECTION('ref_axis',(7.46877309881454E-15,0.,-1.));
#643=DIRECTION('center_axis',(0.,1.,0.));
#644=DIRECTION('ref_axis',(7.46877309881454E-15,0.,-1.));
#645=DIRECTION('center_axis',(0.,-1.,0.));
#646=DIRECTION('ref_axis',(7.46877309881454E-15,0.,-1.));
#647=DIRECTION('center_axis',(0.,-1.,0.));
#648=DIRECTION('ref_axis',(-1.,0.,-8.0743495106355E-16));
#649=DIRECTION('center_axis',(0.,-1.,0.));
#650=DIRECTION('ref_axis',(-1.,0.,-8.0743495106355E-16));
#651=DIRECTION('',(0.,-1.,0.));
#652=DIRECTION('center_axis',(0.,1.,0.));
#653=DIRECTION('ref_axis',(-1.,0.,-8.0743495106355E-16));
#654=DIRECTION('center_axis',(0.0871557427476582,0.,0.996194698091746));
#655=DIRECTION('ref_axis',(0.996194698091746,0.,-0.0871557427476582));
#656=DIRECTION('',(0.996194698091746,0.,-0.0871557427476582));
#657=DIRECTION('',(0.,1.,0.));
#658=DIRECTION('',(0.996194698091746,0.,-0.0871557427476582));
#659=DIRECTION('',(0.,1.,0.));
#660=DIRECTION('center_axis',(0.923774345501387,0.,0.382937277623222));
#661=DIRECTION('ref_axis',(0.382937277623222,0.,-0.923774345501386));
#662=DIRECTION('',(0.382937277623222,0.,-0.923774345501386));
#663=DIRECTION('',(0.382937277623222,0.,-0.923774345501386));
#664=DIRECTION('',(0.,1.,0.));
#665=DIRECTION('center_axis',(0.707106781186548,0.,0.707106781186547));
#666=DIRECTION('ref_axis',(0.707106781186547,0.,-0.707106781186548));
#667=DIRECTION('',(0.707106781186547,0.,-0.707106781186548));
#668=DIRECTION('',(0.707106781186547,0.,-0.707106781186548));
#669=DIRECTION('',(0.,1.,0.));
#670=DIRECTION('center_axis',(0.923879532511282,0.,0.382683432365103));
#671=DIRECTION('ref_axis',(0.382683432365103,0.,-0.923879532511281));
#672=DIRECTION('',(0.382683432365103,0.,-0.923879532511281));
#673=DIRECTION('',(0.382683432365103,0.,-0.923879532511281));
#674=DIRECTION('',(0.,1.,0.));
#675=DIRECTION('center_axis',(1.,0.,0.));
#676=DIRECTION('ref_axis',(0.,0.,-1.));
#677=DIRECTION('',(0.,0.,-1.));
#678=DIRECTION('',(0.,0.,-1.));
#679=DIRECTION('',(0.,1.,0.));
#680=DIRECTION('center_axis',(0.,0.,1.));
#681=DIRECTION('ref_axis',(1.,0.,0.));
#682=DIRECTION('',(1.,0.,0.));
#683=DIRECTION('',(1.,0.,0.));
#684=DIRECTION('',(0.,1.,0.));
#685=DIRECTION('center_axis',(-1.,0.,0.));
#686=DIRECTION('ref_axis',(0.,0.,1.));
#687=DIRECTION('',(0.,0.,1.));
#688=DIRECTION('',(0.,0.,1.));
#689=DIRECTION('',(0.,1.,0.));
#690=DIRECTION('center_axis',(-1.10182002088767E-14,0.,-1.));
#691=DIRECTION('ref_axis',(-1.,0.,1.10182002088767E-14));
#692=DIRECTION('',(-1.,0.,1.10182002088767E-14));
#693=DIRECTION('',(-1.,0.,1.10182002088767E-14));
#694=DIRECTION('',(0.,1.,0.));
#695=DIRECTION('center_axis',(1.,0.,-1.11318361935749E-14));
#696=DIRECTION('ref_axis',(-1.11318361935749E-14,0.,-1.));
#697=DIRECTION('',(-1.11318361935749E-14,0.,-1.));
#698=DIRECTION('',(-1.11318361935749E-14,0.,-1.));
#699=DIRECTION('',(0.,1.,0.));
#700=DIRECTION('center_axis',(8.49225374885995E-15,0.,1.));
#701=DIRECTION('ref_axis',(1.,0.,-8.49225374885995E-15));
#702=DIRECTION('',(1.,0.,-8.49225374885995E-15));
#703=DIRECTION('',(1.,0.,-8.49225374885995E-15));
#704=DIRECTION('center_axis',(0.,1.,0.));
#705=DIRECTION('ref_axis',(0.,0.,1.));
#706=DIRECTION('center_axis',(0.,1.,0.));
#707=DIRECTION('ref_axis',(1.,0.,0.));
#708=CARTESIAN_POINT('',(0.,0.,0.));
#709=CARTESIAN_POINT('Origin',(-172.571188318585,3.,-76.5507466273241));
#710=CARTESIAN_POINT('',(-170.071188318585,3.,-76.550746627324));
#711=CARTESIAN_POINT('Origin',(-172.571188318585,3.,-76.5507466273241));
#712=CARTESIAN_POINT('',(-170.071188318585,0.,-76.5507466273241));
#713=CARTESIAN_POINT('',(-170.071188318585,3.,-76.5507466273241));
#714=CARTESIAN_POINT('Origin',(-172.571188318585,0.,-76.5507466273241));
#715=CARTESIAN_POINT('Origin',(90.7196225583782,3.,-19.7878941629778));
#716=CARTESIAN_POINT('',(93.2196225583782,3.,-19.7878941629778));
#717=CARTESIAN_POINT('Origin',(90.7196225583782,3.,-19.7878941629778));
#718=CARTESIAN_POINT('',(93.2196225583782,0.,-19.7878941629778));
#719=CARTESIAN_POINT('',(93.2196225583782,3.,-19.7878941629778));
#720=CARTESIAN_POINT('Origin',(90.7196225583782,0.,-19.7878941629778));
#721=CARTESIAN_POINT('Origin',(-172.571188318585,3.,89.1646731696661));
#722=CARTESIAN_POINT('',(-170.071188318585,3.,89.1646731696661));
#723=CARTESIAN_POINT('Origin',(-172.571188318585,3.,89.1646731696661));
#724=CARTESIAN_POINT('',(-170.071188318585,0.,89.1646731696661));
#725=CARTESIAN_POINT('',(-170.071188318585,3.,89.1646731696661));
#726=CARTESIAN_POINT('Origin',(-172.571188318585,0.,89.1646731696661));
#727=CARTESIAN_POINT('Origin',(91.9520225472249,3.,-76.5507466273272));
#728=CARTESIAN_POINT('',(94.4520225472249,3.,-76.5507466273271));
#729=CARTESIAN_POINT('Origin',(91.9520225472249,3.,-76.5507466273272));
#730=CARTESIAN_POINT('',(94.4520225472249,0.,-76.5507466273272));
#731=CARTESIAN_POINT('',(94.4520225472249,3.,-76.5507466273272));
#732=CARTESIAN_POINT('Origin',(91.9520225472249,0.,-76.5507466273272));
#733=CARTESIAN_POINT('Origin',(-160.226723012631,3.,-37.6561029879472));
#734=CARTESIAN_POINT('',(-160.226723012631,0.,-51.6561029879472));
#735=CARTESIAN_POINT('',(-160.226723012631,0.,-37.6561029879472));
#736=CARTESIAN_POINT('',(-160.226723012631,0.,-15.6745698583889));
#737=CARTESIAN_POINT('',(-160.226723012631,3.,-51.6561029879472));
#738=CARTESIAN_POINT('',(-160.226723012631,3.,-51.6561029879472));
#739=CARTESIAN_POINT('',(-160.226723012631,3.,-37.6561029879472));
#740=CARTESIAN_POINT('',(-160.226723012631,3.,-15.6745698583889));
#741=CARTESIAN_POINT('',(-160.226723012631,3.,-37.6561029879472));
#742=CARTESIAN_POINT('Origin',(-152.226723012631,3.,-37.6561029879471));
#743=CARTESIAN_POINT('',(-152.226723012631,0.,-29.6561029879472));
#744=CARTESIAN_POINT('Origin',(-152.226723012631,0.,-37.6561029879471));
#745=CARTESIAN_POINT('',(-152.226723012631,3.,-29.6561029879472));
#746=CARTESIAN_POINT('Origin',(-152.226723012631,3.,-37.6561029879471));
#747=CARTESIAN_POINT('',(-152.226723012631,3.,-29.6561029879472));
#748=CARTESIAN_POINT('Origin',(-118.226723012631,3.,-29.6561029879472));
#749=CARTESIAN_POINT('',(-118.226723012631,0.,-29.6561029879472));
#750=CARTESIAN_POINT('',(-79.2681529491554,0.,-29.6561029879471));
#751=CARTESIAN_POINT('',(-118.226723012631,3.,-29.6561029879472));
#752=CARTESIAN_POINT('',(-79.2681529491554,3.,-29.6561029879471));
#753=CARTESIAN_POINT('',(-118.226723012631,3.,-29.6561029879472));
#754=CARTESIAN_POINT('Origin',(-118.226723012631,3.,-37.6561029879471));
#755=CARTESIAN_POINT('',(-110.226723012631,0.,-37.6561029879471));
#756=CARTESIAN_POINT('Origin',(-118.226723012631,0.,-37.6561029879471));
#757=CARTESIAN_POINT('',(-110.226723012631,3.,-37.6561029879471));
#758=CARTESIAN_POINT('Origin',(-118.226723012631,3.,-37.6561029879471));
#759=CARTESIAN_POINT('',(-110.226723012631,3.,-37.6561029879471));
#760=CARTESIAN_POINT('Origin',(-110.226723012631,3.,-51.6561029879472));
#761=CARTESIAN_POINT('',(-110.226723012631,0.,-51.6561029879472));
#762=CARTESIAN_POINT('',(-110.226723012631,0.,-22.6745698583888));
#763=CARTESIAN_POINT('',(-110.226723012631,3.,-51.6561029879472));
#764=CARTESIAN_POINT('',(-110.226723012631,3.,-22.6745698583888));
#765=CARTESIAN_POINT('',(-110.226723012631,3.,-51.6561029879472));
#766=CARTESIAN_POINT('Origin',(-118.226723012631,3.,-51.6561029879472));
#767=CARTESIAN_POINT('',(-118.226723012631,0.,-59.6561029879472));
#768=CARTESIAN_POINT('Origin',(-118.226723012631,0.,-51.6561029879472));
#769=CARTESIAN_POINT('',(-118.226723012631,3.,-59.6561029879472));
#770=CARTESIAN_POINT('Origin',(-118.226723012631,3.,-51.6561029879472));
#771=CARTESIAN_POINT('',(-118.226723012631,3.,-59.6561029879472));
#772=CARTESIAN_POINT('Origin',(-152.226723012631,3.,-59.6561029879472));
#773=CARTESIAN_POINT('',(-152.226723012631,0.,-59.6561029879472));
#774=CARTESIAN_POINT('',(-96.2681529491554,0.,-59.6561029879472));
#775=CARTESIAN_POINT('',(-152.226723012631,3.,-59.6561029879472));
#776=CARTESIAN_POINT('',(-96.2681529491554,3.,-59.6561029879472));
#777=CARTESIAN_POINT('',(-152.226723012631,3.,-59.6561029879472));
#778=CARTESIAN_POINT('Origin',(-152.226723012631,3.,-51.6561029879472));
#779=CARTESIAN_POINT('Origin',(-152.226723012631,0.,-51.6561029879472));
#780=CARTESIAN_POINT('Origin',(-152.226723012631,3.,-51.6561029879472));
#781=CARTESIAN_POINT('Origin',(70.8058982559442,3.,-44.6561029879484));
#782=CARTESIAN_POINT('',(84.8058982559442,3.,-44.6561029879484));
#783=CARTESIAN_POINT('Origin',(70.8058982559442,3.,-44.6561029879484));
#784=CARTESIAN_POINT('',(84.8058982559442,0.,-44.6561029879484));
#785=CARTESIAN_POINT('',(84.8058982559442,3.,-44.6561029879484));
#786=CARTESIAN_POINT('Origin',(70.8058982559442,0.,-44.6561029879484));
#787=CARTESIAN_POINT('Origin',(-102.809851527609,0.,4.90323373365388));
#788=CARTESIAN_POINT('',(-102.809851527609,0.,4.90323373365388));
#789=CARTESIAN_POINT('',(96.4290880907399,0.,-12.5279148158778));
#790=CARTESIAN_POINT('',(-102.809851527609,0.,4.90323373365388));
#791=CARTESIAN_POINT('',(96.4290880907399,3.,-12.5279148158778));
#792=CARTESIAN_POINT('',(96.4290880907399,0.,-12.5279148158778));
#793=CARTESIAN_POINT('',(-102.809851527609,3.,4.90323373365388));
#794=CARTESIAN_POINT('',(-102.809851527609,3.,4.90323373365388));
#795=CARTESIAN_POINT('',(-102.809851527609,0.,4.90323373365388));
#796=CARTESIAN_POINT('Origin',(-104.408237414683,0.,8.75908157864471));
#797=CARTESIAN_POINT('',(-104.408237414683,0.,8.75908157864471));
#798=CARTESIAN_POINT('',(-104.408237414683,0.,8.75908157864471));
#799=CARTESIAN_POINT('',(-104.408237414683,3.,8.75908157864471));
#800=CARTESIAN_POINT('',(-104.408237414683,3.,8.75908157864471));
#801=CARTESIAN_POINT('',(-104.408237414683,0.,8.75908157864471));
#802=CARTESIAN_POINT('Origin',(-132.692508662145,0.,37.0433528261066));
#803=CARTESIAN_POINT('',(-132.692508662145,0.,37.0433528261066));
#804=CARTESIAN_POINT('',(-132.692508662145,0.,37.0433528261066));
#805=CARTESIAN_POINT('',(-132.692508662145,3.,37.0433528261066));
#806=CARTESIAN_POINT('',(-132.692508662145,3.,37.0433528261066));
#807=CARTESIAN_POINT('',(-132.692508662145,0.,37.0433528261066));
#808=CARTESIAN_POINT('Origin',(-133.571188318585,0.,39.1646731696662));
#809=CARTESIAN_POINT('',(-133.571188318585,0.,39.1646731696662));
#810=CARTESIAN_POINT('',(-133.571188318585,0.,39.1646731696662));
#811=CARTESIAN_POINT('',(-133.571188318585,3.,39.1646731696663));
#812=CARTESIAN_POINT('',(-133.571188318585,3.,39.1646731696662));
#813=CARTESIAN_POINT('',(-133.571188318585,0.,39.1646731696662));
#814=CARTESIAN_POINT('Origin',(-133.571188318585,0.,94.1646731696662));
#815=CARTESIAN_POINT('',(-133.571188318585,0.,94.1646731696662));
#816=CARTESIAN_POINT('',(-133.571188318585,0.,94.1646731696662));
#817=CARTESIAN_POINT('',(-133.571188318585,3.,94.1646731696662));
#818=CARTESIAN_POINT('',(-133.571188318585,3.,94.1646731696662));
#819=CARTESIAN_POINT('',(-133.571188318585,0.,94.1646731696662));
#820=CARTESIAN_POINT('Origin',(-177.571188318585,0.,94.1646731696662));
#821=CARTESIAN_POINT('',(-177.571188318585,0.,94.1646731696662));
#822=CARTESIAN_POINT('',(-180.571188318585,0.,94.1646731696662));
#823=CARTESIAN_POINT('',(-177.571188318585,3.,94.1646731696662));
#824=CARTESIAN_POINT('',(-180.571188318585,3.,94.1646731696662));
#825=CARTESIAN_POINT('',(-177.571188318585,0.,94.1646731696662));
#826=CARTESIAN_POINT('Origin',(-177.571188318585,0.,-81.5507466273242));
#827=CARTESIAN_POINT('',(-177.571188318585,0.,-81.5507466273242));
#828=CARTESIAN_POINT('',(-177.571188318585,0.,-81.5507466273273));
#829=CARTESIAN_POINT('',(-177.571188318585,3.,-81.5507466273242));
#830=CARTESIAN_POINT('',(-177.571188318585,3.,-81.5507466273273));
#831=CARTESIAN_POINT('',(-177.571188318585,0.,-81.5507466273242));
#832=CARTESIAN_POINT('Origin',(96.9520225472251,0.,-81.5507466273272));
#833=CARTESIAN_POINT('',(96.9520225472251,0.,-81.5507466273273));
#834=CARTESIAN_POINT('',(99.9520225472242,0.,-81.5507466273272));
#835=CARTESIAN_POINT('',(96.9520225472251,3.,-81.5507466273273));
#836=CARTESIAN_POINT('',(99.9520225472242,3.,-81.5507466273272));
#837=CARTESIAN_POINT('',(96.9520225472251,0.,-81.5507466273273));
#838=CARTESIAN_POINT('Origin',(96.9520225472259,0.,-12.5279148158778));
#839=CARTESIAN_POINT('',(96.9520225472259,0.,-12.5279148158778));
#840=CARTESIAN_POINT('',(96.9520225472259,0.,-6.55074662732728));
#841=CARTESIAN_POINT('',(96.9520225472259,3.,-12.5279148158778));
#842=CARTESIAN_POINT('',(96.9520225472259,3.,-6.55074662732728));
#843=CARTESIAN_POINT('',(96.9520225472259,0.,-12.5279148158778));
#844=CARTESIAN_POINT('Origin',(96.4290880907399,0.,-12.5279148158778));
#845=CARTESIAN_POINT('',(96.4290880907399,0.,-12.5279148158778));
#846=CARTESIAN_POINT('',(96.4290880907399,3.,-12.5279148158778));
#847=CARTESIAN_POINT('Origin',(-40.3095828856797,3.,6.30696327116945));
#848=CARTESIAN_POINT('Origin',(-40.3095828856797,0.,6.30696327116945));
#849=UNCERTAINTY_MEASURE_WITH_UNIT(LENGTH_MEASURE(0.01),#853,
'DISTANCE_ACCURACY_VALUE',
'Maximum model space distance between geometric entities at asserted c
onnectivities');
#850=UNCERTAINTY_MEASURE_WITH_UNIT(LENGTH_MEASURE(0.01),#853,
'DISTANCE_ACCURACY_VALUE',
'Maximum model space distance between geometric entities at asserted c
onnectivities');
#851=(
GEOMETRIC_REPRESENTATION_CONTEXT(3)
GLOBAL_UNCERTAINTY_ASSIGNED_CONTEXT((#849))
GLOBAL_UNIT_ASSIGNED_CONTEXT((#853,#855,#856))
REPRESENTATION_CONTEXT('','3D')
);
#852=(
GEOMETRIC_REPRESENTATION_CONTEXT(3)
GLOBAL_UNCERTAINTY_ASSIGNED_CONTEXT((#850))
GLOBAL_UNIT_ASSIGNED_CONTEXT((#853,#855,#856))
REPRESENTATION_CONTEXT('','3D')
);
#853=(
LENGTH_UNIT()
NAMED_UNIT(*)
SI_UNIT(.MILLI.,.METRE.)
);
#854=(
LENGTH_UNIT()
NAMED_UNIT(*)
SI_UNIT($,.METRE.)
);
#855=(
NAMED_UNIT(*)
PLANE_ANGLE_UNIT()
SI_UNIT($,.RADIAN.)
);
#856=(
NAMED_UNIT(*)
SI_UNIT($,.STERADIAN.)
SOLID_ANGLE_UNIT()
);
#857=SHAPE_DEFINITION_REPRESENTATION(#858,#859);
#858=PRODUCT_DEFINITION_SHAPE('',$,#861);
#859=SHAPE_REPRESENTATION('',(#525),#851);
#860=PRODUCT_DEFINITION_CONTEXT('part definition',#865,'design');
#861=PRODUCT_DEFINITION('Inner Wall','Inner Wall',#862,#860);
#862=PRODUCT_DEFINITION_FORMATION('',$,#867);
#863=PRODUCT_RELATED_PRODUCT_CATEGORY('Inner Wall','Inner Wall',(#867));
#864=APPLICATION_PROTOCOL_DEFINITION('international standard',
'automotive_design',2009,#865);
#865=APPLICATION_CONTEXT(
'Core Data for Automotive Mechanical Design Process');
#866=PRODUCT_CONTEXT('part definition',#865,'mechanical');
#867=PRODUCT('Inner Wall','Inner Wall',$,(#866));
#868=PRESENTATION_STYLE_ASSIGNMENT((#869));
#869=SURFACE_STYLE_USAGE(.BOTH.,#870);
#870=SURFACE_SIDE_STYLE('',(#871));
#871=SURFACE_STYLE_FILL_AREA(#872);
#872=FILL_AREA_STYLE('Steel - Satin',(#873));
#873=FILL_AREA_STYLE_COLOUR('Steel - Satin',#874);
#874=COLOUR_RGB('Steel - Satin',0.627450980392157,0.627450980392157,0.627450980392157);
ENDSEC;
END-ISO-10303-21;
