ISO-10303-21;
HEADER;
/* Generated by software containing ST-Developer
 * from STEP Tools, Inc. (www.steptools.com) 
 */

FILE_DESCRIPTION(
/* description */ (''),
/* implementation_level */ '2;1');

FILE_NAME(
/* name */ 'Outer Wall.step',
/* time_stamp */ '2025-12-05T20:30:04-08:00',
/* author */ (''),
/* organization */ (''),
/* preprocessor_version */ 'ST-DEVELOPER v20.1',
/* originating_system */ 'Autodesk Translation Framework v14.21.0.0',
/* authorisation */ '');

FILE_SCHEMA (('AUTOMOTIVE_DESIGN { 1 0 10303 214 3 1 1 }'));
ENDSEC;

DATA;
#10=MECHANICAL_DESIGN_GEOMETRIC_PRESENTATION_REPRESENTATION('',(#13),#1853);
#11=SHAPE_REPRESENTATION_RELATIONSHIP('SRR','None',#1860,#12);
#12=ADVANCED_BREP_SHAPE_REPRESENTATION('',(#14),#1852);
#13=STYLED_ITEM('',(#1869),#14);
#14=MANIFOLD_SOLID_BREP('Body1',#1125);
#15=FACE_BOUND('',#181,.T.);
#16=FACE_BOUND('',#182,.T.);
#17=FACE_BOUND('',#183,.T.);
#18=FACE_BOUND('',#184,.T.);
#19=FACE_BOUND('',#185,.T.);
#20=FACE_BOUND('',#186,.T.);
#21=FACE_BOUND('',#187,.T.);
#22=FACE_BOUND('',#188,.T.);
#23=FACE_BOUND('',#189,.T.);
#24=FACE_BOUND('',#190,.T.);
#25=FACE_BOUND('',#191,.T.);
#26=FACE_BOUND('',#192,.T.);
#27=FACE_BOUND('',#194,.T.);
#28=FACE_BOUND('',#195,.T.);
#29=FACE_BOUND('',#196,.T.);
#30=FACE_BOUND('',#197,.T.);
#31=FACE_BOUND('',#198,.T.);
#32=FACE_BOUND('',#199,.T.);
#33=FACE_BOUND('',#200,.T.);
#34=FACE_BOUND('',#201,.T.);
#35=FACE_BOUND('',#202,.T.);
#36=FACE_BOUND('',#203,.T.);
#37=FACE_BOUND('',#204,.T.);
#38=FACE_BOUND('',#205,.T.);
#39=PLANE('',#1151);
#40=PLANE('',#1152);
#41=PLANE('',#1153);
#42=PLANE('',#1154);
#43=PLANE('',#1158);
#44=PLANE('',#1159);
#45=PLANE('',#1160);
#46=PLANE('',#1161);
#47=PLANE('',#1162);
#48=PLANE('',#1169);
#49=PLANE('',#1170);
#50=PLANE('',#1171);
#51=PLANE('',#1172);
#52=PLANE('',#1173);
#53=PLANE('',#1174);
#54=PLANE('',#1175);
#55=PLANE('',#1176);
#56=PLANE('',#1177);
#57=PLANE('',#1178);
#58=PLANE('',#1179);
#59=PLANE('',#1180);
#60=PLANE('',#1181);
#61=PLANE('',#1182);
#62=PLANE('',#1183);
#63=PLANE('',#1184);
#64=PLANE('',#1197);
#65=PLANE('',#1201);
#66=PLANE('',#1205);
#67=PLANE('',#1209);
#68=PLANE('',#1213);
#69=PLANE('',#1217);
#70=PLANE('',#1221);
#71=PLANE('',#1225);
#72=PLANE('',#1229);
#73=PLANE('',#1230);
#74=FACE_OUTER_BOUND('',#128,.T.);
#75=FACE_OUTER_BOUND('',#129,.T.);
#76=FACE_OUTER_BOUND('',#130,.T.);
#77=FACE_OUTER_BOUND('',#131,.T.);
#78=FACE_OUTER_BOUND('',#132,.T.);
#79=FACE_OUTER_BOUND('',#133,.T.);
#80=FACE_OUTER_BOUND('',#134,.T.);
#81=FACE_OUTER_BOUND('',#135,.T.);
#82=FACE_OUTER_BOUND('',#136,.T.);
#83=FACE_OUTER_BOUND('',#137,.T.);
#84=FACE_OUTER_BOUND('',#138,.T.);
#85=FACE_OUTER_BOUND('',#139,.T.);
#86=FACE_OUTER_BOUND('',#140,.T.);
#87=FACE_OUTER_BOUND('',#141,.T.);
#88=FACE_OUTER_BOUND('',#142,.T.);
#89=FACE_OUTER_BOUND('',#143,.T.);
#90=FACE_OUTER_BOUND('',#144,.T.);
#91=FACE_OUTER_BOUND('',#145,.T.);
#92=FACE_OUTER_BOUND('',#146,.T.);
#93=FACE_OUTER_BOUND('',#147,.T.);
#94=FACE_OUTER_BOUND('',#148,.T.);
#95=FACE_OUTER_BOUND('',#149,.T.);
#96=FACE_OUTER_BOUND('',#150,.T.);
#97=FACE_OUTER_BOUND('',#151,.T.);
#98=FACE_OUTER_BOUND('',#152,.T.);
#99=FACE_OUTER_BOUND('',#153,.T.);
#100=FACE_OUTER_BOUND('',#154,.T.);
#101=FACE_OUTER_BOUND('',#155,.T.);
#102=FACE_OUTER_BOUND('',#156,.T.);
#103=FACE_OUTER_BOUND('',#157,.T.);
#104=FACE_OUTER_BOUND('',#158,.T.);
#105=FACE_OUTER_BOUND('',#159,.T.);
#106=FACE_OUTER_BOUND('',#160,.T.);
#107=FACE_OUTER_BOUND('',#161,.T.);
#108=FACE_OUTER_BOUND('',#162,.T.);
#109=FACE_OUTER_BOUND('',#163,.T.);
#110=FACE_OUTER_BOUND('',#164,.T.);
#111=FACE_OUTER_BOUND('',#165,.T.);
#112=FACE_OUTER_BOUND('',#166,.T.);
#113=FACE_OUTER_BOUND('',#167,.T.);
#114=FACE_OUTER_BOUND('',#168,.T.);
#115=FACE_OUTER_BOUND('',#169,.T.);
#116=FACE_OUTER_BOUND('',#170,.T.);
#117=FACE_OUTER_BOUND('',#171,.T.);
#118=FACE_OUTER_BOUND('',#172,.T.);
#119=FACE_OUTER_BOUND('',#173,.T.);
#120=FACE_OUTER_BOUND('',#174,.T.);
#121=FACE_OUTER_BOUND('',#175,.T.);
#122=FACE_OUTER_BOUND('',#176,.T.);
#123=FACE_OUTER_BOUND('',#177,.T.);
#124=FACE_OUTER_BOUND('',#178,.T.);
#125=FACE_OUTER_BOUND('',#179,.T.);
#126=FACE_OUTER_BOUND('',#180,.T.);
#127=FACE_OUTER_BOUND('',#193,.T.);
#128=EDGE_LOOP('',(#740,#741,#742,#743));
#129=EDGE_LOOP('',(#744,#745,#746,#747));
#130=EDGE_LOOP('',(#748,#749,#750,#751));
#131=EDGE_LOOP('',(#752,#753,#754,#755));
#132=EDGE_LOOP('',(#756,#757,#758,#759));
#133=EDGE_LOOP('',(#760,#761,#762,#763));
#134=EDGE_LOOP('',(#764,#765,#766,#767));
#135=EDGE_LOOP('',(#768,#769,#770,#771));
#136=EDGE_LOOP('',(#772,#773,#774,#775));
#137=EDGE_LOOP('',(#776,#777,#778,#779));
#138=EDGE_LOOP('',(#780,#781,#782,#783));
#139=EDGE_LOOP('',(#784,#785,#786,#787));
#140=EDGE_LOOP('',(#788,#789,#790,#791));
#141=EDGE_LOOP('',(#792,#793,#794,#795));
#142=EDGE_LOOP('',(#796,#797,#798,#799));
#143=EDGE_LOOP('',(#800,#801,#802,#803));
#144=EDGE_LOOP('',(#804,#805,#806,#807));
#145=EDGE_LOOP('',(#808,#809,#810,#811));
#146=EDGE_LOOP('',(#812,#813,#814,#815));
#147=EDGE_LOOP('',(#816,#817,#818,#819));
#148=EDGE_LOOP('',(#820,#821,#822,#823));
#149=EDGE_LOOP('',(#824,#825,#826,#827));
#150=EDGE_LOOP('',(#828,#829,#830,#831));
#151=EDGE_LOOP('',(#832,#833,#834,#835));
#152=EDGE_LOOP('',(#836,#837,#838,#839));
#153=EDGE_LOOP('',(#840,#841,#842,#843));
#154=EDGE_LOOP('',(#844,#845,#846,#847));
#155=EDGE_LOOP('',(#848,#849,#850,#851));
#156=EDGE_LOOP('',(#852,#853,#854,#855));
#157=EDGE_LOOP('',(#856,#857,#858,#859));
#158=EDGE_LOOP('',(#860,#861,#862,#863));
#159=EDGE_LOOP('',(#864,#865,#866,#867));
#160=EDGE_LOOP('',(#868,#869,#870,#871));
#161=EDGE_LOOP('',(#872,#873,#874,#875));
#162=EDGE_LOOP('',(#876,#877,#878,#879));
#163=EDGE_LOOP('',(#880,#881,#882,#883));
#164=EDGE_LOOP('',(#884,#885,#886,#887));
#165=EDGE_LOOP('',(#888,#889,#890,#891));
#166=EDGE_LOOP('',(#892,#893,#894,#895));
#167=EDGE_LOOP('',(#896,#897,#898,#899));
#168=EDGE_LOOP('',(#900,#901,#902,#903));
#169=EDGE_LOOP('',(#904,#905,#906,#907));
#170=EDGE_LOOP('',(#908,#909,#910,#911));
#171=EDGE_LOOP('',(#912,#913,#914,#915));
#172=EDGE_LOOP('',(#916,#917,#918,#919));
#173=EDGE_LOOP('',(#920,#921,#922,#923));
#174=EDGE_LOOP('',(#924,#925,#926,#927));
#175=EDGE_LOOP('',(#928,#929,#930,#931));
#176=EDGE_LOOP('',(#932,#933,#934,#935));
#177=EDGE_LOOP('',(#936,#937,#938,#939));
#178=EDGE_LOOP('',(#940,#941,#942,#943));
#179=EDGE_LOOP('',(#944,#945,#946,#947));
#180=EDGE_LOOP('',(#948,#949,#950,#951,#952,#953,#954,#955,#956,#957,#958,
#959,#960,#961,#962,#963));
#181=EDGE_LOOP('',(#964));
#182=EDGE_LOOP('',(#965));
#183=EDGE_LOOP('',(#966));
#184=EDGE_LOOP('',(#967));
#185=EDGE_LOOP('',(#968,#969,#970,#971));
#186=EDGE_LOOP('',(#972,#973,#974,#975,#976));
#187=EDGE_LOOP('',(#977,#978,#979,#980,#981));
#188=EDGE_LOOP('',(#982,#983,#984,#985));
#189=EDGE_LOOP('',(#986,#987,#988,#989));
#190=EDGE_LOOP('',(#990,#991,#992,#993));
#191=EDGE_LOOP('',(#994,#995,#996,#997,#998));
#192=EDGE_LOOP('',(#999));
#193=EDGE_LOOP('',(#1000,#1001,#1002,#1003,#1004,#1005,#1006,#1007,#1008,
#1009,#1010,#1011,#1012,#1013,#1014,#1015));
#194=EDGE_LOOP('',(#1016));
#195=EDGE_LOOP('',(#1017));
#196=EDGE_LOOP('',(#1018));
#197=EDGE_LOOP('',(#1019));
#198=EDGE_LOOP('',(#1020,#1021,#1022,#1023));
#199=EDGE_LOOP('',(#1024,#1025,#1026,#1027,#1028));
#200=EDGE_LOOP('',(#1029,#1030,#1031,#1032));
#201=EDGE_LOOP('',(#1033,#1034,#1035,#1036,#1037));
#202=EDGE_LOOP('',(#1038,#1039,#1040,#1041));
#203=EDGE_LOOP('',(#1042,#1043,#1044,#1045));
#204=EDGE_LOOP('',(#1046,#1047,#1048,#1049,#1050));
#205=EDGE_LOOP('',(#1051));
#206=LINE('',#1540,#324);
#207=LINE('',#1546,#325);
#208=LINE('',#1552,#326);
#209=LINE('',#1558,#327);
#210=LINE('',#1563,#328);
#211=LINE('',#1565,#329);
#212=LINE('',#1567,#330);
#213=LINE('',#1568,#331);
#214=LINE('',#1572,#332);
#215=LINE('',#1574,#333);
#216=LINE('',#1576,#334);
#217=LINE('',#1577,#335);
#218=LINE('',#1580,#336);
#219=LINE('',#1582,#337);
#220=LINE('',#1583,#338);
#221=LINE('',#1586,#339);
#222=LINE('',#1588,#340);
#223=LINE('',#1589,#341);
#224=LINE('',#1594,#342);
#225=LINE('',#1598,#343);
#226=LINE('',#1600,#344);
#227=LINE('',#1601,#345);
#228=LINE('',#1605,#346);
#229=LINE('',#1607,#347);
#230=LINE('',#1609,#348);
#231=LINE('',#1610,#349);
#232=LINE('',#1614,#350);
#233=LINE('',#1616,#351);
#234=LINE('',#1618,#352);
#235=LINE('',#1619,#353);
#236=LINE('',#1622,#354);
#237=LINE('',#1624,#355);
#238=LINE('',#1625,#356);
#239=LINE('',#1628,#357);
#240=LINE('',#1630,#358);
#241=LINE('',#1631,#359);
#242=LINE('',#1636,#360);
#243=LINE('',#1642,#361);
#244=LINE('',#1647,#362);
#245=LINE('',#1649,#363);
#246=LINE('',#1651,#364);
#247=LINE('',#1652,#365);
#248=LINE('',#1655,#366);
#249=LINE('',#1657,#367);
#250=LINE('',#1658,#368);
#251=LINE('',#1660,#369);
#252=LINE('',#1661,#370);
#253=LINE('',#1664,#371);
#254=LINE('',#1666,#372);
#255=LINE('',#1667,#373);
#256=LINE('',#1671,#374);
#257=LINE('',#1673,#375);
#258=LINE('',#1675,#376);
#259=LINE('',#1676,#377);
#260=LINE('',#1678,#378);
#261=LINE('',#1679,#379);
#262=LINE('',#1682,#380);
#263=LINE('',#1684,#381);
#264=LINE('',#1685,#382);
#265=LINE('',#1689,#383);
#266=LINE('',#1691,#384);
#267=LINE('',#1693,#385);
#268=LINE('',#1694,#386);
#269=LINE('',#1697,#387);
#270=LINE('',#1699,#388);
#271=LINE('',#1700,#389);
#272=LINE('',#1703,#390);
#273=LINE('',#1705,#391);
#274=LINE('',#1706,#392);
#275=LINE('',#1708,#393);
#276=LINE('',#1709,#394);
#277=LINE('',#1712,#395);
#278=LINE('',#1714,#396);
#279=LINE('',#1715,#397);
#280=LINE('',#1718,#398);
#281=LINE('',#1720,#399);
#282=LINE('',#1721,#400);
#283=LINE('',#1723,#401);
#284=LINE('',#1724,#402);
#285=LINE('',#1727,#403);
#286=LINE('',#1729,#404);
#287=LINE('',#1730,#405);
#288=LINE('',#1733,#406);
#289=LINE('',#1735,#407);
#290=LINE('',#1736,#408);
#291=LINE('',#1750,#409);
#292=LINE('',#1755,#410);
#293=LINE('',#1757,#411);
#294=LINE('',#1759,#412);
#295=LINE('',#1760,#413);
#296=LINE('',#1766,#414);
#297=LINE('',#1769,#415);
#298=LINE('',#1771,#416);
#299=LINE('',#1772,#417);
#300=LINE('',#1778,#418);
#301=LINE('',#1781,#419);
#302=LINE('',#1783,#420);
#303=LINE('',#1784,#421);
#304=LINE('',#1790,#422);
#305=LINE('',#1793,#423);
#306=LINE('',#1795,#424);
#307=LINE('',#1796,#425);
#308=LINE('',#1802,#426);
#309=LINE('',#1805,#427);
#310=LINE('',#1807,#428);
#311=LINE('',#1808,#429);
#312=LINE('',#1814,#430);
#313=LINE('',#1817,#431);
#314=LINE('',#1819,#432);
#315=LINE('',#1820,#433);
#316=LINE('',#1826,#434);
#317=LINE('',#1829,#435);
#318=LINE('',#1831,#436);
#319=LINE('',#1832,#437);
#320=LINE('',#1838,#438);
#321=LINE('',#1841,#439);
#322=LINE('',#1843,#440);
#323=LINE('',#1844,#441);
#324=VECTOR('',#1237,2.5);
#325=VECTOR('',#1244,2.5);
#326=VECTOR('',#1251,2.5);
#327=VECTOR('',#1258,2.5);
#328=VECTOR('',#1263,10.);
#329=VECTOR('',#1264,10.);
#330=VECTOR('',#1265,10.);
#331=VECTOR('',#1266,10.);
#332=VECTOR('',#1269,10.);
#333=VECTOR('',#1270,10.);
#334=VECTOR('',#1271,10.);
#335=VECTOR('',#1272,10.);
#336=VECTOR('',#1275,10.);
#337=VECTOR('',#1276,10.);
#338=VECTOR('',#1277,10.);
#339=VECTOR('',#1280,10.);
#340=VECTOR('',#1281,10.);
#341=VECTOR('',#1282,10.);
#342=VECTOR('',#1287,10.);
#343=VECTOR('',#1292,10.);
#344=VECTOR('',#1293,10.);
#345=VECTOR('',#1294,10.);
#346=VECTOR('',#1297,10.);
#347=VECTOR('',#1298,10.);
#348=VECTOR('',#1299,10.);
#349=VECTOR('',#1300,10.);
#350=VECTOR('',#1303,10.);
#351=VECTOR('',#1304,10.);
#352=VECTOR('',#1305,10.);
#353=VECTOR('',#1306,10.);
#354=VECTOR('',#1309,10.);
#355=VECTOR('',#1310,10.);
#356=VECTOR('',#1311,10.);
#357=VECTOR('',#1314,10.);
#358=VECTOR('',#1315,10.);
#359=VECTOR('',#1316,10.);
#360=VECTOR('',#1321,10.);
#361=VECTOR('',#1328,10.);
#362=VECTOR('',#1333,10.);
#363=VECTOR('',#1334,10.);
#364=VECTOR('',#1335,10.);
#365=VECTOR('',#1336,10.);
#366=VECTOR('',#1339,10.);
#367=VECTOR('',#1340,10.);
#368=VECTOR('',#1341,10.);
#369=VECTOR('',#1344,10.);
#370=VECTOR('',#1345,10.);
#371=VECTOR('',#1348,10.);
#372=VECTOR('',#1349,10.);
#373=VECTOR('',#1350,10.);
#374=VECTOR('',#1353,10.);
#375=VECTOR('',#1354,10.);
#376=VECTOR('',#1355,10.);
#377=VECTOR('',#1356,10.);
#378=VECTOR('',#1359,10.);
#379=VECTOR('',#1360,10.);
#380=VECTOR('',#1363,10.);
#381=VECTOR('',#1364,10.);
#382=VECTOR('',#1365,10.);
#383=VECTOR('',#1368,10.);
#384=VECTOR('',#1369,10.);
#385=VECTOR('',#1370,10.);
#386=VECTOR('',#1371,10.);
#387=VECTOR('',#1374,10.);
#388=VECTOR('',#1375,10.);
#389=VECTOR('',#1376,10.);
#390=VECTOR('',#1379,10.);
#391=VECTOR('',#1380,10.);
#392=VECTOR('',#1381,10.);
#393=VECTOR('',#1384,10.);
#394=VECTOR('',#1385,10.);
#395=VECTOR('',#1388,10.);
#396=VECTOR('',#1389,10.);
#397=VECTOR('',#1390,10.);
#398=VECTOR('',#1393,10.);
#399=VECTOR('',#1394,10.);
#400=VECTOR('',#1395,10.);
#401=VECTOR('',#1398,10.);
#402=VECTOR('',#1399,10.);
#403=VECTOR('',#1402,10.);
#404=VECTOR('',#1403,10.);
#405=VECTOR('',#1404,10.);
#406=VECTOR('',#1407,10.);
#407=VECTOR('',#1408,10.);
#408=VECTOR('',#1409,10.);
#409=VECTOR('',#1432,14.);
#410=VECTOR('',#1437,10.);
#411=VECTOR('',#1438,10.);
#412=VECTOR('',#1439,10.);
#413=VECTOR('',#1440,10.);
#414=VECTOR('',#1447,10.);
#415=VECTOR('',#1450,10.);
#416=VECTOR('',#1451,10.);
#417=VECTOR('',#1452,10.);
#418=VECTOR('',#1459,10.);
#419=VECTOR('',#1462,10.);
#420=VECTOR('',#1463,10.);
#421=VECTOR('',#1464,10.);
#422=VECTOR('',#1471,10.);
#423=VECTOR('',#1474,10.);
#424=VECTOR('',#1475,10.);
#425=VECTOR('',#1476,10.);
#426=VECTOR('',#1483,10.);
#427=VECTOR('',#1486,10.);
#428=VECTOR('',#1487,10.);
#429=VECTOR('',#1488,10.);
#430=VECTOR('',#1495,10.);
#431=VECTOR('',#1498,10.);
#432=VECTOR('',#1499,10.);
#433=VECTOR('',#1500,10.);
#434=VECTOR('',#1507,10.);
#435=VECTOR('',#1510,10.);
#436=VECTOR('',#1511,10.);
#437=VECTOR('',#1512,10.);
#438=VECTOR('',#1519,10.);
#439=VECTOR('',#1522,10.);
#440=VECTOR('',#1523,10.);
#441=VECTOR('',#1524,10.);
#442=CIRCLE('',#1140,2.5);
#443=CIRCLE('',#1141,2.5);
#444=CIRCLE('',#1143,2.5);
#445=CIRCLE('',#1144,2.5);
#446=CIRCLE('',#1146,2.5);
#447=CIRCLE('',#1147,2.5);
#448=CIRCLE('',#1149,2.5);
#449=CIRCLE('',#1150,2.5);
#450=CIRCLE('',#1156,7.99999999999999);
#451=CIRCLE('',#1157,7.99999999999999);
#452=CIRCLE('',#1164,7.99999999999994);
#453=CIRCLE('',#1165,7.99999999999994);
#454=CIRCLE('',#1167,7.99999999999994);
#455=CIRCLE('',#1168,7.99999999999994);
#456=CIRCLE('',#1186,7.99999999999995);
#457=CIRCLE('',#1187,7.99999999999995);
#458=CIRCLE('',#1189,7.99999999999999);
#459=CIRCLE('',#1190,7.99999999999999);
#460=CIRCLE('',#1192,7.99999999999999);
#461=CIRCLE('',#1193,7.99999999999999);
#462=CIRCLE('',#1195,14.);
#463=CIRCLE('',#1196,14.);
#464=CIRCLE('',#1199,9.99999999999993);
#465=CIRCLE('',#1200,9.99999999999993);
#466=CIRCLE('',#1203,9.99999999999995);
#467=CIRCLE('',#1204,9.99999999999995);
#468=CIRCLE('',#1207,9.99999999999982);
#469=CIRCLE('',#1208,9.99999999999982);
#470=CIRCLE('',#1211,10.);
#471=CIRCLE('',#1212,10.);
#472=CIRCLE('',#1215,10.);
#473=CIRCLE('',#1216,10.);
#474=CIRCLE('',#1219,10.);
#475=CIRCLE('',#1220,10.);
#476=CIRCLE('',#1223,10.);
#477=CIRCLE('',#1224,10.);
#478=CIRCLE('',#1227,10.);
#479=CIRCLE('',#1228,10.);
#480=VERTEX_POINT('',#1537);
#481=VERTEX_POINT('',#1539);
#482=VERTEX_POINT('',#1543);
#483=VERTEX_POINT('',#1545);
#484=VERTEX_POINT('',#1549);
#485=VERTEX_POINT('',#1551);
#486=VERTEX_POINT('',#1555);
#487=VERTEX_POINT('',#1557);
#488=VERTEX_POINT('',#1561);
#489=VERTEX_POINT('',#1562);
#490=VERTEX_POINT('',#1564);
#491=VERTEX_POINT('',#1566);
#492=VERTEX_POINT('',#1570);
#493=VERTEX_POINT('',#1571);
#494=VERTEX_POINT('',#1573);
#495=VERTEX_POINT('',#1575);
#496=VERTEX_POINT('',#1579);
#497=VERTEX_POINT('',#1581);
#498=VERTEX_POINT('',#1585);
#499=VERTEX_POINT('',#1587);
#500=VERTEX_POINT('',#1591);
#501=VERTEX_POINT('',#1593);
#502=VERTEX_POINT('',#1597);
#503=VERTEX_POINT('',#1599);
#504=VERTEX_POINT('',#1603);
#505=VERTEX_POINT('',#1604);
#506=VERTEX_POINT('',#1606);
#507=VERTEX_POINT('',#1608);
#508=VERTEX_POINT('',#1612);
#509=VERTEX_POINT('',#1613);
#510=VERTEX_POINT('',#1615);
#511=VERTEX_POINT('',#1617);
#512=VERTEX_POINT('',#1621);
#513=VERTEX_POINT('',#1623);
#514=VERTEX_POINT('',#1627);
#515=VERTEX_POINT('',#1629);
#516=VERTEX_POINT('',#1633);
#517=VERTEX_POINT('',#1635);
#518=VERTEX_POINT('',#1639);
#519=VERTEX_POINT('',#1641);
#520=VERTEX_POINT('',#1645);
#521=VERTEX_POINT('',#1646);
#522=VERTEX_POINT('',#1648);
#523=VERTEX_POINT('',#1650);
#524=VERTEX_POINT('',#1654);
#525=VERTEX_POINT('',#1656);
#526=VERTEX_POINT('',#1663);
#527=VERTEX_POINT('',#1665);
#528=VERTEX_POINT('',#1669);
#529=VERTEX_POINT('',#1670);
#530=VERTEX_POINT('',#1672);
#531=VERTEX_POINT('',#1674);
#532=VERTEX_POINT('',#1681);
#533=VERTEX_POINT('',#1683);
#534=VERTEX_POINT('',#1687);
#535=VERTEX_POINT('',#1688);
#536=VERTEX_POINT('',#1690);
#537=VERTEX_POINT('',#1692);
#538=VERTEX_POINT('',#1696);
#539=VERTEX_POINT('',#1698);
#540=VERTEX_POINT('',#1702);
#541=VERTEX_POINT('',#1704);
#542=VERTEX_POINT('',#1711);
#543=VERTEX_POINT('',#1713);
#544=VERTEX_POINT('',#1717);
#545=VERTEX_POINT('',#1719);
#546=VERTEX_POINT('',#1726);
#547=VERTEX_POINT('',#1728);
#548=VERTEX_POINT('',#1732);
#549=VERTEX_POINT('',#1734);
#550=VERTEX_POINT('',#1747);
#551=VERTEX_POINT('',#1749);
#552=VERTEX_POINT('',#1753);
#553=VERTEX_POINT('',#1754);
#554=VERTEX_POINT('',#1756);
#555=VERTEX_POINT('',#1758);
#556=VERTEX_POINT('',#1762);
#557=VERTEX_POINT('',#1764);
#558=VERTEX_POINT('',#1768);
#559=VERTEX_POINT('',#1770);
#560=VERTEX_POINT('',#1774);
#561=VERTEX_POINT('',#1776);
#562=VERTEX_POINT('',#1780);
#563=VERTEX_POINT('',#1782);
#564=VERTEX_POINT('',#1786);
#565=VERTEX_POINT('',#1788);
#566=VERTEX_POINT('',#1792);
#567=VERTEX_POINT('',#1794);
#568=VERTEX_POINT('',#1798);
#569=VERTEX_POINT('',#1800);
#570=VERTEX_POINT('',#1804);
#571=VERTEX_POINT('',#1806);
#572=VERTEX_POINT('',#1810);
#573=VERTEX_POINT('',#1812);
#574=VERTEX_POINT('',#1816);
#575=VERTEX_POINT('',#1818);
#576=VERTEX_POINT('',#1822);
#577=VERTEX_POINT('',#1824);
#578=VERTEX_POINT('',#1828);
#579=VERTEX_POINT('',#1830);
#580=VERTEX_POINT('',#1834);
#581=VERTEX_POINT('',#1836);
#582=VERTEX_POINT('',#1840);
#583=VERTEX_POINT('',#1842);
#584=EDGE_CURVE('',#480,#480,#442,.T.);
#585=EDGE_CURVE('',#480,#481,#206,.T.);
#586=EDGE_CURVE('',#481,#481,#443,.T.);
#587=EDGE_CURVE('',#482,#482,#444,.T.);
#588=EDGE_CURVE('',#482,#483,#207,.T.);
#589=EDGE_CURVE('',#483,#483,#445,.T.);
#590=EDGE_CURVE('',#484,#484,#446,.T.);
#591=EDGE_CURVE('',#484,#485,#208,.T.);
#592=EDGE_CURVE('',#485,#485,#447,.T.);
#593=EDGE_CURVE('',#486,#486,#448,.T.);
#594=EDGE_CURVE('',#486,#487,#209,.T.);
#595=EDGE_CURVE('',#487,#487,#449,.T.);
#596=EDGE_CURVE('',#488,#489,#210,.T.);
#597=EDGE_CURVE('',#490,#489,#211,.T.);
#598=EDGE_CURVE('',#491,#490,#212,.T.);
#599=EDGE_CURVE('',#488,#491,#213,.T.);
#600=EDGE_CURVE('',#492,#493,#214,.T.);
#601=EDGE_CURVE('',#494,#493,#215,.T.);
#602=EDGE_CURVE('',#495,#494,#216,.T.);
#603=EDGE_CURVE('',#492,#495,#217,.T.);
#604=EDGE_CURVE('',#496,#491,#218,.T.);
#605=EDGE_CURVE('',#496,#497,#219,.T.);
#606=EDGE_CURVE('',#488,#497,#220,.T.);
#607=EDGE_CURVE('',#498,#493,#221,.T.);
#608=EDGE_CURVE('',#499,#498,#222,.T.);
#609=EDGE_CURVE('',#494,#499,#223,.T.);
#610=EDGE_CURVE('',#500,#489,#450,.T.);
#611=EDGE_CURVE('',#500,#501,#224,.T.);
#612=EDGE_CURVE('',#490,#501,#451,.T.);
#613=EDGE_CURVE('',#502,#495,#225,.T.);
#614=EDGE_CURVE('',#502,#503,#226,.T.);
#615=EDGE_CURVE('',#492,#503,#227,.T.);
#616=EDGE_CURVE('',#504,#505,#228,.T.);
#617=EDGE_CURVE('',#506,#505,#229,.T.);
#618=EDGE_CURVE('',#507,#506,#230,.T.);
#619=EDGE_CURVE('',#504,#507,#231,.T.);
#620=EDGE_CURVE('',#508,#509,#232,.T.);
#621=EDGE_CURVE('',#510,#509,#233,.T.);
#622=EDGE_CURVE('',#511,#510,#234,.T.);
#623=EDGE_CURVE('',#508,#511,#235,.T.);
#624=EDGE_CURVE('',#512,#507,#236,.T.);
#625=EDGE_CURVE('',#512,#513,#237,.T.);
#626=EDGE_CURVE('',#504,#513,#238,.T.);
#627=EDGE_CURVE('',#514,#509,#239,.T.);
#628=EDGE_CURVE('',#514,#515,#240,.T.);
#629=EDGE_CURVE('',#510,#515,#241,.T.);
#630=EDGE_CURVE('',#516,#511,#452,.T.);
#631=EDGE_CURVE('',#516,#517,#242,.T.);
#632=EDGE_CURVE('',#508,#517,#453,.T.);
#633=EDGE_CURVE('',#518,#505,#454,.T.);
#634=EDGE_CURVE('',#519,#518,#243,.T.);
#635=EDGE_CURVE('',#506,#519,#455,.T.);
#636=EDGE_CURVE('',#520,#521,#244,.T.);
#637=EDGE_CURVE('',#522,#521,#245,.T.);
#638=EDGE_CURVE('',#523,#522,#246,.T.);
#639=EDGE_CURVE('',#520,#523,#247,.T.);
#640=EDGE_CURVE('',#524,#513,#248,.T.);
#641=EDGE_CURVE('',#525,#512,#249,.T.);
#642=EDGE_CURVE('',#524,#525,#250,.T.);
#643=EDGE_CURVE('',#519,#525,#251,.T.);
#644=EDGE_CURVE('',#524,#518,#252,.T.);
#645=EDGE_CURVE('',#526,#523,#253,.T.);
#646=EDGE_CURVE('',#526,#527,#254,.T.);
#647=EDGE_CURVE('',#520,#527,#255,.T.);
#648=EDGE_CURVE('',#528,#529,#256,.T.);
#649=EDGE_CURVE('',#530,#529,#257,.T.);
#650=EDGE_CURVE('',#531,#530,#258,.T.);
#651=EDGE_CURVE('',#528,#531,#259,.T.);
#652=EDGE_CURVE('',#500,#497,#260,.T.);
#653=EDGE_CURVE('',#501,#496,#261,.T.);
#654=EDGE_CURVE('',#532,#531,#262,.T.);
#655=EDGE_CURVE('',#532,#533,#263,.T.);
#656=EDGE_CURVE('',#528,#533,#264,.T.);
#657=EDGE_CURVE('',#534,#535,#265,.T.);
#658=EDGE_CURVE('',#536,#535,#266,.T.);
#659=EDGE_CURVE('',#537,#536,#267,.T.);
#660=EDGE_CURVE('',#534,#537,#268,.T.);
#661=EDGE_CURVE('',#514,#538,#269,.T.);
#662=EDGE_CURVE('',#539,#538,#270,.T.);
#663=EDGE_CURVE('',#515,#539,#271,.T.);
#664=EDGE_CURVE('',#540,#537,#272,.T.);
#665=EDGE_CURVE('',#540,#541,#273,.T.);
#666=EDGE_CURVE('',#534,#541,#274,.T.);
#667=EDGE_CURVE('',#517,#538,#275,.T.);
#668=EDGE_CURVE('',#539,#516,#276,.T.);
#669=EDGE_CURVE('',#542,#533,#277,.T.);
#670=EDGE_CURVE('',#543,#532,#278,.T.);
#671=EDGE_CURVE('',#542,#543,#279,.T.);
#672=EDGE_CURVE('',#544,#527,#280,.T.);
#673=EDGE_CURVE('',#545,#526,#281,.T.);
#674=EDGE_CURVE('',#544,#545,#282,.T.);
#675=EDGE_CURVE('',#544,#521,#283,.T.);
#676=EDGE_CURVE('',#522,#545,#284,.T.);
#677=EDGE_CURVE('',#546,#543,#285,.T.);
#678=EDGE_CURVE('',#546,#547,#286,.T.);
#679=EDGE_CURVE('',#542,#547,#287,.T.);
#680=EDGE_CURVE('',#548,#535,#288,.T.);
#681=EDGE_CURVE('',#549,#548,#289,.T.);
#682=EDGE_CURVE('',#536,#549,#290,.T.);
#683=EDGE_CURVE('',#541,#548,#456,.T.);
#684=EDGE_CURVE('',#549,#540,#457,.T.);
#685=EDGE_CURVE('',#547,#529,#458,.T.);
#686=EDGE_CURVE('',#530,#546,#459,.T.);
#687=EDGE_CURVE('',#503,#498,#460,.T.);
#688=EDGE_CURVE('',#499,#502,#461,.T.);
#689=EDGE_CURVE('',#550,#550,#462,.T.);
#690=EDGE_CURVE('',#550,#551,#291,.T.);
#691=EDGE_CURVE('',#551,#551,#463,.T.);
#692=EDGE_CURVE('',#552,#553,#292,.T.);
#693=EDGE_CURVE('',#553,#554,#293,.T.);
#694=EDGE_CURVE('',#555,#554,#294,.T.);
#695=EDGE_CURVE('',#552,#555,#295,.T.);
#696=EDGE_CURVE('',#552,#556,#464,.T.);
#697=EDGE_CURVE('',#557,#555,#465,.T.);
#698=EDGE_CURVE('',#556,#557,#296,.T.);
#699=EDGE_CURVE('',#556,#558,#297,.T.);
#700=EDGE_CURVE('',#559,#557,#298,.T.);
#701=EDGE_CURVE('',#558,#559,#299,.T.);
#702=EDGE_CURVE('',#558,#560,#466,.T.);
#703=EDGE_CURVE('',#561,#559,#467,.T.);
#704=EDGE_CURVE('',#560,#561,#300,.T.);
#705=EDGE_CURVE('',#562,#560,#301,.T.);
#706=EDGE_CURVE('',#563,#561,#302,.T.);
#707=EDGE_CURVE('',#562,#563,#303,.T.);
#708=EDGE_CURVE('',#562,#564,#468,.T.);
#709=EDGE_CURVE('',#565,#563,#469,.T.);
#710=EDGE_CURVE('',#564,#565,#304,.T.);
#711=EDGE_CURVE('',#566,#564,#305,.T.);
#712=EDGE_CURVE('',#567,#565,#306,.T.);
#713=EDGE_CURVE('',#566,#567,#307,.T.);
#714=EDGE_CURVE('',#568,#566,#470,.T.);
#715=EDGE_CURVE('',#569,#567,#471,.T.);
#716=EDGE_CURVE('',#568,#569,#308,.T.);
#717=EDGE_CURVE('',#570,#568,#309,.T.);
#718=EDGE_CURVE('',#571,#569,#310,.T.);
#719=EDGE_CURVE('',#570,#571,#311,.T.);
#720=EDGE_CURVE('',#572,#570,#472,.T.);
#721=EDGE_CURVE('',#573,#571,#473,.T.);
#722=EDGE_CURVE('',#572,#573,#312,.T.);
#723=EDGE_CURVE('',#574,#572,#313,.T.);
#724=EDGE_CURVE('',#575,#573,#314,.T.);
#725=EDGE_CURVE('',#574,#575,#315,.T.);
#726=EDGE_CURVE('',#576,#574,#474,.T.);
#727=EDGE_CURVE('',#577,#575,#475,.T.);
#728=EDGE_CURVE('',#576,#577,#316,.T.);
#729=EDGE_CURVE('',#578,#576,#317,.T.);
#730=EDGE_CURVE('',#579,#577,#318,.T.);
#731=EDGE_CURVE('',#578,#579,#319,.T.);
#732=EDGE_CURVE('',#580,#578,#476,.T.);
#733=EDGE_CURVE('',#581,#579,#477,.T.);
#734=EDGE_CURVE('',#580,#581,#320,.T.);
#735=EDGE_CURVE('',#582,#580,#321,.T.);
#736=EDGE_CURVE('',#583,#581,#322,.T.);
#737=EDGE_CURVE('',#582,#583,#323,.T.);
#738=EDGE_CURVE('',#553,#582,#478,.T.);
#739=EDGE_CURVE('',#554,#583,#479,.T.);
#740=ORIENTED_EDGE('',*,*,#584,.F.);
#741=ORIENTED_EDGE('',*,*,#585,.T.);
#742=ORIENTED_EDGE('',*,*,#586,.F.);
#743=ORIENTED_EDGE('',*,*,#585,.F.);
#744=ORIENTED_EDGE('',*,*,#587,.F.);
#745=ORIENTED_EDGE('',*,*,#588,.T.);
#746=ORIENTED_EDGE('',*,*,#589,.F.);
#747=ORIENTED_EDGE('',*,*,#588,.F.);
#748=ORIENTED_EDGE('',*,*,#590,.F.);
#749=ORIENTED_EDGE('',*,*,#591,.T.);
#750=ORIENTED_EDGE('',*,*,#592,.F.);
#751=ORIENTED_EDGE('',*,*,#591,.F.);
#752=ORIENTED_EDGE('',*,*,#593,.F.);
#753=ORIENTED_EDGE('',*,*,#594,.T.);
#754=ORIENTED_EDGE('',*,*,#595,.F.);
#755=ORIENTED_EDGE('',*,*,#594,.F.);
#756=ORIENTED_EDGE('',*,*,#596,.T.);
#757=ORIENTED_EDGE('',*,*,#597,.F.);
#758=ORIENTED_EDGE('',*,*,#598,.F.);
#759=ORIENTED_EDGE('',*,*,#599,.F.);
#760=ORIENTED_EDGE('',*,*,#600,.T.);
#761=ORIENTED_EDGE('',*,*,#601,.F.);
#762=ORIENTED_EDGE('',*,*,#602,.F.);
#763=ORIENTED_EDGE('',*,*,#603,.F.);
#764=ORIENTED_EDGE('',*,*,#599,.T.);
#765=ORIENTED_EDGE('',*,*,#604,.F.);
#766=ORIENTED_EDGE('',*,*,#605,.T.);
#767=ORIENTED_EDGE('',*,*,#606,.F.);
#768=ORIENTED_EDGE('',*,*,#601,.T.);
#769=ORIENTED_EDGE('',*,*,#607,.F.);
#770=ORIENTED_EDGE('',*,*,#608,.F.);
#771=ORIENTED_EDGE('',*,*,#609,.F.);
#772=ORIENTED_EDGE('',*,*,#597,.T.);
#773=ORIENTED_EDGE('',*,*,#610,.F.);
#774=ORIENTED_EDGE('',*,*,#611,.T.);
#775=ORIENTED_EDGE('',*,*,#612,.F.);
#776=ORIENTED_EDGE('',*,*,#603,.T.);
#777=ORIENTED_EDGE('',*,*,#613,.F.);
#778=ORIENTED_EDGE('',*,*,#614,.T.);
#779=ORIENTED_EDGE('',*,*,#615,.F.);
#780=ORIENTED_EDGE('',*,*,#616,.T.);
#781=ORIENTED_EDGE('',*,*,#617,.F.);
#782=ORIENTED_EDGE('',*,*,#618,.F.);
#783=ORIENTED_EDGE('',*,*,#619,.F.);
#784=ORIENTED_EDGE('',*,*,#620,.T.);
#785=ORIENTED_EDGE('',*,*,#621,.F.);
#786=ORIENTED_EDGE('',*,*,#622,.F.);
#787=ORIENTED_EDGE('',*,*,#623,.F.);
#788=ORIENTED_EDGE('',*,*,#619,.T.);
#789=ORIENTED_EDGE('',*,*,#624,.F.);
#790=ORIENTED_EDGE('',*,*,#625,.T.);
#791=ORIENTED_EDGE('',*,*,#626,.F.);
#792=ORIENTED_EDGE('',*,*,#621,.T.);
#793=ORIENTED_EDGE('',*,*,#627,.F.);
#794=ORIENTED_EDGE('',*,*,#628,.T.);
#795=ORIENTED_EDGE('',*,*,#629,.F.);
#796=ORIENTED_EDGE('',*,*,#623,.T.);
#797=ORIENTED_EDGE('',*,*,#630,.F.);
#798=ORIENTED_EDGE('',*,*,#631,.T.);
#799=ORIENTED_EDGE('',*,*,#632,.F.);
#800=ORIENTED_EDGE('',*,*,#617,.T.);
#801=ORIENTED_EDGE('',*,*,#633,.F.);
#802=ORIENTED_EDGE('',*,*,#634,.F.);
#803=ORIENTED_EDGE('',*,*,#635,.F.);
#804=ORIENTED_EDGE('',*,*,#636,.T.);
#805=ORIENTED_EDGE('',*,*,#637,.F.);
#806=ORIENTED_EDGE('',*,*,#638,.F.);
#807=ORIENTED_EDGE('',*,*,#639,.F.);
#808=ORIENTED_EDGE('',*,*,#640,.T.);
#809=ORIENTED_EDGE('',*,*,#625,.F.);
#810=ORIENTED_EDGE('',*,*,#641,.F.);
#811=ORIENTED_EDGE('',*,*,#642,.F.);
#812=ORIENTED_EDGE('',*,*,#642,.T.);
#813=ORIENTED_EDGE('',*,*,#643,.F.);
#814=ORIENTED_EDGE('',*,*,#634,.T.);
#815=ORIENTED_EDGE('',*,*,#644,.F.);
#816=ORIENTED_EDGE('',*,*,#639,.T.);
#817=ORIENTED_EDGE('',*,*,#645,.F.);
#818=ORIENTED_EDGE('',*,*,#646,.T.);
#819=ORIENTED_EDGE('',*,*,#647,.F.);
#820=ORIENTED_EDGE('',*,*,#648,.T.);
#821=ORIENTED_EDGE('',*,*,#649,.F.);
#822=ORIENTED_EDGE('',*,*,#650,.F.);
#823=ORIENTED_EDGE('',*,*,#651,.F.);
#824=ORIENTED_EDGE('',*,*,#652,.T.);
#825=ORIENTED_EDGE('',*,*,#605,.F.);
#826=ORIENTED_EDGE('',*,*,#653,.F.);
#827=ORIENTED_EDGE('',*,*,#611,.F.);
#828=ORIENTED_EDGE('',*,*,#651,.T.);
#829=ORIENTED_EDGE('',*,*,#654,.F.);
#830=ORIENTED_EDGE('',*,*,#655,.T.);
#831=ORIENTED_EDGE('',*,*,#656,.F.);
#832=ORIENTED_EDGE('',*,*,#657,.T.);
#833=ORIENTED_EDGE('',*,*,#658,.F.);
#834=ORIENTED_EDGE('',*,*,#659,.F.);
#835=ORIENTED_EDGE('',*,*,#660,.F.);
#836=ORIENTED_EDGE('',*,*,#661,.T.);
#837=ORIENTED_EDGE('',*,*,#662,.F.);
#838=ORIENTED_EDGE('',*,*,#663,.F.);
#839=ORIENTED_EDGE('',*,*,#628,.F.);
#840=ORIENTED_EDGE('',*,*,#660,.T.);
#841=ORIENTED_EDGE('',*,*,#664,.F.);
#842=ORIENTED_EDGE('',*,*,#665,.T.);
#843=ORIENTED_EDGE('',*,*,#666,.F.);
#844=ORIENTED_EDGE('',*,*,#662,.T.);
#845=ORIENTED_EDGE('',*,*,#667,.F.);
#846=ORIENTED_EDGE('',*,*,#631,.F.);
#847=ORIENTED_EDGE('',*,*,#668,.F.);
#848=ORIENTED_EDGE('',*,*,#669,.T.);
#849=ORIENTED_EDGE('',*,*,#655,.F.);
#850=ORIENTED_EDGE('',*,*,#670,.F.);
#851=ORIENTED_EDGE('',*,*,#671,.F.);
#852=ORIENTED_EDGE('',*,*,#672,.T.);
#853=ORIENTED_EDGE('',*,*,#646,.F.);
#854=ORIENTED_EDGE('',*,*,#673,.F.);
#855=ORIENTED_EDGE('',*,*,#674,.F.);
#856=ORIENTED_EDGE('',*,*,#637,.T.);
#857=ORIENTED_EDGE('',*,*,#675,.F.);
#858=ORIENTED_EDGE('',*,*,#674,.T.);
#859=ORIENTED_EDGE('',*,*,#676,.F.);
#860=ORIENTED_EDGE('',*,*,#671,.T.);
#861=ORIENTED_EDGE('',*,*,#677,.F.);
#862=ORIENTED_EDGE('',*,*,#678,.T.);
#863=ORIENTED_EDGE('',*,*,#679,.F.);
#864=ORIENTED_EDGE('',*,*,#658,.T.);
#865=ORIENTED_EDGE('',*,*,#680,.F.);
#866=ORIENTED_EDGE('',*,*,#681,.F.);
#867=ORIENTED_EDGE('',*,*,#682,.F.);
#868=ORIENTED_EDGE('',*,*,#683,.F.);
#869=ORIENTED_EDGE('',*,*,#665,.F.);
#870=ORIENTED_EDGE('',*,*,#684,.F.);
#871=ORIENTED_EDGE('',*,*,#681,.T.);
#872=ORIENTED_EDGE('',*,*,#649,.T.);
#873=ORIENTED_EDGE('',*,*,#685,.F.);
#874=ORIENTED_EDGE('',*,*,#678,.F.);
#875=ORIENTED_EDGE('',*,*,#686,.F.);
#876=ORIENTED_EDGE('',*,*,#687,.F.);
#877=ORIENTED_EDGE('',*,*,#614,.F.);
#878=ORIENTED_EDGE('',*,*,#688,.F.);
#879=ORIENTED_EDGE('',*,*,#608,.T.);
#880=ORIENTED_EDGE('',*,*,#689,.F.);
#881=ORIENTED_EDGE('',*,*,#690,.T.);
#882=ORIENTED_EDGE('',*,*,#691,.F.);
#883=ORIENTED_EDGE('',*,*,#690,.F.);
#884=ORIENTED_EDGE('',*,*,#692,.T.);
#885=ORIENTED_EDGE('',*,*,#693,.T.);
#886=ORIENTED_EDGE('',*,*,#694,.F.);
#887=ORIENTED_EDGE('',*,*,#695,.F.);
#888=ORIENTED_EDGE('',*,*,#696,.F.);
#889=ORIENTED_EDGE('',*,*,#695,.T.);
#890=ORIENTED_EDGE('',*,*,#697,.F.);
#891=ORIENTED_EDGE('',*,*,#698,.F.);
#892=ORIENTED_EDGE('',*,*,#699,.F.);
#893=ORIENTED_EDGE('',*,*,#698,.T.);
#894=ORIENTED_EDGE('',*,*,#700,.F.);
#895=ORIENTED_EDGE('',*,*,#701,.F.);
#896=ORIENTED_EDGE('',*,*,#702,.F.);
#897=ORIENTED_EDGE('',*,*,#701,.T.);
#898=ORIENTED_EDGE('',*,*,#703,.F.);
#899=ORIENTED_EDGE('',*,*,#704,.F.);
#900=ORIENTED_EDGE('',*,*,#705,.T.);
#901=ORIENTED_EDGE('',*,*,#704,.T.);
#902=ORIENTED_EDGE('',*,*,#706,.F.);
#903=ORIENTED_EDGE('',*,*,#707,.F.);
#904=ORIENTED_EDGE('',*,*,#708,.F.);
#905=ORIENTED_EDGE('',*,*,#707,.T.);
#906=ORIENTED_EDGE('',*,*,#709,.F.);
#907=ORIENTED_EDGE('',*,*,#710,.F.);
#908=ORIENTED_EDGE('',*,*,#711,.T.);
#909=ORIENTED_EDGE('',*,*,#710,.T.);
#910=ORIENTED_EDGE('',*,*,#712,.F.);
#911=ORIENTED_EDGE('',*,*,#713,.F.);
#912=ORIENTED_EDGE('',*,*,#714,.T.);
#913=ORIENTED_EDGE('',*,*,#713,.T.);
#914=ORIENTED_EDGE('',*,*,#715,.F.);
#915=ORIENTED_EDGE('',*,*,#716,.F.);
#916=ORIENTED_EDGE('',*,*,#717,.T.);
#917=ORIENTED_EDGE('',*,*,#716,.T.);
#918=ORIENTED_EDGE('',*,*,#718,.F.);
#919=ORIENTED_EDGE('',*,*,#719,.F.);
#920=ORIENTED_EDGE('',*,*,#720,.T.);
#921=ORIENTED_EDGE('',*,*,#719,.T.);
#922=ORIENTED_EDGE('',*,*,#721,.F.);
#923=ORIENTED_EDGE('',*,*,#722,.F.);
#924=ORIENTED_EDGE('',*,*,#723,.T.);
#925=ORIENTED_EDGE('',*,*,#722,.T.);
#926=ORIENTED_EDGE('',*,*,#724,.F.);
#927=ORIENTED_EDGE('',*,*,#725,.F.);
#928=ORIENTED_EDGE('',*,*,#726,.T.);
#929=ORIENTED_EDGE('',*,*,#725,.T.);
#930=ORIENTED_EDGE('',*,*,#727,.F.);
#931=ORIENTED_EDGE('',*,*,#728,.F.);
#932=ORIENTED_EDGE('',*,*,#729,.T.);
#933=ORIENTED_EDGE('',*,*,#728,.T.);
#934=ORIENTED_EDGE('',*,*,#730,.F.);
#935=ORIENTED_EDGE('',*,*,#731,.F.);
#936=ORIENTED_EDGE('',*,*,#732,.T.);
#937=ORIENTED_EDGE('',*,*,#731,.T.);
#938=ORIENTED_EDGE('',*,*,#733,.F.);
#939=ORIENTED_EDGE('',*,*,#734,.F.);
#940=ORIENTED_EDGE('',*,*,#735,.T.);
#941=ORIENTED_EDGE('',*,*,#734,.T.);
#942=ORIENTED_EDGE('',*,*,#736,.F.);
#943=ORIENTED_EDGE('',*,*,#737,.F.);
#944=ORIENTED_EDGE('',*,*,#738,.T.);
#945=ORIENTED_EDGE('',*,*,#737,.T.);
#946=ORIENTED_EDGE('',*,*,#739,.F.);
#947=ORIENTED_EDGE('',*,*,#693,.F.);
#948=ORIENTED_EDGE('',*,*,#739,.T.);
#949=ORIENTED_EDGE('',*,*,#736,.T.);
#950=ORIENTED_EDGE('',*,*,#733,.T.);
#951=ORIENTED_EDGE('',*,*,#730,.T.);
#952=ORIENTED_EDGE('',*,*,#727,.T.);
#953=ORIENTED_EDGE('',*,*,#724,.T.);
#954=ORIENTED_EDGE('',*,*,#721,.T.);
#955=ORIENTED_EDGE('',*,*,#718,.T.);
#956=ORIENTED_EDGE('',*,*,#715,.T.);
#957=ORIENTED_EDGE('',*,*,#712,.T.);
#958=ORIENTED_EDGE('',*,*,#709,.T.);
#959=ORIENTED_EDGE('',*,*,#706,.T.);
#960=ORIENTED_EDGE('',*,*,#703,.T.);
#961=ORIENTED_EDGE('',*,*,#700,.T.);
#962=ORIENTED_EDGE('',*,*,#697,.T.);
#963=ORIENTED_EDGE('',*,*,#694,.T.);
#964=ORIENTED_EDGE('',*,*,#586,.T.);
#965=ORIENTED_EDGE('',*,*,#589,.T.);
#966=ORIENTED_EDGE('',*,*,#592,.T.);
#967=ORIENTED_EDGE('',*,*,#595,.T.);
#968=ORIENTED_EDGE('',*,*,#606,.T.);
#969=ORIENTED_EDGE('',*,*,#652,.F.);
#970=ORIENTED_EDGE('',*,*,#610,.T.);
#971=ORIENTED_EDGE('',*,*,#596,.F.);
#972=ORIENTED_EDGE('',*,*,#626,.T.);
#973=ORIENTED_EDGE('',*,*,#640,.F.);
#974=ORIENTED_EDGE('',*,*,#644,.T.);
#975=ORIENTED_EDGE('',*,*,#633,.T.);
#976=ORIENTED_EDGE('',*,*,#616,.F.);
#977=ORIENTED_EDGE('',*,*,#620,.F.);
#978=ORIENTED_EDGE('',*,*,#632,.T.);
#979=ORIENTED_EDGE('',*,*,#667,.T.);
#980=ORIENTED_EDGE('',*,*,#661,.F.);
#981=ORIENTED_EDGE('',*,*,#627,.T.);
#982=ORIENTED_EDGE('',*,*,#600,.F.);
#983=ORIENTED_EDGE('',*,*,#615,.T.);
#984=ORIENTED_EDGE('',*,*,#687,.T.);
#985=ORIENTED_EDGE('',*,*,#607,.T.);
#986=ORIENTED_EDGE('',*,*,#636,.F.);
#987=ORIENTED_EDGE('',*,*,#647,.T.);
#988=ORIENTED_EDGE('',*,*,#672,.F.);
#989=ORIENTED_EDGE('',*,*,#675,.T.);
#990=ORIENTED_EDGE('',*,*,#657,.F.);
#991=ORIENTED_EDGE('',*,*,#666,.T.);
#992=ORIENTED_EDGE('',*,*,#683,.T.);
#993=ORIENTED_EDGE('',*,*,#680,.T.);
#994=ORIENTED_EDGE('',*,*,#648,.F.);
#995=ORIENTED_EDGE('',*,*,#656,.T.);
#996=ORIENTED_EDGE('',*,*,#669,.F.);
#997=ORIENTED_EDGE('',*,*,#679,.T.);
#998=ORIENTED_EDGE('',*,*,#685,.T.);
#999=ORIENTED_EDGE('',*,*,#691,.T.);
#1000=ORIENTED_EDGE('',*,*,#738,.F.);
#1001=ORIENTED_EDGE('',*,*,#692,.F.);
#1002=ORIENTED_EDGE('',*,*,#696,.T.);
#1003=ORIENTED_EDGE('',*,*,#699,.T.);
#1004=ORIENTED_EDGE('',*,*,#702,.T.);
#1005=ORIENTED_EDGE('',*,*,#705,.F.);
#1006=ORIENTED_EDGE('',*,*,#708,.T.);
#1007=ORIENTED_EDGE('',*,*,#711,.F.);
#1008=ORIENTED_EDGE('',*,*,#714,.F.);
#1009=ORIENTED_EDGE('',*,*,#717,.F.);
#1010=ORIENTED_EDGE('',*,*,#720,.F.);
#1011=ORIENTED_EDGE('',*,*,#723,.F.);
#1012=ORIENTED_EDGE('',*,*,#726,.F.);
#1013=ORIENTED_EDGE('',*,*,#729,.F.);
#1014=ORIENTED_EDGE('',*,*,#732,.F.);
#1015=ORIENTED_EDGE('',*,*,#735,.F.);
#1016=ORIENTED_EDGE('',*,*,#584,.T.);
#1017=ORIENTED_EDGE('',*,*,#587,.T.);
#1018=ORIENTED_EDGE('',*,*,#590,.T.);
#1019=ORIENTED_EDGE('',*,*,#593,.T.);
#1020=ORIENTED_EDGE('',*,*,#609,.T.);
#1021=ORIENTED_EDGE('',*,*,#688,.T.);
#1022=ORIENTED_EDGE('',*,*,#613,.T.);
#1023=ORIENTED_EDGE('',*,*,#602,.T.);
#1024=ORIENTED_EDGE('',*,*,#629,.T.);
#1025=ORIENTED_EDGE('',*,*,#663,.T.);
#1026=ORIENTED_EDGE('',*,*,#668,.T.);
#1027=ORIENTED_EDGE('',*,*,#630,.T.);
#1028=ORIENTED_EDGE('',*,*,#622,.T.);
#1029=ORIENTED_EDGE('',*,*,#676,.T.);
#1030=ORIENTED_EDGE('',*,*,#673,.T.);
#1031=ORIENTED_EDGE('',*,*,#645,.T.);
#1032=ORIENTED_EDGE('',*,*,#638,.T.);
#1033=ORIENTED_EDGE('',*,*,#686,.T.);
#1034=ORIENTED_EDGE('',*,*,#677,.T.);
#1035=ORIENTED_EDGE('',*,*,#670,.T.);
#1036=ORIENTED_EDGE('',*,*,#654,.T.);
#1037=ORIENTED_EDGE('',*,*,#650,.T.);
#1038=ORIENTED_EDGE('',*,*,#682,.T.);
#1039=ORIENTED_EDGE('',*,*,#684,.T.);
#1040=ORIENTED_EDGE('',*,*,#664,.T.);
#1041=ORIENTED_EDGE('',*,*,#659,.T.);
#1042=ORIENTED_EDGE('',*,*,#598,.T.);
#1043=ORIENTED_EDGE('',*,*,#612,.T.);
#1044=ORIENTED_EDGE('',*,*,#653,.T.);
#1045=ORIENTED_EDGE('',*,*,#604,.T.);
#1046=ORIENTED_EDGE('',*,*,#618,.T.);
#1047=ORIENTED_EDGE('',*,*,#635,.T.);
#1048=ORIENTED_EDGE('',*,*,#643,.T.);
#1049=ORIENTED_EDGE('',*,*,#641,.T.);
#1050=ORIENTED_EDGE('',*,*,#624,.T.);
#1051=ORIENTED_EDGE('',*,*,#689,.T.);
#1052=CYLINDRICAL_SURFACE('',#1139,2.5);
#1053=CYLINDRICAL_SURFACE('',#1142,2.5);
#1054=CYLINDRICAL_SURFACE('',#1145,2.5);
#1055=CYLINDRICAL_SURFACE('',#1148,2.5);
#1056=CYLINDRICAL_SURFACE('',#1155,7.99999999999999);
#1057=CYLINDRICAL_SURFACE('',#1163,7.99999999999994);
#1058=CYLINDRICAL_SURFACE('',#1166,7.99999999999994);
#1059=CYLINDRICAL_SURFACE('',#1185,7.99999999999995);
#1060=CYLINDRICAL_SURFACE('',#1188,7.99999999999999);
#1061=CYLINDRICAL_SURFACE('',#1191,7.99999999999999);
#1062=CYLINDRICAL_SURFACE('',#1194,14.);
#1063=CYLINDRICAL_SURFACE('',#1198,9.99999999999993);
#1064=CYLINDRICAL_SURFACE('',#1202,9.99999999999995);
#1065=CYLINDRICAL_SURFACE('',#1206,9.99999999999982);
#1066=CYLINDRICAL_SURFACE('',#1210,10.);
#1067=CYLINDRICAL_SURFACE('',#1214,10.);
#1068=CYLINDRICAL_SURFACE('',#1218,10.);
#1069=CYLINDRICAL_SURFACE('',#1222,10.);
#1070=CYLINDRICAL_SURFACE('',#1226,10.);
#1071=ADVANCED_FACE('',(#74),#1052,.F.);
#1072=ADVANCED_FACE('',(#75),#1053,.F.);
#1073=ADVANCED_FACE('',(#76),#1054,.F.);
#1074=ADVANCED_FACE('',(#77),#1055,.F.);
#1075=ADVANCED_FACE('',(#78),#39,.T.);
#1076=ADVANCED_FACE('',(#79),#40,.T.);
#1077=ADVANCED_FACE('',(#80),#41,.F.);
#1078=ADVANCED_FACE('',(#81),#42,.F.);
#1079=ADVANCED_FACE('',(#82),#1056,.F.);
#1080=ADVANCED_FACE('',(#83),#43,.F.);
#1081=ADVANCED_FACE('',(#84),#44,.T.);
#1082=ADVANCED_FACE('',(#85),#45,.T.);
#1083=ADVANCED_FACE('',(#86),#46,.F.);
#1084=ADVANCED_FACE('',(#87),#47,.F.);
#1085=ADVANCED_FACE('',(#88),#1057,.F.);
#1086=ADVANCED_FACE('',(#89),#1058,.F.);
#1087=ADVANCED_FACE('',(#90),#48,.T.);
#1088=ADVANCED_FACE('',(#91),#49,.T.);
#1089=ADVANCED_FACE('',(#92),#50,.F.);
#1090=ADVANCED_FACE('',(#93),#51,.F.);
#1091=ADVANCED_FACE('',(#94),#52,.T.);
#1092=ADVANCED_FACE('',(#95),#53,.T.);
#1093=ADVANCED_FACE('',(#96),#54,.F.);
#1094=ADVANCED_FACE('',(#97),#55,.T.);
#1095=ADVANCED_FACE('',(#98),#56,.T.);
#1096=ADVANCED_FACE('',(#99),#57,.F.);
#1097=ADVANCED_FACE('',(#100),#58,.F.);
#1098=ADVANCED_FACE('',(#101),#59,.T.);
#1099=ADVANCED_FACE('',(#102),#60,.T.);
#1100=ADVANCED_FACE('',(#103),#61,.F.);
#1101=ADVANCED_FACE('',(#104),#62,.F.);
#1102=ADVANCED_FACE('',(#105),#63,.F.);
#1103=ADVANCED_FACE('',(#106),#1059,.F.);
#1104=ADVANCED_FACE('',(#107),#1060,.F.);
#1105=ADVANCED_FACE('',(#108),#1061,.F.);
#1106=ADVANCED_FACE('',(#109),#1062,.F.);
#1107=ADVANCED_FACE('',(#110),#64,.T.);
#1108=ADVANCED_FACE('',(#111),#1063,.F.);
#1109=ADVANCED_FACE('',(#112),#65,.T.);
#1110=ADVANCED_FACE('',(#113),#1064,.F.);
#1111=ADVANCED_FACE('',(#114),#66,.T.);
#1112=ADVANCED_FACE('',(#115),#1065,.F.);
#1113=ADVANCED_FACE('',(#116),#67,.T.);
#1114=ADVANCED_FACE('',(#117),#1066,.T.);
#1115=ADVANCED_FACE('',(#118),#68,.T.);
#1116=ADVANCED_FACE('',(#119),#1067,.T.);
#1117=ADVANCED_FACE('',(#120),#69,.T.);
#1118=ADVANCED_FACE('',(#121),#1068,.T.);
#1119=ADVANCED_FACE('',(#122),#70,.T.);
#1120=ADVANCED_FACE('',(#123),#1069,.T.);
#1121=ADVANCED_FACE('',(#124),#71,.T.);
#1122=ADVANCED_FACE('',(#125),#1070,.T.);
#1123=ADVANCED_FACE('',(#126,#15,#16,#17,#18,#19,#20,#21,#22,#23,#24,#25,
#26),#72,.T.);
#1124=ADVANCED_FACE('',(#127,#27,#28,#29,#30,#31,#32,#33,#34,#35,#36,#37,
#38),#73,.F.);
#1125=CLOSED_SHELL('',(#1071,#1072,#1073,#1074,#1075,#1076,#1077,#1078,
#1079,#1080,#1081,#1082,#1083,#1084,#1085,#1086,#1087,#1088,#1089,#1090,
#1091,#1092,#1093,#1094,#1095,#1096,#1097,#1098,#1099,#1100,#1101,#1102,
#1103,#1104,#1105,#1106,#1107,#1108,#1109,#1110,#1111,#1112,#1113,#1114,
#1115,#1116,#1117,#1118,#1119,#1120,#1121,#1122,#1123,#1124));
#1126=DERIVED_UNIT_ELEMENT(#1128,1.);
#1127=DERIVED_UNIT_ELEMENT(#1855,-3.);
#1128=(
MASS_UNIT()
NAMED_UNIT(*)
SI_UNIT(.KILO.,.GRAM.)
);
#1129=DERIVED_UNIT((#1126,#1127));
#1130=MEASURE_REPRESENTATION_ITEM('density measure',
POSITIVE_RATIO_MEASURE(7850.),#1129);
#1131=PROPERTY_DEFINITION_REPRESENTATION(#1136,#1133);
#1132=PROPERTY_DEFINITION_REPRESENTATION(#1137,#1134);
#1133=REPRESENTATION('material name',(#1135),#1852);
#1134=REPRESENTATION('density',(#1130),#1852);
#1135=DESCRIPTIVE_REPRESENTATION_ITEM('Steel','Steel');
#1136=PROPERTY_DEFINITION('material property','material name',#1862);
#1137=PROPERTY_DEFINITION('material property','density of part',#1862);
#1138=AXIS2_PLACEMENT_3D('',#1535,#1231,#1232);
#1139=AXIS2_PLACEMENT_3D('',#1536,#1233,#1234);
#1140=AXIS2_PLACEMENT_3D('',#1538,#1235,#1236);
#1141=AXIS2_PLACEMENT_3D('',#1541,#1238,#1239);
#1142=AXIS2_PLACEMENT_3D('',#1542,#1240,#1241);
#1143=AXIS2_PLACEMENT_3D('',#1544,#1242,#1243);
#1144=AXIS2_PLACEMENT_3D('',#1547,#1245,#1246);
#1145=AXIS2_PLACEMENT_3D('',#1548,#1247,#1248);
#1146=AXIS2_PLACEMENT_3D('',#1550,#1249,#1250);
#1147=AXIS2_PLACEMENT_3D('',#1553,#1252,#1253);
#1148=AXIS2_PLACEMENT_3D('',#1554,#1254,#1255);
#1149=AXIS2_PLACEMENT_3D('',#1556,#1256,#1257);
#1150=AXIS2_PLACEMENT_3D('',#1559,#1259,#1260);
#1151=AXIS2_PLACEMENT_3D('',#1560,#1261,#1262);
#1152=AXIS2_PLACEMENT_3D('',#1569,#1267,#1268);
#1153=AXIS2_PLACEMENT_3D('',#1578,#1273,#1274);
#1154=AXIS2_PLACEMENT_3D('',#1584,#1278,#1279);
#1155=AXIS2_PLACEMENT_3D('',#1590,#1283,#1284);
#1156=AXIS2_PLACEMENT_3D('',#1592,#1285,#1286);
#1157=AXIS2_PLACEMENT_3D('',#1595,#1288,#1289);
#1158=AXIS2_PLACEMENT_3D('',#1596,#1290,#1291);
#1159=AXIS2_PLACEMENT_3D('',#1602,#1295,#1296);
#1160=AXIS2_PLACEMENT_3D('',#1611,#1301,#1302);
#1161=AXIS2_PLACEMENT_3D('',#1620,#1307,#1308);
#1162=AXIS2_PLACEMENT_3D('',#1626,#1312,#1313);
#1163=AXIS2_PLACEMENT_3D('',#1632,#1317,#1318);
#1164=AXIS2_PLACEMENT_3D('',#1634,#1319,#1320);
#1165=AXIS2_PLACEMENT_3D('',#1637,#1322,#1323);
#1166=AXIS2_PLACEMENT_3D('',#1638,#1324,#1325);
#1167=AXIS2_PLACEMENT_3D('',#1640,#1326,#1327);
#1168=AXIS2_PLACEMENT_3D('',#1643,#1329,#1330);
#1169=AXIS2_PLACEMENT_3D('',#1644,#1331,#1332);
#1170=AXIS2_PLACEMENT_3D('',#1653,#1337,#1338);
#1171=AXIS2_PLACEMENT_3D('',#1659,#1342,#1343);
#1172=AXIS2_PLACEMENT_3D('',#1662,#1346,#1347);
#1173=AXIS2_PLACEMENT_3D('',#1668,#1351,#1352);
#1174=AXIS2_PLACEMENT_3D('',#1677,#1357,#1358);
#1175=AXIS2_PLACEMENT_3D('',#1680,#1361,#1362);
#1176=AXIS2_PLACEMENT_3D('',#1686,#1366,#1367);
#1177=AXIS2_PLACEMENT_3D('',#1695,#1372,#1373);
#1178=AXIS2_PLACEMENT_3D('',#1701,#1377,#1378);
#1179=AXIS2_PLACEMENT_3D('',#1707,#1382,#1383);
#1180=AXIS2_PLACEMENT_3D('',#1710,#1386,#1387);
#1181=AXIS2_PLACEMENT_3D('',#1716,#1391,#1392);
#1182=AXIS2_PLACEMENT_3D('',#1722,#1396,#1397);
#1183=AXIS2_PLACEMENT_3D('',#1725,#1400,#1401);
#1184=AXIS2_PLACEMENT_3D('',#1731,#1405,#1406);
#1185=AXIS2_PLACEMENT_3D('',#1737,#1410,#1411);
#1186=AXIS2_PLACEMENT_3D('',#1738,#1412,#1413);
#1187=AXIS2_PLACEMENT_3D('',#1739,#1414,#1415);
#1188=AXIS2_PLACEMENT_3D('',#1740,#1416,#1417);
#1189=AXIS2_PLACEMENT_3D('',#1741,#1418,#1419);
#1190=AXIS2_PLACEMENT_3D('',#1742,#1420,#1421);
#1191=AXIS2_PLACEMENT_3D('',#1743,#1422,#1423);
#1192=AXIS2_PLACEMENT_3D('',#1744,#1424,#1425);
#1193=AXIS2_PLACEMENT_3D('',#1745,#1426,#1427);
#1194=AXIS2_PLACEMENT_3D('',#1746,#1428,#1429);
#1195=AXIS2_PLACEMENT_3D('',#1748,#1430,#1431);
#1196=AXIS2_PLACEMENT_3D('',#1751,#1433,#1434);
#1197=AXIS2_PLACEMENT_3D('',#1752,#1435,#1436);
#1198=AXIS2_PLACEMENT_3D('',#1761,#1441,#1442);
#1199=AXIS2_PLACEMENT_3D('',#1763,#1443,#1444);
#1200=AXIS2_PLACEMENT_3D('',#1765,#1445,#1446);
#1201=AXIS2_PLACEMENT_3D('',#1767,#1448,#1449);
#1202=AXIS2_PLACEMENT_3D('',#1773,#1453,#1454);
#1203=AXIS2_PLACEMENT_3D('',#1775,#1455,#1456);
#1204=AXIS2_PLACEMENT_3D('',#1777,#1457,#1458);
#1205=AXIS2_PLACEMENT_3D('',#1779,#1460,#1461);
#1206=AXIS2_PLACEMENT_3D('',#1785,#1465,#1466);
#1207=AXIS2_PLACEMENT_3D('',#1787,#1467,#1468);
#1208=AXIS2_PLACEMENT_3D('',#1789,#1469,#1470);
#1209=AXIS2_PLACEMENT_3D('',#1791,#1472,#1473);
#1210=AXIS2_PLACEMENT_3D('',#1797,#1477,#1478);
#1211=AXIS2_PLACEMENT_3D('',#1799,#1479,#1480);
#1212=AXIS2_PLACEMENT_3D('',#1801,#1481,#1482);
#1213=AXIS2_PLACEMENT_3D('',#1803,#1484,#1485);
#1214=AXIS2_PLACEMENT_3D('',#1809,#1489,#1490);
#1215=AXIS2_PLACEMENT_3D('',#1811,#1491,#1492);
#1216=AXIS2_PLACEMENT_3D('',#1813,#1493,#1494);
#1217=AXIS2_PLACEMENT_3D('',#1815,#1496,#1497);
#1218=AXIS2_PLACEMENT_3D('',#1821,#1501,#1502);
#1219=AXIS2_PLACEMENT_3D('',#1823,#1503,#1504);
#1220=AXIS2_PLACEMENT_3D('',#1825,#1505,#1506);
#1221=AXIS2_PLACEMENT_3D('',#1827,#1508,#1509);
#1222=AXIS2_PLACEMENT_3D('',#1833,#1513,#1514);
#1223=AXIS2_PLACEMENT_3D('',#1835,#1515,#1516);
#1224=AXIS2_PLACEMENT_3D('',#1837,#1517,#1518);
#1225=AXIS2_PLACEMENT_3D('',#1839,#1520,#1521);
#1226=AXIS2_PLACEMENT_3D('',#1845,#1525,#1526);
#1227=AXIS2_PLACEMENT_3D('',#1846,#1527,#1528);
#1228=AXIS2_PLACEMENT_3D('',#1847,#1529,#1530);
#1229=AXIS2_PLACEMENT_3D('',#1848,#1531,#1532);
#1230=AXIS2_PLACEMENT_3D('',#1849,#1533,#1534);
#1231=DIRECTION('axis',(0.,0.,1.));
#1232=DIRECTION('refdir',(1.,0.,0.));
#1233=DIRECTION('center_axis',(0.,-1.,0.));
#1234=DIRECTION('ref_axis',(-1.,0.,-2.40634365214737E-23));
#1235=DIRECTION('center_axis',(0.,-1.,-3.80647894157197E-16));
#1236=DIRECTION('ref_axis',(-1.,0.,-2.40634365214737E-23));
#1237=DIRECTION('',(0.,-1.,0.));
#1238=DIRECTION('center_axis',(0.,1.,3.80647894157197E-16));
#1239=DIRECTION('ref_axis',(-1.,0.,-2.40634365214737E-23));
#1240=DIRECTION('center_axis',(0.,-1.,0.));
#1241=DIRECTION('ref_axis',(-1.,0.,-2.40634365214737E-23));
#1242=DIRECTION('center_axis',(0.,-1.,-3.80647894157197E-16));
#1243=DIRECTION('ref_axis',(-1.,0.,-2.40634365214737E-23));
#1244=DIRECTION('',(0.,-1.,0.));
#1245=DIRECTION('center_axis',(0.,1.,3.80647894157197E-16));
#1246=DIRECTION('ref_axis',(-1.,0.,-2.40634365214737E-23));
#1247=DIRECTION('center_axis',(0.,-1.,-4.44089209850063E-16));
#1248=DIRECTION('ref_axis',(-1.,1.06863125110984E-38,-2.40634365214737E-23));
#1249=DIRECTION('center_axis',(0.,-1.,-3.80647894157197E-16));
#1250=DIRECTION('ref_axis',(-1.,1.06863125110984E-38,-2.40634365214737E-23));
#1251=DIRECTION('',(0.,-1.,-4.44089209850063E-16));
#1252=DIRECTION('center_axis',(0.,1.,3.80647894157197E-16));
#1253=DIRECTION('ref_axis',(-1.,1.06863125110984E-38,-2.40634365214737E-23));
#1254=DIRECTION('center_axis',(0.,-1.,-4.44089209850063E-16));
#1255=DIRECTION('ref_axis',(-1.,1.06863125110984E-38,-2.40634365214737E-23));
#1256=DIRECTION('center_axis',(0.,-1.,-3.80647894157197E-16));
#1257=DIRECTION('ref_axis',(-1.,1.06863125110984E-38,-2.40634365214737E-23));
#1258=DIRECTION('',(0.,-1.,-4.44089209850063E-16));
#1259=DIRECTION('center_axis',(0.,1.,3.80647894157197E-16));
#1260=DIRECTION('ref_axis',(-1.,1.06863125110984E-38,-2.40634365214737E-23));
#1261=DIRECTION('center_axis',(-0.859138026231308,0.,0.511743931945825));
#1262=DIRECTION('ref_axis',(0.511743931945825,1.48029733367945E-16,0.859138026231308));
#1263=DIRECTION('',(0.511743931945825,1.48029733367945E-16,0.859138026231308));
#1264=DIRECTION('',(0.,-1.,-4.44089209850063E-16));
#1265=DIRECTION('',(0.511743931945825,1.48029733367945E-16,0.859138026231308));
#1266=DIRECTION('',(2.64520893552208E-16,1.,4.44089209850063E-16));
#1267=DIRECTION('center_axis',(0.856018369055872,0.,-0.516945405085416));
#1268=DIRECTION('ref_axis',(-0.516945405085416,-1.47168125132371E-16,-0.856018369055872));
#1269=DIRECTION('',(-0.516945405085416,-1.47168125132371E-16,-0.856018369055872));
#1270=DIRECTION('',(-2.68183353043232E-16,-1.,-4.44089209850063E-16));
#1271=DIRECTION('',(-0.516945405085416,-1.47168125132371E-16,-0.856018369055872));
#1272=DIRECTION('',(-5.63472064471554E-31,1.,-9.33062626908902E-31));
#1273=DIRECTION('center_axis',(-2.61228922907188E-16,4.44089209850063E-16,
-1.));
#1274=DIRECTION('ref_axis',(1.,9.94362393975739E-32,-2.61228922907188E-16));
#1275=DIRECTION('',(1.,9.94362393975738E-32,-2.61228922907188E-16));
#1276=DIRECTION('',(-2.68183353043232E-16,-1.,-4.44089209850063E-16));
#1277=DIRECTION('',(-1.,-9.94362393975738E-32,2.61228922907188E-16));
#1278=DIRECTION('center_axis',(-2.61228922907188E-16,4.44089209850063E-16,
-1.));
#1279=DIRECTION('ref_axis',(1.,9.94362393975739E-32,-2.61228922907188E-16));
#1280=DIRECTION('',(-1.,-9.94362393975738E-32,2.61228922907188E-16));
#1281=DIRECTION('',(0.,-1.,-4.44089209850063E-16));
#1282=DIRECTION('',(1.,9.94362393975738E-32,-2.61228922907188E-16));
#1283=DIRECTION('center_axis',(0.,-1.,-4.44089209850063E-16));
#1284=DIRECTION('ref_axis',(-2.22044607331375E-15,-4.44089209850063E-16,
1.));
#1285=DIRECTION('center_axis',(0.,1.,3.80647894157197E-16));
#1286=DIRECTION('ref_axis',(-2.22044607331375E-15,-4.44089209850063E-16,
1.));
#1287=DIRECTION('',(0.,1.,4.44089209850063E-16));
#1288=DIRECTION('center_axis',(0.,-1.,-3.80647894157197E-16));
#1289=DIRECTION('ref_axis',(-2.22044607331375E-15,-4.44089209850063E-16,
1.));
#1290=DIRECTION('center_axis',(1.,5.63472064471552E-31,-1.26882628979388E-15));
#1291=DIRECTION('ref_axis',(1.26882628979388E-15,-3.80647894157197E-16,
1.));
#1292=DIRECTION('',(1.26882628979388E-15,-3.80647894157197E-16,1.));
#1293=DIRECTION('',(0.,-1.,-4.44089209850063E-16));
#1294=DIRECTION('',(-1.26882628979388E-15,3.80647894157197E-16,-1.));
#1295=DIRECTION('center_axis',(0.856018369055872,0.,-0.516945405085416));
#1296=DIRECTION('ref_axis',(-0.516945405085416,-1.47168125132371E-16,-0.856018369055872));
#1297=DIRECTION('',(-0.516945405085416,-1.47168125132371E-16,-0.856018369055872));
#1298=DIRECTION('',(0.,-1.,-4.44089209850063E-16));
#1299=DIRECTION('',(-0.516945405085416,-1.47168125132371E-16,-0.856018369055872));
#1300=DIRECTION('',(2.68183353043232E-16,1.,4.44089209850063E-16));
#1301=DIRECTION('center_axis',(-0.859138026231308,0.,0.511743931945824));
#1302=DIRECTION('ref_axis',(0.511743931945824,1.48029733367946E-16,0.859138026231308));
#1303=DIRECTION('',(0.511743931945824,1.48029733367946E-16,0.859138026231308));
#1304=DIRECTION('',(-2.64520893552207E-16,-1.,-4.44089209850063E-16));
#1305=DIRECTION('',(0.511743931945824,1.48029733367946E-16,0.859138026231308));
#1306=DIRECTION('',(0.,1.,4.44089209850063E-16));
#1307=DIRECTION('center_axis',(2.61228922907188E-16,-4.44089209850063E-16,
1.));
#1308=DIRECTION('ref_axis',(-1.,-9.9436239397574E-32,2.61228922907188E-16));
#1309=DIRECTION('',(-1.,-9.94362393975739E-32,2.61228922907188E-16));
#1310=DIRECTION('',(-2.64520893552207E-16,-1.,-4.44089209850063E-16));
#1311=DIRECTION('',(1.,9.94362393975739E-32,-2.61228922907188E-16));
#1312=DIRECTION('center_axis',(2.61228922907188E-16,-4.44089209850063E-16,
1.));
#1313=DIRECTION('ref_axis',(-1.,-9.9436239397574E-32,2.61228922907188E-16));
#1314=DIRECTION('',(1.,9.94362393975739E-32,-2.61228922907188E-16));
#1315=DIRECTION('',(2.68183353043232E-16,1.,4.44089209850063E-16));
#1316=DIRECTION('',(-1.,-9.94362393975739E-32,2.61228922907188E-16));
#1317=DIRECTION('center_axis',(0.,-1.,-4.44089209850063E-16));
#1318=DIRECTION('ref_axis',(6.66133817181442E-15,4.44089209850063E-16,-1.));
#1319=DIRECTION('center_axis',(0.,-1.,-3.80647894157197E-16));
#1320=DIRECTION('ref_axis',(6.66133817181442E-15,4.44089209850063E-16,-1.));
#1321=DIRECTION('',(0.,-1.,-4.44089209850063E-16));
#1322=DIRECTION('center_axis',(0.,1.,3.80647894157197E-16));
#1323=DIRECTION('ref_axis',(6.66133817181442E-15,4.44089209850063E-16,-1.));
#1324=DIRECTION('center_axis',(0.,-1.,-4.44089209850063E-16));
#1325=DIRECTION('ref_axis',(6.66133817181442E-15,4.44089209850063E-16,-1.));
#1326=DIRECTION('center_axis',(0.,1.,3.80647894157197E-16));
#1327=DIRECTION('ref_axis',(6.66133817181442E-15,4.44089209850063E-16,-1.));
#1328=DIRECTION('',(0.,-1.,-4.44089209850063E-16));
#1329=DIRECTION('center_axis',(0.,-1.,-3.80647894157197E-16));
#1330=DIRECTION('ref_axis',(6.66133817181442E-15,4.44089209850063E-16,-1.));
#1331=DIRECTION('center_axis',(0.856018369055872,0.,-0.516945405085416));
#1332=DIRECTION('ref_axis',(-0.516945405085416,-1.47168125132371E-16,-0.856018369055872));
#1333=DIRECTION('',(-0.516945405085416,-1.47168125132371E-16,-0.856018369055872));
#1334=DIRECTION('',(-2.68183353043232E-16,-1.,-4.44089209850063E-16));
#1335=DIRECTION('',(-0.516945405085416,-1.47168125132371E-16,-0.856018369055872));
#1336=DIRECTION('',(2.68183353043232E-16,1.,4.44089209850063E-16));
#1337=DIRECTION('center_axis',(-0.859138026231308,0.,0.511743931945824));
#1338=DIRECTION('ref_axis',(0.511743931945824,1.48029733367946E-16,0.859138026231308));
#1339=DIRECTION('',(0.511743931945824,1.48029733367946E-16,0.859138026231308));
#1340=DIRECTION('',(0.511743931945824,1.48029733367946E-16,0.859138026231308));
#1341=DIRECTION('',(2.64520893552207E-16,1.,4.44089209850063E-16));
#1342=DIRECTION('center_axis',(-2.61228922907188E-16,4.44089209850063E-16,
-1.));
#1343=DIRECTION('ref_axis',(1.,9.94362393975739E-32,-2.61228922907188E-16));
#1344=DIRECTION('',(1.,9.94362393975738E-32,-2.61228922907188E-16));
#1345=DIRECTION('',(-1.,-9.94362393975738E-32,2.61228922907188E-16));
#1346=DIRECTION('center_axis',(2.61228922907188E-16,-4.44089209850063E-16,
1.));
#1347=DIRECTION('ref_axis',(-1.,-9.9436239397574E-32,2.61228922907188E-16));
#1348=DIRECTION('',(-1.,-9.94362393975739E-32,2.61228922907188E-16));
#1349=DIRECTION('',(-2.64520893552207E-16,-1.,-4.44089209850063E-16));
#1350=DIRECTION('',(1.,9.94362393975739E-32,-2.61228922907188E-16));
#1351=DIRECTION('center_axis',(-0.859138026231308,0.,0.511743931945824));
#1352=DIRECTION('ref_axis',(0.511743931945824,1.48029733367946E-16,0.859138026231308));
#1353=DIRECTION('',(0.511743931945824,1.48029733367946E-16,0.859138026231308));
#1354=DIRECTION('',(0.,-1.,-4.44089209850063E-16));
#1355=DIRECTION('',(0.511743931945824,1.48029733367946E-16,0.859138026231308));
#1356=DIRECTION('',(2.64520893552207E-16,1.,4.44089209850063E-16));
#1357=DIRECTION('center_axis',(0.856018369055872,0.,-0.516945405085416));
#1358=DIRECTION('ref_axis',(-0.516945405085416,-1.47168125132371E-16,-0.856018369055872));
#1359=DIRECTION('',(-0.516945405085416,-1.47168125132371E-16,-0.856018369055872));
#1360=DIRECTION('',(-0.516945405085416,-1.47168125132371E-16,-0.856018369055872));
#1361=DIRECTION('center_axis',(-2.61228922907188E-16,4.44089209850063E-16,
-1.));
#1362=DIRECTION('ref_axis',(1.,9.94362393975739E-32,-2.61228922907188E-16));
#1363=DIRECTION('',(1.,9.94362393975738E-32,-2.61228922907188E-16));
#1364=DIRECTION('',(-2.68183353043232E-16,-1.,-4.44089209850063E-16));
#1365=DIRECTION('',(-1.,-9.94362393975738E-32,2.61228922907188E-16));
#1366=DIRECTION('center_axis',(-0.859138026231308,0.,0.511743931945824));
#1367=DIRECTION('ref_axis',(0.511743931945824,1.48029733367946E-16,0.859138026231308));
#1368=DIRECTION('',(0.511743931945824,1.48029733367946E-16,0.859138026231308));
#1369=DIRECTION('',(-2.64520893552207E-16,-1.,-4.44089209850063E-16));
#1370=DIRECTION('',(0.511743931945824,1.48029733367946E-16,0.859138026231308));
#1371=DIRECTION('',(1.06863125110984E-38,1.,1.79406473928604E-38));
#1372=DIRECTION('center_axis',(0.856018369055872,0.,-0.516945405085416));
#1373=DIRECTION('ref_axis',(-0.516945405085416,-1.47168125132371E-16,-0.856018369055872));
#1374=DIRECTION('',(-0.516945405085416,-1.47168125132371E-16,-0.856018369055872));
#1375=DIRECTION('',(-1.06863125110984E-38,-1.,-1.76956400366114E-38));
#1376=DIRECTION('',(-0.516945405085416,-1.47168125132371E-16,-0.856018369055872));
#1377=DIRECTION('center_axis',(-1.,1.06863125110984E-38,-2.40634365214737E-23));
#1378=DIRECTION('ref_axis',(2.40634365214737E-23,3.80647894157197E-16,-1.));
#1379=DIRECTION('',(2.40634365214737E-23,3.80647894157197E-16,-1.));
#1380=DIRECTION('',(0.,-1.,-4.44089209850063E-16));
#1381=DIRECTION('',(-2.40634365214737E-23,-3.80647894157197E-16,1.));
#1382=DIRECTION('center_axis',(-1.,1.06863125110984E-38,-2.40634365214737E-23));
#1383=DIRECTION('ref_axis',(2.40634365214737E-23,3.80647894157197E-16,-1.));
#1384=DIRECTION('',(-2.40634365214737E-23,-3.80647894157197E-16,1.));
#1385=DIRECTION('',(2.40634365214737E-23,3.80647894157197E-16,-1.));
#1386=DIRECTION('center_axis',(0.856018369055872,0.,-0.516945405085416));
#1387=DIRECTION('ref_axis',(-0.516945405085416,-1.47168125132371E-16,-0.856018369055872));
#1388=DIRECTION('',(-0.516945405085416,-1.47168125132371E-16,-0.856018369055872));
#1389=DIRECTION('',(-0.516945405085416,-1.47168125132371E-16,-0.856018369055872));
#1390=DIRECTION('',(2.68183353043232E-16,1.,4.44089209850063E-16));
#1391=DIRECTION('center_axis',(-0.859138026231308,0.,0.511743931945824));
#1392=DIRECTION('ref_axis',(0.511743931945824,1.48029733367946E-16,0.859138026231308));
#1393=DIRECTION('',(0.511743931945824,1.48029733367946E-16,0.859138026231308));
#1394=DIRECTION('',(0.511743931945824,1.48029733367946E-16,0.859138026231308));
#1395=DIRECTION('',(2.64520893552207E-16,1.,4.44089209850063E-16));
#1396=DIRECTION('center_axis',(-2.61228922907188E-16,4.44089209850063E-16,
-1.));
#1397=DIRECTION('ref_axis',(1.,9.94362393975739E-32,-2.61228922907188E-16));
#1398=DIRECTION('',(-1.,-9.94362393975738E-32,2.61228922907188E-16));
#1399=DIRECTION('',(1.,9.94362393975738E-32,-2.61228922907188E-16));
#1400=DIRECTION('center_axis',(2.61228922907188E-16,-4.44089209850063E-16,
1.));
#1401=DIRECTION('ref_axis',(-1.,-9.9436239397574E-32,2.61228922907188E-16));
#1402=DIRECTION('',(-1.,-9.94362393975739E-32,2.61228922907188E-16));
#1403=DIRECTION('',(0.,-1.,-4.44089209850063E-16));
#1404=DIRECTION('',(1.,9.94362393975739E-32,-2.61228922907188E-16));
#1405=DIRECTION('center_axis',(2.61228922907188E-16,-4.44089209850063E-16,
1.));
#1406=DIRECTION('ref_axis',(-1.,-9.9436239397574E-32,2.61228922907188E-16));
#1407=DIRECTION('',(1.,9.94362393975739E-32,-2.61228922907188E-16));
#1408=DIRECTION('',(0.,-1.,-4.44089209850063E-16));
#1409=DIRECTION('',(-1.,-9.94362393975739E-32,2.61228922907188E-16));
#1410=DIRECTION('center_axis',(0.,-1.,-4.44089209850063E-16));
#1411=DIRECTION('ref_axis',(-1.,1.47911420797572E-30,-3.33066909793893E-15));
#1412=DIRECTION('center_axis',(0.,1.,3.80647894157197E-16));
#1413=DIRECTION('ref_axis',(-1.,1.47911420797572E-30,-3.33066909793893E-15));
#1414=DIRECTION('center_axis',(0.,-1.,-3.80647894157197E-16));
#1415=DIRECTION('ref_axis',(-1.,1.47911420797572E-30,-3.33066909793893E-15));
#1416=DIRECTION('center_axis',(0.,-1.,-4.44089209850063E-16));
#1417=DIRECTION('ref_axis',(-2.22044607331375E-15,-4.44089209850063E-16,
1.));
#1418=DIRECTION('center_axis',(0.,1.,3.80647894157197E-16));
#1419=DIRECTION('ref_axis',(-2.22044607331375E-15,-4.44089209850063E-16,
1.));
#1420=DIRECTION('center_axis',(0.,-1.,-3.80647894157197E-16));
#1421=DIRECTION('ref_axis',(-2.22044607331375E-15,-4.44089209850063E-16,
1.));
#1422=DIRECTION('center_axis',(0.,-1.,-4.44089209850063E-16));
#1423=DIRECTION('ref_axis',(1.,4.9303805507682E-31,-1.11022300056172E-15));
#1424=DIRECTION('center_axis',(0.,1.,3.80647894157197E-16));
#1425=DIRECTION('ref_axis',(1.,4.9303805507682E-31,-1.11022300056172E-15));
#1426=DIRECTION('center_axis',(0.,-1.,-3.80647894157197E-16));
#1427=DIRECTION('ref_axis',(1.,4.9303805507682E-31,-1.11022300056172E-15));
#1428=DIRECTION('center_axis',(0.,-1.,-4.44089209850062E-16));
#1429=DIRECTION('ref_axis',(-1.,1.06863125110984E-38,-2.40634365214737E-23));
#1430=DIRECTION('center_axis',(0.,-1.,-3.80647894157197E-16));
#1431=DIRECTION('ref_axis',(-1.,1.06863125110984E-38,-2.40634365214737E-23));
#1432=DIRECTION('',(0.,-1.,-4.44089209850062E-16));
#1433=DIRECTION('center_axis',(0.,1.,3.80647894157197E-16));
#1434=DIRECTION('ref_axis',(-1.,1.06863125110984E-38,-2.40634365214737E-23));
#1435=DIRECTION('center_axis',(1.,0.,8.34487628998497E-16));
#1436=DIRECTION('ref_axis',(-8.34487628998497E-16,-3.80647894157197E-16,
1.));
#1437=DIRECTION('',(-8.34487628998497E-16,-3.80647894157197E-16,1.));
#1438=DIRECTION('',(0.,-1.,0.));
#1439=DIRECTION('',(-8.34487628998497E-16,-3.80647894157197E-16,1.));
#1440=DIRECTION('',(0.,-1.,0.));
#1441=DIRECTION('center_axis',(0.,-1.,0.));
#1442=DIRECTION('ref_axis',(-1.,0.,3.55271367880053E-15));
#1443=DIRECTION('center_axis',(0.,-1.,-3.80647894157197E-16));
#1444=DIRECTION('ref_axis',(-1.,-1.35233298037889E-30,3.55271367880053E-15));
#1445=DIRECTION('center_axis',(0.,1.,3.80647894157197E-16));
#1446=DIRECTION('ref_axis',(-1.,-1.35233298037889E-30,3.55271367880053E-15));
#1447=DIRECTION('',(0.,-1.,0.));
#1448=DIRECTION('center_axis',(0.707106781186548,0.,0.707106781186548));
#1449=DIRECTION('ref_axis',(-0.707106781186548,-2.69158707202933E-16,0.707106781186548));
#1450=DIRECTION('',(0.707106781186548,2.69158707202933E-16,-0.707106781186548));
#1451=DIRECTION('',(-0.707106781186548,-2.69158707202933E-16,0.707106781186548));
#1452=DIRECTION('',(0.,-1.,0.));
#1453=DIRECTION('center_axis',(0.,-1.,0.));
#1454=DIRECTION('ref_axis',(-0.707106781186548,0.,-0.707106781186547));
#1455=DIRECTION('center_axis',(0.,-1.,-3.80647894157197E-16));
#1456=DIRECTION('ref_axis',(-0.707106781186548,2.69158707202933E-16,-0.707106781186547));
#1457=DIRECTION('center_axis',(0.,1.,3.80647894157197E-16));
#1458=DIRECTION('ref_axis',(-0.707106781186548,2.69158707202933E-16,-0.707106781186547));
#1459=DIRECTION('',(0.,-1.,0.));
#1460=DIRECTION('center_axis',(0.0871557427476581,0.,0.996194698091746));
#1461=DIRECTION('ref_axis',(-0.996194698091746,-3.31756499406024E-17,0.0871557427476581));
#1462=DIRECTION('',(-0.996194698091746,-3.31756499406024E-17,0.0871557427476581));
#1463=DIRECTION('',(-0.996194698091746,-3.31756499406024E-17,0.0871557427476581));
#1464=DIRECTION('',(0.,-1.,0.));
#1465=DIRECTION('center_axis',(0.,-1.,0.));
#1466=DIRECTION('ref_axis',(-0.0871557427476562,0.,-0.996194698091746));
#1467=DIRECTION('center_axis',(0.,-1.,-3.80647894157197E-16));
#1468=DIRECTION('ref_axis',(-0.0871557427476562,3.79199413999187E-16,-0.996194698091746));
#1469=DIRECTION('center_axis',(0.,1.,3.80647894157197E-16));
#1470=DIRECTION('ref_axis',(-0.0871557427476562,3.79199413999187E-16,-0.996194698091746));
#1471=DIRECTION('',(0.,-1.,0.));
#1472=DIRECTION('center_axis',(8.92723964020024E-15,0.,1.));
#1473=DIRECTION('ref_axis',(-1.,-3.39813496967887E-30,8.92723964020024E-15));
#1474=DIRECTION('',(-1.,-3.39813496967887E-30,8.92723964020024E-15));
#1475=DIRECTION('',(-1.,-3.39813496967887E-30,8.92723964020024E-15));
#1476=DIRECTION('',(0.,-1.,0.));
#1477=DIRECTION('center_axis',(0.,-1.,0.));
#1478=DIRECTION('ref_axis',(1.,0.,-1.15463194561016E-14));
#1479=DIRECTION('center_axis',(0.,-1.,-3.80647894157197E-16));
#1480=DIRECTION('ref_axis',(1.,4.39508218623134E-30,-1.15463194561016E-14));
#1481=DIRECTION('center_axis',(0.,-1.,-3.80647894157197E-16));
#1482=DIRECTION('ref_axis',(1.,4.39508218623134E-30,-1.15463194561016E-14));
#1483=DIRECTION('',(0.,-1.,0.));
#1484=DIRECTION('center_axis',(1.,0.,-3.06079947711975E-13));
#1485=DIRECTION('ref_axis',(3.06079947711975E-13,-3.80647894157197E-16,
1.));
#1486=DIRECTION('',(3.06079947711975E-13,-3.80647894157197E-16,1.));
#1487=DIRECTION('',(3.06079947711975E-13,-3.80647894157197E-16,1.));
#1488=DIRECTION('',(0.,-1.,0.));
#1489=DIRECTION('center_axis',(0.,-1.,0.));
#1490=DIRECTION('ref_axis',(-7.10542735760098E-15,0.,-1.));
#1491=DIRECTION('center_axis',(0.,-1.,-3.80647894157197E-16));
#1492=DIRECTION('ref_axis',(-7.10542735760098E-15,3.80647894157197E-16,
-1.));
#1493=DIRECTION('center_axis',(0.,-1.,-3.80647894157197E-16));
#1494=DIRECTION('ref_axis',(-7.10542735760098E-15,3.80647894157197E-16,
-1.));
#1495=DIRECTION('',(0.,-1.,0.));
#1496=DIRECTION('center_axis',(-1.10533468616564E-14,0.,-1.));
#1497=DIRECTION('ref_axis',(1.,4.20743320627856E-30,-1.10533468616564E-14));
#1498=DIRECTION('',(1.,4.20743320627856E-30,-1.10533468616564E-14));
#1499=DIRECTION('',(1.,4.20743320627856E-30,-1.10533468616564E-14));
#1500=DIRECTION('',(0.,-1.,0.));
#1501=DIRECTION('center_axis',(0.,-1.,0.));
#1502=DIRECTION('ref_axis',(-1.,0.,7.10542735760098E-15));
#1503=DIRECTION('center_axis',(0.,-1.,-3.80647894157197E-16));
#1504=DIRECTION('ref_axis',(-1.,-2.70466596075775E-30,7.10542735760098E-15));
#1505=DIRECTION('center_axis',(0.,-1.,-3.80647894157197E-16));
#1506=DIRECTION('ref_axis',(-1.,-2.70466596075775E-30,7.10542735760098E-15));
#1507=DIRECTION('',(0.,-1.,0.));
#1508=DIRECTION('center_axis',(-1.,0.,0.));
#1509=DIRECTION('ref_axis',(0.,3.80647894157197E-16,-1.));
#1510=DIRECTION('',(0.,3.80647894157197E-16,-1.));
#1511=DIRECTION('',(0.,3.80647894157197E-16,-1.));
#1512=DIRECTION('',(0.,-1.,0.));
#1513=DIRECTION('center_axis',(0.,-1.,0.));
#1514=DIRECTION('ref_axis',(-3.5527136788005E-15,0.,1.));
#1515=DIRECTION('center_axis',(0.,-1.,-3.80647894157197E-16));
#1516=DIRECTION('ref_axis',(-3.5527136788005E-15,-3.80647894157197E-16,
1.));
#1517=DIRECTION('center_axis',(0.,-1.,-3.80647894157197E-16));
#1518=DIRECTION('ref_axis',(-3.5527136788005E-15,-3.80647894157197E-16,
1.));
#1519=DIRECTION('',(0.,-1.,0.));
#1520=DIRECTION('center_axis',(-5.07530525542929E-16,0.,1.));
#1521=DIRECTION('ref_axis',(-1.,1.93190425768411E-31,-5.07530525542929E-16));
#1522=DIRECTION('',(-1.,1.93190425768411E-31,-5.07530525542929E-16));
#1523=DIRECTION('',(-1.,1.93190425768411E-31,-5.07530525542929E-16));
#1524=DIRECTION('',(0.,-1.,0.));
#1525=DIRECTION('center_axis',(0.,-1.,0.));
#1526=DIRECTION('ref_axis',(1.,0.,0.));
#1527=DIRECTION('center_axis',(0.,-1.,-3.80647894157197E-16));
#1528=DIRECTION('ref_axis',(1.,0.,0.));
#1529=DIRECTION('center_axis',(0.,-1.,-3.80647894157197E-16));
#1530=DIRECTION('ref_axis',(1.,0.,0.));
#1531=DIRECTION('center_axis',(0.,-1.,-3.80647894157197E-16));
#1532=DIRECTION('ref_axis',(1.,0.,0.));
#1533=DIRECTION('center_axis',(0.,-1.,-3.80647894157197E-16));
#1534=DIRECTION('ref_axis',(1.,0.,0.));
#1535=CARTESIAN_POINT('',(0.,0.,0.));
#1536=CARTESIAN_POINT('Origin',(83.0977795891222,-71.0000000000012,-102.253430816955));
#1537=CARTESIAN_POINT('',(85.5977795891222,-74.0000000000012,-102.253430816955));
#1538=CARTESIAN_POINT('Origin',(83.0977795891222,-74.0000000000012,-102.253430816955));
#1539=CARTESIAN_POINT('',(85.5977795891222,-77.0000000000012,-102.253430816955));
#1540=CARTESIAN_POINT('',(85.5977795891222,-71.0000000000012,-102.253430816955));
#1541=CARTESIAN_POINT('Origin',(83.0977795891222,-77.0000000000012,-102.253430816955));
#1542=CARTESIAN_POINT('Origin',(-181.425431276688,-71.0000000000012,-102.253430816952));
#1543=CARTESIAN_POINT('',(-178.925431276688,-74.0000000000012,-102.253430816952));
#1544=CARTESIAN_POINT('Origin',(-181.425431276688,-74.0000000000012,-102.253430816952));
#1545=CARTESIAN_POINT('',(-178.925431276688,-77.0000000000012,-102.253430816952));
#1546=CARTESIAN_POINT('',(-178.925431276688,-71.0000000000012,-102.253430816952));
#1547=CARTESIAN_POINT('Origin',(-181.425431276688,-77.0000000000012,-102.253430816952));
#1548=CARTESIAN_POINT('Origin',(81.8653796002754,-71.0000000000012,-45.4905783526058));
#1549=CARTESIAN_POINT('',(84.3653796002754,-74.0000000000012,-45.4905783526058));
#1550=CARTESIAN_POINT('Origin',(81.8653796002754,-74.0000000000012,-45.4905783526058));
#1551=CARTESIAN_POINT('',(84.3653796002754,-77.0000000000012,-45.4905783526058));
#1552=CARTESIAN_POINT('',(84.3653796002754,-71.0000000000012,-45.4905783526058));
#1553=CARTESIAN_POINT('Origin',(81.8653796002754,-77.0000000000012,-45.4905783526058));
#1554=CARTESIAN_POINT('Origin',(-181.425431276688,-71.0000000000012,63.4619889800383));
#1555=CARTESIAN_POINT('',(-178.925431276688,-74.0000000000012,63.4619889800383));
#1556=CARTESIAN_POINT('Origin',(-181.425431276688,-74.0000000000012,63.4619889800383));
#1557=CARTESIAN_POINT('',(-178.925431276688,-77.0000000000012,63.4619889800383));
#1558=CARTESIAN_POINT('',(-178.925431276688,-71.0000000000012,63.4619889800383));
#1559=CARTESIAN_POINT('Origin',(-181.425431276688,-77.0000000000012,63.4619889800383));
#1560=CARTESIAN_POINT('Origin',(-132.602740203435,-77.0000000000012,-85.358787177575));
#1561=CARTESIAN_POINT('',(-132.602740203435,-77.0000000000012,-85.358787177575));
#1562=CARTESIAN_POINT('',(-119.107886651143,-77.0000000000012,-62.7030386255341));
#1563=CARTESIAN_POINT('',(-137.537113781144,-77.0000000000012,-93.6428286905271));
#1564=CARTESIAN_POINT('',(-119.107886651143,-74.0000000000012,-62.7030386255341));
#1565=CARTESIAN_POINT('',(-119.107886651143,-71.0000000000012,-62.7030386255341));
#1566=CARTESIAN_POINT('',(-132.602740203435,-74.0000000000012,-85.358787177575));
#1567=CARTESIAN_POINT('',(-137.537113781144,-74.0000000000012,-93.6428286905271));
#1568=CARTESIAN_POINT('',(-132.602740203435,-74.0000000000012,-85.358787177575));
#1569=CARTESIAN_POINT('Origin',(-119.080965970734,-77.0000000000012,-70.1067231087604));
#1570=CARTESIAN_POINT('',(-119.080965970734,-77.0000000000012,-70.1067231087604));
#1571=CARTESIAN_POINT('',(-128.291614624382,-77.0000000000012,-85.358787177575));
#1572=CARTESIAN_POINT('',(-103.506308931398,-77.0000000000012,-44.3163932474973));
#1573=CARTESIAN_POINT('',(-128.291614624382,-74.0000000000012,-85.358787177575));
#1574=CARTESIAN_POINT('',(-128.291614624382,-74.0000000000012,-85.358787177575));
#1575=CARTESIAN_POINT('',(-119.080965970734,-74.0000000000012,-70.1067231087604));
#1576=CARTESIAN_POINT('',(-103.506308931398,-74.0000000000012,-44.3163932474973));
#1577=CARTESIAN_POINT('',(-119.080965970734,-74.0000000000012,-70.1067231087604));
#1578=CARTESIAN_POINT('Origin',(-161.080965970734,-71.0000000000012,-85.358787177575));
#1579=CARTESIAN_POINT('',(-137.458281291048,-74.0000000000012,-85.358787177575));
#1580=CARTESIAN_POINT('',(-105.122395907258,-74.0000000000012,-85.358787177575));
#1581=CARTESIAN_POINT('',(-137.458281291048,-77.0000000000012,-85.358787177575));
#1582=CARTESIAN_POINT('',(-137.458281291048,-74.0000000000012,-85.358787177575));
#1583=CARTESIAN_POINT('',(-105.122395907258,-77.0000000000012,-85.358787177575));
#1584=CARTESIAN_POINT('Origin',(-161.080965970734,-71.0000000000012,-85.358787177575));
#1585=CARTESIAN_POINT('',(-127.080965970734,-77.0000000000012,-85.358787177575));
#1586=CARTESIAN_POINT('',(-105.122395907258,-77.0000000000012,-85.358787177575));
#1587=CARTESIAN_POINT('',(-127.080965970734,-74.0000000000012,-85.358787177575));
#1588=CARTESIAN_POINT('',(-127.080965970734,-71.0000000000012,-85.358787177575));
#1589=CARTESIAN_POINT('',(-105.122395907258,-74.0000000000012,-85.358787177575));
#1590=CARTESIAN_POINT('Origin',(-127.080965970734,-71.0000000000012,-63.3587871775749));
#1591=CARTESIAN_POINT('',(-121.019594981865,-77.0000000000012,-58.1376970868661));
#1592=CARTESIAN_POINT('Origin',(-127.080965970734,-77.0000000000012,-63.3587871775749));
#1593=CARTESIAN_POINT('',(-121.019594981865,-74.0000000000012,-58.1376970868661));
#1594=CARTESIAN_POINT('',(-121.019594981865,-71.0000000000012,-58.1376970868661));
#1595=CARTESIAN_POINT('Origin',(-127.080965970734,-74.0000000000012,-63.3587871775749));
#1596=CARTESIAN_POINT('Origin',(-119.080965970734,-71.0000000000012,-77.358787177575));
#1597=CARTESIAN_POINT('',(-119.080965970734,-74.0000000000012,-77.358787177575));
#1598=CARTESIAN_POINT('',(-119.080965970734,-74.0000000000012,-48.3772540480167));
#1599=CARTESIAN_POINT('',(-119.080965970734,-77.0000000000012,-77.358787177575));
#1600=CARTESIAN_POINT('',(-119.080965970734,-71.0000000000012,-77.358787177575));
#1601=CARTESIAN_POINT('',(-119.080965970734,-77.0000000000012,-48.3772540480167));
#1602=CARTESIAN_POINT('Origin',(-146.841424558561,-77.0000000000012,-55.358787177575));
#1603=CARTESIAN_POINT('',(-146.841424558561,-77.0000000000012,-55.358787177575));
#1604=CARTESIAN_POINT('',(-164.495985068646,-77.0000000000012,-84.5932632858288));
#1605=CARTESIAN_POINT('',(-140.172975598064,-77.0000000000012,-44.3163932474973));
#1606=CARTESIAN_POINT('',(-164.495985068646,-74.0000000000012,-84.5932632858288));
#1607=CARTESIAN_POINT('',(-164.495985068646,-71.0000000000012,-84.5932632858288));
#1608=CARTESIAN_POINT('',(-146.841424558561,-74.0000000000012,-55.358787177575));
#1609=CARTESIAN_POINT('',(-140.172975598064,-74.0000000000012,-44.3163932474973));
#1610=CARTESIAN_POINT('',(-146.841424558561,-74.0000000000012,-55.3587871775749));
#1611=CARTESIAN_POINT('Origin',(-167.414992309578,-77.0000000000012,-82.2455151563798));
#1612=CARTESIAN_POINT('',(-167.414992309578,-77.0000000000012,-82.2455151563798));
#1613=CARTESIAN_POINT('',(-151.3999639056,-77.0000000000012,-55.3587871775749));
#1614=CARTESIAN_POINT('',(-174.203780447811,-77.0000000000012,-93.6428286905271));
#1615=CARTESIAN_POINT('',(-151.3999639056,-74.0000000000012,-55.3587871775749));
#1616=CARTESIAN_POINT('',(-151.3999639056,-74.0000000000012,-55.3587871775749));
#1617=CARTESIAN_POINT('',(-167.414992309578,-74.0000000000012,-82.2455151563798));
#1618=CARTESIAN_POINT('',(-174.203780447811,-74.0000000000012,-93.6428286905271));
#1619=CARTESIAN_POINT('',(-167.414992309578,-71.0000000000012,-82.2455151563798));
#1620=CARTESIAN_POINT('Origin',(-127.080965970734,-71.0000000000012,-55.3587871775749));
#1621=CARTESIAN_POINT('',(-142.233297238934,-74.0000000000012,-55.358787177575));
#1622=CARTESIAN_POINT('',(-88.1223959072584,-74.0000000000012,-55.358787177575));
#1623=CARTESIAN_POINT('',(-142.233297238934,-77.0000000000012,-55.358787177575));
#1624=CARTESIAN_POINT('',(-142.233297238934,-74.0000000000012,-55.3587871775749));
#1625=CARTESIAN_POINT('',(-88.1223959072584,-77.0000000000012,-55.358787177575));
#1626=CARTESIAN_POINT('Origin',(-127.080965970734,-71.0000000000012,-55.3587871775749));
#1627=CARTESIAN_POINT('',(-156.008091225228,-77.0000000000012,-55.3587871775749));
#1628=CARTESIAN_POINT('',(-88.1223959072584,-77.0000000000012,-55.358787177575));
#1629=CARTESIAN_POINT('',(-156.008091225228,-74.0000000000012,-55.3587871775749));
#1630=CARTESIAN_POINT('',(-156.008091225228,-74.0000000000012,-55.3587871775749));
#1631=CARTESIAN_POINT('',(-88.1223959072584,-74.0000000000012,-55.358787177575));
#1632=CARTESIAN_POINT('Origin',(-161.080965970734,-71.0000000000012,-77.358787177575));
#1633=CARTESIAN_POINT('',(-169.080965970734,-74.0000000000012,-77.358787177575));
#1634=CARTESIAN_POINT('Origin',(-161.080965970734,-74.0000000000012,-77.358787177575));
#1635=CARTESIAN_POINT('',(-169.080965970734,-77.0000000000012,-77.358787177575));
#1636=CARTESIAN_POINT('',(-169.080965970734,-71.0000000000012,-77.358787177575));
#1637=CARTESIAN_POINT('Origin',(-161.080965970734,-77.0000000000012,-77.358787177575));
#1638=CARTESIAN_POINT('Origin',(-161.080965970734,-71.0000000000012,-77.358787177575));
#1639=CARTESIAN_POINT('',(-161.080965970734,-77.0000000000012,-85.358787177575));
#1640=CARTESIAN_POINT('Origin',(-161.080965970734,-77.0000000000012,-77.358787177575));
#1641=CARTESIAN_POINT('',(-161.080965970734,-74.0000000000012,-85.358787177575));
#1642=CARTESIAN_POINT('',(-161.080965970734,-71.0000000000012,-85.358787177575));
#1643=CARTESIAN_POINT('Origin',(-161.080965970734,-74.0000000000012,-77.358787177575));
#1644=CARTESIAN_POINT('Origin',(-137.674757891894,-77.0000000000012,-55.3587871775749));
#1645=CARTESIAN_POINT('',(-137.674757891894,-77.0000000000012,-55.3587871775749));
#1646=CARTESIAN_POINT('',(-155.791614624382,-77.0000000000012,-85.358787177575));
#1647=CARTESIAN_POINT('',(-131.006308931398,-77.0000000000012,-44.3163932474973));
#1648=CARTESIAN_POINT('',(-155.791614624382,-74.0000000000012,-85.358787177575));
#1649=CARTESIAN_POINT('',(-155.791614624382,-74.0000000000012,-85.358787177575));
#1650=CARTESIAN_POINT('',(-137.674757891894,-74.0000000000012,-55.3587871775749));
#1651=CARTESIAN_POINT('',(-131.006308931398,-74.0000000000012,-44.3163932474973));
#1652=CARTESIAN_POINT('',(-137.674757891894,-74.0000000000012,-55.3587871775749));
#1653=CARTESIAN_POINT('Origin',(-160.102740203435,-77.0000000000012,-85.3587871775749));
#1654=CARTESIAN_POINT('',(-160.102740203435,-77.0000000000012,-85.3587871775749));
#1655=CARTESIAN_POINT('',(-165.037113781144,-77.0000000000012,-93.6428286905271));
#1656=CARTESIAN_POINT('',(-160.102740203435,-74.0000000000012,-85.3587871775749));
#1657=CARTESIAN_POINT('',(-165.037113781144,-74.0000000000012,-93.6428286905271));
#1658=CARTESIAN_POINT('',(-160.102740203435,-74.0000000000012,-85.358787177575));
#1659=CARTESIAN_POINT('Origin',(-161.080965970734,-71.0000000000012,-85.358787177575));
#1660=CARTESIAN_POINT('',(-105.122395907258,-74.0000000000012,-85.358787177575));
#1661=CARTESIAN_POINT('',(-105.122395907258,-77.0000000000012,-85.358787177575));
#1662=CARTESIAN_POINT('Origin',(-127.080965970734,-71.0000000000012,-55.3587871775749));
#1663=CARTESIAN_POINT('',(-133.066630572267,-74.0000000000012,-55.3587871775749));
#1664=CARTESIAN_POINT('',(-88.1223959072584,-74.0000000000012,-55.358787177575));
#1665=CARTESIAN_POINT('',(-133.066630572267,-77.0000000000012,-55.3587871775749));
#1666=CARTESIAN_POINT('',(-133.066630572267,-74.0000000000012,-55.3587871775749));
#1667=CARTESIAN_POINT('',(-88.1223959072584,-77.0000000000012,-55.358787177575));
#1668=CARTESIAN_POINT('Origin',(-141.769406870102,-77.0000000000012,-85.3587871775749));
#1669=CARTESIAN_POINT('',(-141.769406870102,-77.0000000000012,-85.358787177575));
#1670=CARTESIAN_POINT('',(-124.2160109454,-77.0000000000012,-55.8893807284108));
#1671=CARTESIAN_POINT('',(-146.703780447811,-77.0000000000012,-93.6428286905271));
#1672=CARTESIAN_POINT('',(-124.2160109454,-74.0000000000012,-55.8893807284108));
#1673=CARTESIAN_POINT('',(-124.2160109454,-71.0000000000012,-55.8893807284108));
#1674=CARTESIAN_POINT('',(-141.769406870102,-74.0000000000012,-85.358787177575));
#1675=CARTESIAN_POINT('',(-146.703780447811,-74.0000000000012,-93.6428286905271));
#1676=CARTESIAN_POINT('',(-141.769406870102,-74.0000000000012,-85.358787177575));
#1677=CARTESIAN_POINT('Origin',(-121.019594981865,-77.0000000000012,-58.1376970868661));
#1678=CARTESIAN_POINT('',(-112.672975598064,-77.0000000000012,-44.3163932474973));
#1679=CARTESIAN_POINT('',(-112.672975598064,-74.0000000000012,-44.3163932474973));
#1680=CARTESIAN_POINT('Origin',(-161.080965970734,-71.0000000000012,-85.358787177575));
#1681=CARTESIAN_POINT('',(-146.624947957715,-74.0000000000012,-85.358787177575));
#1682=CARTESIAN_POINT('',(-105.122395907258,-74.0000000000012,-85.358787177575));
#1683=CARTESIAN_POINT('',(-146.624947957715,-77.0000000000012,-85.358787177575));
#1684=CARTESIAN_POINT('',(-146.624947957715,-74.0000000000012,-85.358787177575));
#1685=CARTESIAN_POINT('',(-105.122395907258,-77.0000000000012,-85.358787177575));
#1686=CARTESIAN_POINT('Origin',(-169.080965970734,-77.0000000000012,-69.6530246902624));
#1687=CARTESIAN_POINT('',(-169.080965970734,-77.0000000000012,-69.6530246902624));
#1688=CARTESIAN_POINT('',(-160.566630572267,-77.0000000000012,-55.3587871775749));
#1689=CARTESIAN_POINT('',(-183.370447114477,-77.0000000000012,-93.6428286905271));
#1690=CARTESIAN_POINT('',(-160.566630572267,-74.0000000000012,-55.3587871775749));
#1691=CARTESIAN_POINT('',(-160.566630572267,-74.0000000000012,-55.3587871775749));
#1692=CARTESIAN_POINT('',(-169.080965970734,-74.0000000000012,-69.6530246902624));
#1693=CARTESIAN_POINT('',(-183.370447114477,-74.0000000000012,-93.6428286905271));
#1694=CARTESIAN_POINT('',(-169.080965970734,-74.0000000000012,-69.6530246902624));
#1695=CARTESIAN_POINT('Origin',(-156.008091225228,-77.0000000000012,-55.3587871775749));
#1696=CARTESIAN_POINT('',(-169.080965970734,-77.0000000000012,-77.0063747340808));
#1697=CARTESIAN_POINT('',(-149.339642264731,-77.0000000000012,-44.3163932474973));
#1698=CARTESIAN_POINT('',(-169.080965970734,-74.0000000000012,-77.0063747340808));
#1699=CARTESIAN_POINT('',(-169.080965970734,-74.0000000000012,-77.0063747340808));
#1700=CARTESIAN_POINT('',(-149.339642264731,-74.0000000000012,-44.3163932474973));
#1701=CARTESIAN_POINT('Origin',(-169.080965970734,-71.0000000000012,-63.3587871775749));
#1702=CARTESIAN_POINT('',(-169.080965970734,-74.0000000000012,-63.3587871775749));
#1703=CARTESIAN_POINT('',(-169.080965970734,-74.0000000000012,-41.3772540480167));
#1704=CARTESIAN_POINT('',(-169.080965970734,-77.0000000000012,-63.3587871775749));
#1705=CARTESIAN_POINT('',(-169.080965970734,-71.0000000000012,-63.3587871775749));
#1706=CARTESIAN_POINT('',(-169.080965970734,-77.0000000000012,-41.3772540480167));
#1707=CARTESIAN_POINT('Origin',(-169.080965970734,-71.0000000000012,-63.3587871775749));
#1708=CARTESIAN_POINT('',(-169.080965970734,-77.0000000000012,-41.3772540480167));
#1709=CARTESIAN_POINT('',(-169.080965970734,-74.0000000000012,-41.3772540480167));
#1710=CARTESIAN_POINT('Origin',(-128.508091225228,-77.0000000000012,-55.358787177575));
#1711=CARTESIAN_POINT('',(-128.508091225228,-77.0000000000012,-55.358787177575));
#1712=CARTESIAN_POINT('',(-121.839642264731,-77.0000000000012,-44.3163932474973));
#1713=CARTESIAN_POINT('',(-128.508091225228,-74.0000000000012,-55.358787177575));
#1714=CARTESIAN_POINT('',(-121.839642264731,-74.0000000000012,-44.3163932474973));
#1715=CARTESIAN_POINT('',(-128.508091225228,-74.0000000000012,-55.3587871775749));
#1716=CARTESIAN_POINT('Origin',(-150.936073536769,-77.0000000000012,-85.3587871775749));
#1717=CARTESIAN_POINT('',(-150.936073536769,-77.0000000000012,-85.358787177575));
#1718=CARTESIAN_POINT('',(-155.870447114477,-77.0000000000012,-93.6428286905271));
#1719=CARTESIAN_POINT('',(-150.936073536769,-74.0000000000012,-85.358787177575));
#1720=CARTESIAN_POINT('',(-155.870447114477,-74.0000000000012,-93.6428286905271));
#1721=CARTESIAN_POINT('',(-150.936073536769,-74.0000000000012,-85.358787177575));
#1722=CARTESIAN_POINT('Origin',(-161.080965970734,-71.0000000000012,-85.358787177575));
#1723=CARTESIAN_POINT('',(-105.122395907258,-77.0000000000012,-85.358787177575));
#1724=CARTESIAN_POINT('',(-105.122395907258,-74.0000000000012,-85.358787177575));
#1725=CARTESIAN_POINT('Origin',(-127.080965970734,-71.0000000000012,-55.3587871775749));
#1726=CARTESIAN_POINT('',(-127.080965970734,-74.0000000000012,-55.3587871775749));
#1727=CARTESIAN_POINT('',(-88.1223959072584,-74.0000000000012,-55.358787177575));
#1728=CARTESIAN_POINT('',(-127.080965970734,-77.0000000000012,-55.3587871775749));
#1729=CARTESIAN_POINT('',(-127.080965970734,-71.0000000000012,-55.3587871775749));
#1730=CARTESIAN_POINT('',(-88.1223959072584,-77.0000000000012,-55.358787177575));
#1731=CARTESIAN_POINT('Origin',(-127.080965970734,-71.0000000000012,-55.3587871775749));
#1732=CARTESIAN_POINT('',(-161.080965970734,-77.0000000000012,-55.3587871775749));
#1733=CARTESIAN_POINT('',(-88.1223959072584,-77.0000000000012,-55.358787177575));
#1734=CARTESIAN_POINT('',(-161.080965970734,-74.0000000000012,-55.3587871775749));
#1735=CARTESIAN_POINT('',(-161.080965970734,-71.0000000000012,-55.3587871775749));
#1736=CARTESIAN_POINT('',(-88.1223959072584,-74.0000000000012,-55.358787177575));
#1737=CARTESIAN_POINT('Origin',(-161.080965970734,-71.0000000000012,-63.3587871775749));
#1738=CARTESIAN_POINT('Origin',(-161.080965970734,-77.0000000000012,-63.3587871775749));
#1739=CARTESIAN_POINT('Origin',(-161.080965970734,-74.0000000000012,-63.3587871775749));
#1740=CARTESIAN_POINT('Origin',(-127.080965970734,-71.0000000000012,-63.3587871775749));
#1741=CARTESIAN_POINT('Origin',(-127.080965970734,-77.0000000000012,-63.3587871775749));
#1742=CARTESIAN_POINT('Origin',(-127.080965970734,-74.0000000000012,-63.3587871775749));
#1743=CARTESIAN_POINT('Origin',(-127.080965970734,-71.0000000000012,-77.358787177575));
#1744=CARTESIAN_POINT('Origin',(-127.080965970734,-77.0000000000012,-77.358787177575));
#1745=CARTESIAN_POINT('Origin',(-127.080965970734,-74.0000000000012,-77.358787177575));
#1746=CARTESIAN_POINT('Origin',(61.9516552978414,-71.0000000000012,-70.3587871775763));
#1747=CARTESIAN_POINT('',(75.9516552978414,-74.0000000000012,-70.3587871775763));
#1748=CARTESIAN_POINT('Origin',(61.9516552978414,-74.0000000000012,-70.3587871775763));
#1749=CARTESIAN_POINT('',(75.9516552978414,-77.0000000000012,-70.3587871775763));
#1750=CARTESIAN_POINT('',(75.9516552978414,-71.0000000000012,-70.3587871775763));
#1751=CARTESIAN_POINT('Origin',(61.9516552978414,-77.0000000000012,-70.3587871775763));
#1752=CARTESIAN_POINT('Origin',(-119.425431276688,-74.0000000000012,25.8883958512312));
#1753=CARTESIAN_POINT('',(-119.425431276688,-74.0000000000012,25.8883958512312));
#1754=CARTESIAN_POINT('',(-119.425431276688,-74.0000000000013,81.4619889800384));
#1755=CARTESIAN_POINT('',(-119.425431276688,-74.0000000000012,25.8883958512312));
#1756=CARTESIAN_POINT('',(-119.425431276688,-77.0000000000013,81.4619889800384));
#1757=CARTESIAN_POINT('',(-119.425431276688,-74.0000000000013,81.4619889800384));
#1758=CARTESIAN_POINT('',(-119.425431276688,-77.0000000000012,25.8883958512312));
#1759=CARTESIAN_POINT('',(-119.425431276688,-77.0000000000012,25.8883958512312));
#1760=CARTESIAN_POINT('',(-119.425431276688,-74.0000000000012,25.8883958512312));
#1761=CARTESIAN_POINT('Origin',(-109.425431276688,-74.0000000000012,25.8883958512311));
#1762=CARTESIAN_POINT('',(-116.496499088553,-74.0000000000012,18.8173280393657));
#1763=CARTESIAN_POINT('Origin',(-109.425431276688,-74.0000000000012,25.8883958512311));
#1764=CARTESIAN_POINT('',(-116.496499088553,-77.0000000000012,18.8173280393657));
#1765=CARTESIAN_POINT('Origin',(-109.425431276688,-77.0000000000012,25.8883958512311));
#1766=CARTESIAN_POINT('',(-116.496499088553,-74.0000000000012,18.8173280393657));
#1767=CARTESIAN_POINT('Origin',(-104.719999029486,-74.0000000000012,7.04082798029801));
#1768=CARTESIAN_POINT('',(-104.719999029486,-74.0000000000012,7.04082798029801));
#1769=CARTESIAN_POINT('',(-116.496499088553,-74.0000000000012,18.8173280393657));
#1770=CARTESIAN_POINT('',(-104.719999029486,-77.0000000000012,7.04082798029802));
#1771=CARTESIAN_POINT('',(-116.496499088553,-77.0000000000012,18.8173280393657));
#1772=CARTESIAN_POINT('',(-104.719999029486,-74.0000000000012,7.04082798029801));
#1773=CARTESIAN_POINT('Origin',(-97.6489312176202,-74.0000000000012,14.1118957921635));
#1774=CARTESIAN_POINT('',(-98.5204886450967,-74.0000000000012,4.14994881124604));
#1775=CARTESIAN_POINT('Origin',(-97.6489312176202,-74.0000000000012,14.1118957921635));
#1776=CARTESIAN_POINT('',(-98.5204886450967,-77.0000000000012,4.14994881124604));
#1777=CARTESIAN_POINT('Origin',(-97.6489312176202,-77.0000000000012,14.1118957921635));
#1778=CARTESIAN_POINT('',(-98.5204886450967,-74.0000000000012,4.14994881124604));
#1779=CARTESIAN_POINT('Origin',(88.5360504489019,-74.0000000000012,-12.2153777978726));
#1780=CARTESIAN_POINT('',(88.5360504489019,-74.0000000000012,-12.2153777978726));
#1781=CARTESIAN_POINT('',(88.5360504489019,-74.0000000000012,-12.2153777978726));
#1782=CARTESIAN_POINT('',(88.5360504489019,-77.0000000000012,-12.2153777978726));
#1783=CARTESIAN_POINT('',(88.5360504489019,-77.0000000000012,-12.2153777978726));
#1784=CARTESIAN_POINT('',(88.5360504489019,-74.0000000000012,-12.2153777978726));
#1785=CARTESIAN_POINT('Origin',(89.4076078763784,-74.0000000000012,-2.25343081695537));
#1786=CARTESIAN_POINT('',(89.4076078763784,-74.0000000000012,-12.2534308169552));
#1787=CARTESIAN_POINT('Origin',(89.4076078763784,-74.0000000000012,-2.25343081695537));
#1788=CARTESIAN_POINT('',(89.4076078763784,-77.0000000000012,-12.2534308169552));
#1789=CARTESIAN_POINT('Origin',(89.4076078763784,-77.0000000000012,-2.25343081695537));
#1790=CARTESIAN_POINT('',(89.4076078763784,-74.0000000000012,-12.2534308169552));
#1791=CARTESIAN_POINT('Origin',(101.097779589123,-74.0000000000012,-12.2534308169553));
#1792=CARTESIAN_POINT('',(101.097779589123,-74.0000000000012,-12.2534308169553));
#1793=CARTESIAN_POINT('',(101.097779589123,-74.0000000000012,-12.2534308169553));
#1794=CARTESIAN_POINT('',(101.097779589123,-77.0000000000012,-12.2534308169553));
#1795=CARTESIAN_POINT('',(101.097779589123,-77.0000000000012,-12.2534308169553));
#1796=CARTESIAN_POINT('',(101.097779589123,-74.0000000000012,-12.2534308169553));
#1797=CARTESIAN_POINT('Origin',(101.097779589123,-74.0000000000012,-22.2534308169553));
#1798=CARTESIAN_POINT('',(111.097779589123,-74.0000000000012,-22.2534308169554));
#1799=CARTESIAN_POINT('Origin',(101.097779589123,-74.0000000000012,-22.2534308169553));
#1800=CARTESIAN_POINT('',(111.097779589123,-77.0000000000012,-22.2534308169554));
#1801=CARTESIAN_POINT('Origin',(101.097779589123,-77.0000000000012,-22.2534308169553));
#1802=CARTESIAN_POINT('',(111.097779589123,-74.0000000000012,-22.2534308169554));
#1803=CARTESIAN_POINT('Origin',(111.097779589118,-74.0000000000012,-120.253430816958));
#1804=CARTESIAN_POINT('',(111.097779589118,-74.0000000000012,-120.253430816958));
#1805=CARTESIAN_POINT('',(111.097779589118,-74.0000000000012,-120.253430816958));
#1806=CARTESIAN_POINT('',(111.097779589118,-77.0000000000012,-120.253430816958));
#1807=CARTESIAN_POINT('',(111.097779589118,-77.0000000000012,-120.253430816958));
#1808=CARTESIAN_POINT('',(111.097779589118,-74.0000000000012,-120.253430816958));
#1809=CARTESIAN_POINT('Origin',(101.097779589118,-74.0000000000012,-120.253430816955));
#1810=CARTESIAN_POINT('',(101.097779589118,-74.0000000000012,-130.253430816955));
#1811=CARTESIAN_POINT('Origin',(101.097779589118,-74.0000000000012,-120.253430816955));
#1812=CARTESIAN_POINT('',(101.097779589118,-77.0000000000012,-130.253430816955));
#1813=CARTESIAN_POINT('Origin',(101.097779589118,-77.0000000000012,-120.253430816955));
#1814=CARTESIAN_POINT('',(101.097779589118,-74.0000000000012,-130.253430816955));
#1815=CARTESIAN_POINT('Origin',(-199.425431276689,-74.0000000000012,-130.253430816952));
#1816=CARTESIAN_POINT('',(-199.425431276689,-74.0000000000012,-130.253430816952));
#1817=CARTESIAN_POINT('',(-199.425431276689,-74.0000000000012,-130.253430816952));
#1818=CARTESIAN_POINT('',(-199.425431276689,-77.0000000000012,-130.253430816952));
#1819=CARTESIAN_POINT('',(-199.425431276689,-77.0000000000012,-130.253430816952));
#1820=CARTESIAN_POINT('',(-199.425431276689,-74.0000000000012,-130.253430816952));
#1821=CARTESIAN_POINT('Origin',(-199.425431276689,-74.0000000000012,-120.253430816952));
#1822=CARTESIAN_POINT('',(-209.425431276689,-74.0000000000012,-120.253430816952));
#1823=CARTESIAN_POINT('Origin',(-199.425431276689,-74.0000000000012,-120.253430816952));
#1824=CARTESIAN_POINT('',(-209.425431276689,-77.0000000000012,-120.253430816952));
#1825=CARTESIAN_POINT('Origin',(-199.425431276689,-77.0000000000012,-120.253430816952));
#1826=CARTESIAN_POINT('',(-209.425431276689,-74.0000000000012,-120.253430816952));
#1827=CARTESIAN_POINT('Origin',(-209.425431276688,-74.0000000000013,81.4619889800384));
#1828=CARTESIAN_POINT('',(-209.425431276688,-74.0000000000013,81.4619889800384));
#1829=CARTESIAN_POINT('',(-209.425431276688,-74.0000000000013,81.4619889800384));
#1830=CARTESIAN_POINT('',(-209.425431276688,-77.0000000000013,81.4619889800384));
#1831=CARTESIAN_POINT('',(-209.425431276688,-77.0000000000013,81.4619889800384));
#1832=CARTESIAN_POINT('',(-209.425431276688,-74.0000000000013,81.4619889800384));
#1833=CARTESIAN_POINT('Origin',(-199.425431276688,-74.0000000000013,81.4619889800384));
#1834=CARTESIAN_POINT('',(-199.425431276688,-74.0000000000013,91.4619889800384));
#1835=CARTESIAN_POINT('Origin',(-199.425431276688,-74.0000000000013,81.4619889800384));
#1836=CARTESIAN_POINT('',(-199.425431276688,-77.0000000000013,91.4619889800384));
#1837=CARTESIAN_POINT('Origin',(-199.425431276688,-77.0000000000013,81.4619889800384));
#1838=CARTESIAN_POINT('',(-199.425431276688,-74.0000000000013,91.4619889800384));
#1839=CARTESIAN_POINT('Origin',(-129.425431276688,-74.0000000000013,91.4619889800384));
#1840=CARTESIAN_POINT('',(-129.425431276688,-74.0000000000013,91.4619889800384));
#1841=CARTESIAN_POINT('',(-129.425431276688,-74.0000000000013,91.4619889800384));
#1842=CARTESIAN_POINT('',(-129.425431276688,-77.0000000000013,91.4619889800384));
#1843=CARTESIAN_POINT('',(-129.425431276688,-77.0000000000013,91.4619889800384));
#1844=CARTESIAN_POINT('',(-129.425431276688,-74.0000000000013,91.4619889800384));
#1845=CARTESIAN_POINT('Origin',(-129.425431276688,-74.0000000000013,81.4619889800384));
#1846=CARTESIAN_POINT('Origin',(-129.425431276688,-74.0000000000013,81.4619889800384));
#1847=CARTESIAN_POINT('Origin',(-129.425431276688,-77.0000000000013,81.4619889800384));
#1848=CARTESIAN_POINT('Origin',(-49.1638258437828,-77.0000000000012,-19.3957209184585));
#1849=CARTESIAN_POINT('Origin',(-49.1638258437828,-74.0000000000012,-19.3957209184585));
#1850=UNCERTAINTY_MEASURE_WITH_UNIT(LENGTH_MEASURE(0.01),#1854,
'DISTANCE_ACCURACY_VALUE',
'Maximum model space distance between geometric entities at asserted c
onnectivities');
#1851=UNCERTAINTY_MEASURE_WITH_UNIT(LENGTH_MEASURE(0.01),#1854,
'DISTANCE_ACCURACY_VALUE',
'Maximum model space distance between geometric entities at asserted c
onnectivities');
#1852=(
GEOMETRIC_REPRESENTATION_CONTEXT(3)
GLOBAL_UNCERTAINTY_ASSIGNED_CONTEXT((#1850))
GLOBAL_UNIT_ASSIGNED_CONTEXT((#1854,#1856,#1857))
REPRESENTATION_CONTEXT('','3D')
);
#1853=(
GEOMETRIC_REPRESENTATION_CONTEXT(3)
GLOBAL_UNCERTAINTY_ASSIGNED_CONTEXT((#1851))
GLOBAL_UNIT_ASSIGNED_CONTEXT((#1854,#1856,#1857))
REPRESENTATION_CONTEXT('','3D')
);
#1854=(
LENGTH_UNIT()
NAMED_UNIT(*)
SI_UNIT(.MILLI.,.METRE.)
);
#1855=(
LENGTH_UNIT()
NAMED_UNIT(*)
SI_UNIT($,.METRE.)
);
#1856=(
NAMED_UNIT(*)
PLANE_ANGLE_UNIT()
SI_UNIT($,.RADIAN.)
);
#1857=(
NAMED_UNIT(*)
SI_UNIT($,.STERADIAN.)
SOLID_ANGLE_UNIT()
);
#1858=SHAPE_DEFINITION_REPRESENTATION(#1859,#1860);
#1859=PRODUCT_DEFINITION_SHAPE('',$,#1862);
#1860=SHAPE_REPRESENTATION('',(#1138),#1852);
#1861=PRODUCT_DEFINITION_CONTEXT('part definition',#1866,'design');
#1862=PRODUCT_DEFINITION('Outer Wall','Outer Wall',#1863,#1861);
#1863=PRODUCT_DEFINITION_FORMATION('',$,#1868);
#1864=PRODUCT_RELATED_PRODUCT_CATEGORY('Outer Wall','Outer Wall',(#1868));
#1865=APPLICATION_PROTOCOL_DEFINITION('international standard',
'automotive_design',2009,#1866);
#1866=APPLICATION_CONTEXT(
'Core Data for Automotive Mechanical Design Process');
#1867=PRODUCT_CONTEXT('part definition',#1866,'mechanical');
#1868=PRODUCT('Outer Wall','Outer Wall',$,(#1867));
#1869=PRESENTATION_STYLE_ASSIGNMENT((#1870));
#1870=SURFACE_STYLE_USAGE(.BOTH.,#1871);
#1871=SURFACE_SIDE_STYLE('',(#1872));
#1872=SURFACE_STYLE_FILL_AREA(#1873);
#1873=FILL_AREA_STYLE('Steel - Satin',(#1874));
#1874=FILL_AREA_STYLE_COLOUR('Steel - Satin',#1875);
#1875=COLOUR_RGB('Steel - Satin',0.627450980392157,0.627450980392157,0.627450980392157);
ENDSEC;
END-ISO-10303-21;
