ISO-10303-21;
HEADER;
/* Generated by software containing ST-Developer
 * from STEP Tools, Inc. (www.steptools.com) 
 */

FILE_DESCRIPTION(
/* description */ (''),
/* implementation_level */ '2;1');

FILE_NAME(
/* name */ 'Pi & Haptic Holder.step',
/* time_stamp */ '2025-11-23T21:00:40-08:00',
/* author */ (''),
/* organization */ (''),
/* preprocessor_version */ 'ST-DEVELOPER v20.1',
/* originating_system */ 'Autodesk Translation Framework v14.21.0.0',
/* authorisation */ '');

FILE_SCHEMA (('AUTOMOTIVE_DESIGN { 1 0 10303 214 3 1 1 }'));
ENDSEC;

DATA;
#10=MECHANICAL_DESIGN_GEOMETRIC_PRESENTATION_REPRESENTATION('',(#13),#1375);
#11=SHAPE_REPRESENTATION_RELATIONSHIP('SRR','None',#1382,#12);
#12=ADVANCED_BREP_SHAPE_REPRESENTATION('',(#14),#1374);
#13=STYLED_ITEM('',(#1391),#14);
#14=MANIFOLD_SOLID_BREP('Body1',#782);
#15=FACE_BOUND('',#268,.T.);
#16=FACE_BOUND('',#269,.T.);
#17=FACE_BOUND('',#270,.T.);
#18=FACE_BOUND('',#271,.T.);
#19=FACE_BOUND('',#272,.T.);
#20=FACE_BOUND('',#273,.T.);
#21=FACE_BOUND('',#274,.T.);
#22=FACE_BOUND('',#275,.T.);
#23=FACE_BOUND('',#276,.T.);
#24=FACE_BOUND('',#277,.T.);
#25=FACE_BOUND('',#278,.T.);
#26=FACE_BOUND('',#279,.T.);
#27=FACE_BOUND('',#280,.T.);
#28=PLANE('',#802);
#29=PLANE('',#806);
#30=PLANE('',#810);
#31=PLANE('',#814);
#32=PLANE('',#818);
#33=PLANE('',#822);
#34=PLANE('',#826);
#35=PLANE('',#830);
#36=PLANE('',#834);
#37=PLANE('',#838);
#38=PLANE('',#854);
#39=PLANE('',#858);
#40=PLANE('',#868);
#41=PLANE('',#871);
#42=PLANE('',#874);
#43=PLANE('',#877);
#44=PLANE('',#880);
#45=PLANE('',#881);
#46=PLANE('',#882);
#47=PLANE('',#883);
#48=PLANE('',#886);
#49=PLANE('',#889);
#50=PLANE('',#890);
#51=PLANE('',#891);
#52=PLANE('',#892);
#53=PLANE('',#893);
#54=LINE('',#1158,#110);
#55=LINE('',#1164,#111);
#56=LINE('',#1171,#112);
#57=LINE('',#1178,#113);
#58=LINE('',#1185,#114);
#59=LINE('',#1192,#115);
#60=LINE('',#1199,#116);
#61=LINE('',#1206,#117);
#62=LINE('',#1213,#118);
#63=LINE('',#1220,#119);
#64=LINE('',#1228,#120);
#65=LINE('',#1231,#121);
#66=LINE('',#1236,#122);
#67=LINE('',#1243,#123);
#68=LINE('',#1246,#124);
#69=LINE('',#1254,#125);
#70=LINE('',#1258,#126);
#71=LINE('',#1260,#127);
#72=LINE('',#1261,#128);
#73=LINE('',#1266,#129);
#74=LINE('',#1270,#130);
#75=LINE('',#1274,#131);
#76=LINE('',#1278,#132);
#77=LINE('',#1281,#133);
#78=LINE('',#1288,#134);
#79=LINE('',#1290,#135);
#80=LINE('',#1292,#136);
#81=LINE('',#1296,#137);
#82=LINE('',#1300,#138);
#83=LINE('',#1301,#139);
#84=LINE('',#1304,#140);
#85=LINE('',#1307,#141);
#86=LINE('',#1310,#142);
#87=LINE('',#1311,#143);
#88=LINE('',#1315,#144);
#89=LINE('',#1318,#145);
#90=LINE('',#1319,#146);
#91=LINE('',#1322,#147);
#92=LINE('',#1325,#148);
#93=LINE('',#1328,#149);
#94=LINE('',#1333,#150);
#95=LINE('',#1338,#151);
#96=LINE('',#1340,#152);
#97=LINE('',#1341,#153);
#98=LINE('',#1344,#154);
#99=LINE('',#1345,#155);
#100=LINE('',#1348,#156);
#101=LINE('',#1349,#157);
#102=LINE('',#1352,#158);
#103=LINE('',#1356,#159);
#104=LINE('',#1357,#160);
#105=LINE('',#1360,#161);
#106=LINE('',#1364,#162);
#107=LINE('',#1365,#163);
#108=LINE('',#1367,#164);
#109=LINE('',#1370,#165);
#110=VECTOR('',#908,43.);
#111=VECTOR('',#915,2.5);
#112=VECTOR('',#924,1.65);
#113=VECTOR('',#933,2.5);
#114=VECTOR('',#942,1.65);
#115=VECTOR('',#951,1.65);
#116=VECTOR('',#960,2.5);
#117=VECTOR('',#969,1.65);
#118=VECTOR('',#978,1.65);
#119=VECTOR('',#987,1.65);
#120=VECTOR('',#996,3.);
#121=VECTOR('',#999,3.);
#122=VECTOR('',#1004,10.);
#123=VECTOR('',#1011,2.99999999999999);
#124=VECTOR('',#1014,2.99999999999999);
#125=VECTOR('',#1025,10.);
#126=VECTOR('',#1030,10.);
#127=VECTOR('',#1031,10.);
#128=VECTOR('',#1032,10.);
#129=VECTOR('',#1037,10.);
#130=VECTOR('',#1042,10.);
#131=VECTOR('',#1045,10.);
#132=VECTOR('',#1048,10.);
#133=VECTOR('',#1051,10.);
#134=VECTOR('',#1056,10.);
#135=VECTOR('',#1057,10.);
#136=VECTOR('',#1058,10.);
#137=VECTOR('',#1061,10.);
#138=VECTOR('',#1064,10.);
#139=VECTOR('',#1065,10.);
#140=VECTOR('',#1068,10.);
#141=VECTOR('',#1071,10.);
#142=VECTOR('',#1074,10.);
#143=VECTOR('',#1075,10.);
#144=VECTOR('',#1080,10.);
#145=VECTOR('',#1083,10.);
#146=VECTOR('',#1084,10.);
#147=VECTOR('',#1087,10.);
#148=VECTOR('',#1092,10.);
#149=VECTOR('',#1095,1.25);
#150=VECTOR('',#1102,1.25);
#151=VECTOR('',#1109,10.);
#152=VECTOR('',#1110,10.);
#153=VECTOR('',#1111,10.);
#154=VECTOR('',#1114,10.);
#155=VECTOR('',#1115,10.);
#156=VECTOR('',#1118,10.);
#157=VECTOR('',#1119,10.);
#158=VECTOR('',#1122,10.);
#159=VECTOR('',#1127,10.);
#160=VECTOR('',#1128,10.);
#161=VECTOR('',#1131,10.);
#162=VECTOR('',#1136,10.);
#163=VECTOR('',#1137,10.);
#164=VECTOR('',#1140,10.);
#165=VECTOR('',#1145,10.);
#166=CYLINDRICAL_SURFACE('',#800,43.);
#167=CYLINDRICAL_SURFACE('',#803,2.5);
#168=CYLINDRICAL_SURFACE('',#807,1.65);
#169=CYLINDRICAL_SURFACE('',#811,2.5);
#170=CYLINDRICAL_SURFACE('',#815,1.65);
#171=CYLINDRICAL_SURFACE('',#819,1.65);
#172=CYLINDRICAL_SURFACE('',#823,2.5);
#173=CYLINDRICAL_SURFACE('',#827,1.65);
#174=CYLINDRICAL_SURFACE('',#831,1.65);
#175=CYLINDRICAL_SURFACE('',#835,1.65);
#176=CYLINDRICAL_SURFACE('',#839,3.);
#177=CYLINDRICAL_SURFACE('',#842,5.);
#178=CYLINDRICAL_SURFACE('',#845,2.99999999999999);
#179=CYLINDRICAL_SURFACE('',#848,58.);
#180=CYLINDRICAL_SURFACE('',#851,5.);
#181=CYLINDRICAL_SURFACE('',#855,5.);
#182=CYLINDRICAL_SURFACE('',#866,5.);
#183=CYLINDRICAL_SURFACE('',#869,5.);
#184=CYLINDRICAL_SURFACE('',#872,5.);
#185=CYLINDRICAL_SURFACE('',#875,1.25);
#186=CYLINDRICAL_SURFACE('',#878,1.25);
#187=CYLINDRICAL_SURFACE('',#884,2.25);
#188=CYLINDRICAL_SURFACE('',#887,2.25);
#189=FACE_OUTER_BOUND('',#239,.T.);
#190=FACE_OUTER_BOUND('',#240,.T.);
#191=FACE_OUTER_BOUND('',#241,.T.);
#192=FACE_OUTER_BOUND('',#242,.T.);
#193=FACE_OUTER_BOUND('',#243,.T.);
#194=FACE_OUTER_BOUND('',#244,.T.);
#195=FACE_OUTER_BOUND('',#245,.T.);
#196=FACE_OUTER_BOUND('',#246,.T.);
#197=FACE_OUTER_BOUND('',#247,.T.);
#198=FACE_OUTER_BOUND('',#248,.T.);
#199=FACE_OUTER_BOUND('',#249,.T.);
#200=FACE_OUTER_BOUND('',#250,.T.);
#201=FACE_OUTER_BOUND('',#251,.T.);
#202=FACE_OUTER_BOUND('',#252,.T.);
#203=FACE_OUTER_BOUND('',#253,.T.);
#204=FACE_OUTER_BOUND('',#254,.T.);
#205=FACE_OUTER_BOUND('',#255,.T.);
#206=FACE_OUTER_BOUND('',#256,.T.);
#207=FACE_OUTER_BOUND('',#257,.T.);
#208=FACE_OUTER_BOUND('',#258,.T.);
#209=FACE_OUTER_BOUND('',#259,.T.);
#210=FACE_OUTER_BOUND('',#260,.T.);
#211=FACE_OUTER_BOUND('',#261,.T.);
#212=FACE_OUTER_BOUND('',#262,.T.);
#213=FACE_OUTER_BOUND('',#263,.T.);
#214=FACE_OUTER_BOUND('',#264,.T.);
#215=FACE_OUTER_BOUND('',#265,.T.);
#216=FACE_OUTER_BOUND('',#266,.T.);
#217=FACE_OUTER_BOUND('',#267,.T.);
#218=FACE_OUTER_BOUND('',#281,.T.);
#219=FACE_OUTER_BOUND('',#282,.T.);
#220=FACE_OUTER_BOUND('',#283,.T.);
#221=FACE_OUTER_BOUND('',#284,.T.);
#222=FACE_OUTER_BOUND('',#285,.T.);
#223=FACE_OUTER_BOUND('',#286,.T.);
#224=FACE_OUTER_BOUND('',#287,.T.);
#225=FACE_OUTER_BOUND('',#288,.T.);
#226=FACE_OUTER_BOUND('',#289,.T.);
#227=FACE_OUTER_BOUND('',#290,.T.);
#228=FACE_OUTER_BOUND('',#291,.T.);
#229=FACE_OUTER_BOUND('',#292,.T.);
#230=FACE_OUTER_BOUND('',#293,.T.);
#231=FACE_OUTER_BOUND('',#294,.T.);
#232=FACE_OUTER_BOUND('',#295,.T.);
#233=FACE_OUTER_BOUND('',#296,.T.);
#234=FACE_OUTER_BOUND('',#297,.T.);
#235=FACE_OUTER_BOUND('',#298,.T.);
#236=FACE_OUTER_BOUND('',#299,.T.);
#237=FACE_OUTER_BOUND('',#300,.T.);
#238=FACE_OUTER_BOUND('',#301,.T.);
#239=EDGE_LOOP('',(#523,#524,#525,#526));
#240=EDGE_LOOP('',(#527,#528,#529,#530));
#241=EDGE_LOOP('',(#531));
#242=EDGE_LOOP('',(#532,#533,#534,#535));
#243=EDGE_LOOP('',(#536));
#244=EDGE_LOOP('',(#537,#538,#539,#540));
#245=EDGE_LOOP('',(#541));
#246=EDGE_LOOP('',(#542,#543,#544,#545));
#247=EDGE_LOOP('',(#546));
#248=EDGE_LOOP('',(#547,#548,#549,#550));
#249=EDGE_LOOP('',(#551));
#250=EDGE_LOOP('',(#552,#553,#554,#555));
#251=EDGE_LOOP('',(#556));
#252=EDGE_LOOP('',(#557,#558,#559,#560));
#253=EDGE_LOOP('',(#561));
#254=EDGE_LOOP('',(#562,#563,#564,#565));
#255=EDGE_LOOP('',(#566));
#256=EDGE_LOOP('',(#567,#568,#569,#570));
#257=EDGE_LOOP('',(#571));
#258=EDGE_LOOP('',(#572,#573,#574,#575));
#259=EDGE_LOOP('',(#576));
#260=EDGE_LOOP('',(#577,#578,#579,#580));
#261=EDGE_LOOP('',(#581,#582,#583,#584));
#262=EDGE_LOOP('',(#585,#586,#587,#588));
#263=EDGE_LOOP('',(#589,#590,#591,#592));
#264=EDGE_LOOP('',(#593,#594,#595,#596));
#265=EDGE_LOOP('',(#597,#598,#599,#600));
#266=EDGE_LOOP('',(#601,#602,#603,#604));
#267=EDGE_LOOP('',(#605,#606,#607,#608,#609,#610,#611,#612,#613,#614,#615,
#616,#617,#618));
#268=EDGE_LOOP('',(#619));
#269=EDGE_LOOP('',(#620));
#270=EDGE_LOOP('',(#621));
#271=EDGE_LOOP('',(#622));
#272=EDGE_LOOP('',(#623));
#273=EDGE_LOOP('',(#624));
#274=EDGE_LOOP('',(#625));
#275=EDGE_LOOP('',(#626));
#276=EDGE_LOOP('',(#627));
#277=EDGE_LOOP('',(#628));
#278=EDGE_LOOP('',(#629));
#279=EDGE_LOOP('',(#630));
#280=EDGE_LOOP('',(#631,#632,#633,#634,#635,#636,#637,#638));
#281=EDGE_LOOP('',(#639,#640,#641,#642));
#282=EDGE_LOOP('',(#643,#644,#645,#646));
#283=EDGE_LOOP('',(#647,#648,#649,#650));
#284=EDGE_LOOP('',(#651,#652,#653,#654));
#285=EDGE_LOOP('',(#655,#656,#657,#658));
#286=EDGE_LOOP('',(#659,#660,#661,#662));
#287=EDGE_LOOP('',(#663,#664,#665,#666));
#288=EDGE_LOOP('',(#667));
#289=EDGE_LOOP('',(#668,#669,#670,#671));
#290=EDGE_LOOP('',(#672));
#291=EDGE_LOOP('',(#673,#674,#675,#676));
#292=EDGE_LOOP('',(#677,#678,#679,#680));
#293=EDGE_LOOP('',(#681,#682,#683,#684));
#294=EDGE_LOOP('',(#685,#686,#687,#688));
#295=EDGE_LOOP('',(#689,#690,#691,#692));
#296=EDGE_LOOP('',(#693,#694,#695,#696));
#297=EDGE_LOOP('',(#697,#698,#699,#700));
#298=EDGE_LOOP('',(#701,#702,#703,#704));
#299=EDGE_LOOP('',(#705,#706,#707,#708,#709,#710,#711,#712));
#300=EDGE_LOOP('',(#713,#714,#715,#716));
#301=EDGE_LOOP('',(#717,#718,#719,#720,#721,#722,#723,#724,#725,#726,#727,
#728,#729,#730));
#302=CIRCLE('',#797,35.);
#303=CIRCLE('',#798,8.);
#304=CIRCLE('',#799,43.);
#305=CIRCLE('',#801,43.);
#306=CIRCLE('',#804,2.5);
#307=CIRCLE('',#805,2.5);
#308=CIRCLE('',#808,1.65);
#309=CIRCLE('',#809,1.65);
#310=CIRCLE('',#812,2.5);
#311=CIRCLE('',#813,2.5);
#312=CIRCLE('',#816,1.65);
#313=CIRCLE('',#817,1.65);
#314=CIRCLE('',#820,1.65);
#315=CIRCLE('',#821,1.65);
#316=CIRCLE('',#824,2.5);
#317=CIRCLE('',#825,2.5);
#318=CIRCLE('',#828,1.65);
#319=CIRCLE('',#829,1.65);
#320=CIRCLE('',#832,1.65);
#321=CIRCLE('',#833,1.65);
#322=CIRCLE('',#836,1.65);
#323=CIRCLE('',#837,1.65);
#324=CIRCLE('',#840,3.);
#325=CIRCLE('',#841,3.);
#326=CIRCLE('',#843,5.);
#327=CIRCLE('',#844,5.);
#328=CIRCLE('',#846,2.99999999999999);
#329=CIRCLE('',#847,2.99999999999999);
#330=CIRCLE('',#849,58.);
#331=CIRCLE('',#850,58.);
#332=CIRCLE('',#852,5.);
#333=CIRCLE('',#853,5.);
#334=CIRCLE('',#856,5.);
#335=CIRCLE('',#857,5.);
#336=CIRCLE('',#859,5.);
#337=CIRCLE('',#860,5.);
#338=CIRCLE('',#861,5.);
#339=CIRCLE('',#862,1.25);
#340=CIRCLE('',#863,1.25);
#341=CIRCLE('',#864,2.25);
#342=CIRCLE('',#865,2.25);
#343=CIRCLE('',#867,5.);
#344=CIRCLE('',#870,5.);
#345=CIRCLE('',#873,5.);
#346=CIRCLE('',#876,1.25);
#347=CIRCLE('',#879,1.25);
#348=CIRCLE('',#885,2.25);
#349=CIRCLE('',#888,2.25);
#350=VERTEX_POINT('',#1150);
#351=VERTEX_POINT('',#1152);
#352=VERTEX_POINT('',#1156);
#353=VERTEX_POINT('',#1161);
#354=VERTEX_POINT('',#1163);
#355=VERTEX_POINT('',#1168);
#356=VERTEX_POINT('',#1170);
#357=VERTEX_POINT('',#1175);
#358=VERTEX_POINT('',#1177);
#359=VERTEX_POINT('',#1182);
#360=VERTEX_POINT('',#1184);
#361=VERTEX_POINT('',#1189);
#362=VERTEX_POINT('',#1191);
#363=VERTEX_POINT('',#1196);
#364=VERTEX_POINT('',#1198);
#365=VERTEX_POINT('',#1203);
#366=VERTEX_POINT('',#1205);
#367=VERTEX_POINT('',#1210);
#368=VERTEX_POINT('',#1212);
#369=VERTEX_POINT('',#1217);
#370=VERTEX_POINT('',#1219);
#371=VERTEX_POINT('',#1224);
#372=VERTEX_POINT('',#1225);
#373=VERTEX_POINT('',#1227);
#374=VERTEX_POINT('',#1229);
#375=VERTEX_POINT('',#1233);
#376=VERTEX_POINT('',#1235);
#377=VERTEX_POINT('',#1239);
#378=VERTEX_POINT('',#1240);
#379=VERTEX_POINT('',#1242);
#380=VERTEX_POINT('',#1244);
#381=VERTEX_POINT('',#1251);
#382=VERTEX_POINT('',#1253);
#383=VERTEX_POINT('',#1257);
#384=VERTEX_POINT('',#1259);
#385=VERTEX_POINT('',#1263);
#386=VERTEX_POINT('',#1265);
#387=VERTEX_POINT('',#1269);
#388=VERTEX_POINT('',#1271);
#389=VERTEX_POINT('',#1273);
#390=VERTEX_POINT('',#1275);
#391=VERTEX_POINT('',#1277);
#392=VERTEX_POINT('',#1279);
#393=VERTEX_POINT('',#1282);
#394=VERTEX_POINT('',#1284);
#395=VERTEX_POINT('',#1286);
#396=VERTEX_POINT('',#1287);
#397=VERTEX_POINT('',#1289);
#398=VERTEX_POINT('',#1291);
#399=VERTEX_POINT('',#1293);
#400=VERTEX_POINT('',#1295);
#401=VERTEX_POINT('',#1297);
#402=VERTEX_POINT('',#1299);
#403=VERTEX_POINT('',#1303);
#404=VERTEX_POINT('',#1305);
#405=VERTEX_POINT('',#1309);
#406=VERTEX_POINT('',#1313);
#407=VERTEX_POINT('',#1317);
#408=VERTEX_POINT('',#1321);
#409=VERTEX_POINT('',#1327);
#410=VERTEX_POINT('',#1332);
#411=VERTEX_POINT('',#1337);
#412=VERTEX_POINT('',#1339);
#413=VERTEX_POINT('',#1343);
#414=VERTEX_POINT('',#1347);
#415=VERTEX_POINT('',#1351);
#416=VERTEX_POINT('',#1355);
#417=VERTEX_POINT('',#1359);
#418=VERTEX_POINT('',#1363);
#419=EDGE_CURVE('',#350,#350,#302,.T.);
#420=EDGE_CURVE('',#350,#351,#303,.T.);
#421=EDGE_CURVE('',#351,#351,#304,.T.);
#422=EDGE_CURVE('',#352,#352,#305,.T.);
#423=EDGE_CURVE('',#352,#351,#54,.T.);
#424=EDGE_CURVE('',#353,#353,#306,.T.);
#425=EDGE_CURVE('',#353,#354,#55,.T.);
#426=EDGE_CURVE('',#354,#354,#307,.T.);
#427=EDGE_CURVE('',#355,#355,#308,.T.);
#428=EDGE_CURVE('',#355,#356,#56,.T.);
#429=EDGE_CURVE('',#356,#356,#309,.T.);
#430=EDGE_CURVE('',#357,#357,#310,.T.);
#431=EDGE_CURVE('',#357,#358,#57,.T.);
#432=EDGE_CURVE('',#358,#358,#311,.T.);
#433=EDGE_CURVE('',#359,#359,#312,.T.);
#434=EDGE_CURVE('',#359,#360,#58,.T.);
#435=EDGE_CURVE('',#360,#360,#313,.T.);
#436=EDGE_CURVE('',#361,#361,#314,.T.);
#437=EDGE_CURVE('',#361,#362,#59,.T.);
#438=EDGE_CURVE('',#362,#362,#315,.T.);
#439=EDGE_CURVE('',#363,#363,#316,.T.);
#440=EDGE_CURVE('',#363,#364,#60,.T.);
#441=EDGE_CURVE('',#364,#364,#317,.T.);
#442=EDGE_CURVE('',#365,#365,#318,.T.);
#443=EDGE_CURVE('',#365,#366,#61,.T.);
#444=EDGE_CURVE('',#366,#366,#319,.T.);
#445=EDGE_CURVE('',#367,#367,#320,.T.);
#446=EDGE_CURVE('',#367,#368,#62,.T.);
#447=EDGE_CURVE('',#368,#368,#321,.T.);
#448=EDGE_CURVE('',#369,#369,#322,.T.);
#449=EDGE_CURVE('',#369,#370,#63,.T.);
#450=EDGE_CURVE('',#370,#370,#323,.T.);
#451=EDGE_CURVE('',#371,#372,#324,.F.);
#452=EDGE_CURVE('',#371,#373,#64,.T.);
#453=EDGE_CURVE('',#373,#374,#325,.T.);
#454=EDGE_CURVE('',#374,#372,#65,.T.);
#455=EDGE_CURVE('',#374,#375,#326,.T.);
#456=EDGE_CURVE('',#375,#376,#66,.T.);
#457=EDGE_CURVE('',#376,#372,#327,.T.);
#458=EDGE_CURVE('',#377,#378,#328,.F.);
#459=EDGE_CURVE('',#377,#379,#67,.T.);
#460=EDGE_CURVE('',#379,#380,#329,.T.);
#461=EDGE_CURVE('',#380,#378,#68,.T.);
#462=EDGE_CURVE('',#371,#378,#330,.T.);
#463=EDGE_CURVE('',#373,#380,#331,.T.);
#464=EDGE_CURVE('',#377,#381,#332,.T.);
#465=EDGE_CURVE('',#381,#382,#69,.T.);
#466=EDGE_CURVE('',#382,#379,#333,.T.);
#467=EDGE_CURVE('',#383,#381,#70,.T.);
#468=EDGE_CURVE('',#384,#383,#71,.T.);
#469=EDGE_CURVE('',#382,#384,#72,.T.);
#470=EDGE_CURVE('',#383,#385,#334,.T.);
#471=EDGE_CURVE('',#385,#386,#73,.T.);
#472=EDGE_CURVE('',#386,#384,#335,.T.);
#473=EDGE_CURVE('',#387,#386,#74,.T.);
#474=EDGE_CURVE('',#388,#387,#336,.T.);
#475=EDGE_CURVE('',#389,#388,#75,.T.);
#476=EDGE_CURVE('',#390,#389,#337,.T.);
#477=EDGE_CURVE('',#391,#390,#76,.T.);
#478=EDGE_CURVE('',#392,#391,#338,.T.);
#479=EDGE_CURVE('',#375,#392,#77,.T.);
#480=EDGE_CURVE('',#393,#393,#339,.T.);
#481=EDGE_CURVE('',#394,#394,#340,.T.);
#482=EDGE_CURVE('',#395,#396,#78,.T.);
#483=EDGE_CURVE('',#396,#397,#79,.T.);
#484=EDGE_CURVE('',#397,#398,#80,.T.);
#485=EDGE_CURVE('',#398,#399,#341,.T.);
#486=EDGE_CURVE('',#399,#400,#81,.T.);
#487=EDGE_CURVE('',#400,#401,#342,.T.);
#488=EDGE_CURVE('',#401,#402,#82,.T.);
#489=EDGE_CURVE('',#402,#395,#83,.T.);
#490=EDGE_CURVE('',#391,#403,#84,.T.);
#491=EDGE_CURVE('',#403,#404,#343,.T.);
#492=EDGE_CURVE('',#404,#392,#85,.T.);
#493=EDGE_CURVE('',#405,#390,#86,.T.);
#494=EDGE_CURVE('',#405,#403,#87,.T.);
#495=EDGE_CURVE('',#406,#405,#344,.T.);
#496=EDGE_CURVE('',#389,#406,#88,.T.);
#497=EDGE_CURVE('',#407,#388,#89,.T.);
#498=EDGE_CURVE('',#406,#407,#90,.T.);
#499=EDGE_CURVE('',#387,#408,#91,.T.);
#500=EDGE_CURVE('',#408,#407,#345,.T.);
#501=EDGE_CURVE('',#385,#408,#92,.T.);
#502=EDGE_CURVE('',#393,#409,#93,.T.);
#503=EDGE_CURVE('',#409,#409,#346,.T.);
#504=EDGE_CURVE('',#394,#410,#94,.T.);
#505=EDGE_CURVE('',#410,#410,#347,.T.);
#506=EDGE_CURVE('',#395,#411,#95,.T.);
#507=EDGE_CURVE('',#411,#412,#96,.T.);
#508=EDGE_CURVE('',#396,#412,#97,.T.);
#509=EDGE_CURVE('',#402,#413,#98,.T.);
#510=EDGE_CURVE('',#413,#411,#99,.T.);
#511=EDGE_CURVE('',#401,#414,#100,.T.);
#512=EDGE_CURVE('',#414,#413,#101,.T.);
#513=EDGE_CURVE('',#400,#415,#102,.T.);
#514=EDGE_CURVE('',#415,#414,#348,.T.);
#515=EDGE_CURVE('',#399,#416,#103,.T.);
#516=EDGE_CURVE('',#416,#415,#104,.T.);
#517=EDGE_CURVE('',#398,#417,#105,.T.);
#518=EDGE_CURVE('',#417,#416,#349,.T.);
#519=EDGE_CURVE('',#397,#418,#106,.T.);
#520=EDGE_CURVE('',#418,#417,#107,.T.);
#521=EDGE_CURVE('',#412,#418,#108,.T.);
#522=EDGE_CURVE('',#376,#404,#109,.T.);
#523=ORIENTED_EDGE('',*,*,#419,.T.);
#524=ORIENTED_EDGE('',*,*,#420,.T.);
#525=ORIENTED_EDGE('',*,*,#421,.T.);
#526=ORIENTED_EDGE('',*,*,#420,.F.);
#527=ORIENTED_EDGE('',*,*,#422,.F.);
#528=ORIENTED_EDGE('',*,*,#423,.T.);
#529=ORIENTED_EDGE('',*,*,#421,.F.);
#530=ORIENTED_EDGE('',*,*,#423,.F.);
#531=ORIENTED_EDGE('',*,*,#419,.F.);
#532=ORIENTED_EDGE('',*,*,#424,.F.);
#533=ORIENTED_EDGE('',*,*,#425,.T.);
#534=ORIENTED_EDGE('',*,*,#426,.T.);
#535=ORIENTED_EDGE('',*,*,#425,.F.);
#536=ORIENTED_EDGE('',*,*,#426,.F.);
#537=ORIENTED_EDGE('',*,*,#427,.F.);
#538=ORIENTED_EDGE('',*,*,#428,.T.);
#539=ORIENTED_EDGE('',*,*,#429,.T.);
#540=ORIENTED_EDGE('',*,*,#428,.F.);
#541=ORIENTED_EDGE('',*,*,#429,.F.);
#542=ORIENTED_EDGE('',*,*,#430,.F.);
#543=ORIENTED_EDGE('',*,*,#431,.T.);
#544=ORIENTED_EDGE('',*,*,#432,.T.);
#545=ORIENTED_EDGE('',*,*,#431,.F.);
#546=ORIENTED_EDGE('',*,*,#432,.F.);
#547=ORIENTED_EDGE('',*,*,#433,.F.);
#548=ORIENTED_EDGE('',*,*,#434,.T.);
#549=ORIENTED_EDGE('',*,*,#435,.T.);
#550=ORIENTED_EDGE('',*,*,#434,.F.);
#551=ORIENTED_EDGE('',*,*,#435,.F.);
#552=ORIENTED_EDGE('',*,*,#436,.F.);
#553=ORIENTED_EDGE('',*,*,#437,.T.);
#554=ORIENTED_EDGE('',*,*,#438,.T.);
#555=ORIENTED_EDGE('',*,*,#437,.F.);
#556=ORIENTED_EDGE('',*,*,#438,.F.);
#557=ORIENTED_EDGE('',*,*,#439,.F.);
#558=ORIENTED_EDGE('',*,*,#440,.T.);
#559=ORIENTED_EDGE('',*,*,#441,.T.);
#560=ORIENTED_EDGE('',*,*,#440,.F.);
#561=ORIENTED_EDGE('',*,*,#441,.F.);
#562=ORIENTED_EDGE('',*,*,#442,.F.);
#563=ORIENTED_EDGE('',*,*,#443,.T.);
#564=ORIENTED_EDGE('',*,*,#444,.T.);
#565=ORIENTED_EDGE('',*,*,#443,.F.);
#566=ORIENTED_EDGE('',*,*,#444,.F.);
#567=ORIENTED_EDGE('',*,*,#445,.F.);
#568=ORIENTED_EDGE('',*,*,#446,.T.);
#569=ORIENTED_EDGE('',*,*,#447,.T.);
#570=ORIENTED_EDGE('',*,*,#446,.F.);
#571=ORIENTED_EDGE('',*,*,#447,.F.);
#572=ORIENTED_EDGE('',*,*,#448,.F.);
#573=ORIENTED_EDGE('',*,*,#449,.T.);
#574=ORIENTED_EDGE('',*,*,#450,.T.);
#575=ORIENTED_EDGE('',*,*,#449,.F.);
#576=ORIENTED_EDGE('',*,*,#450,.F.);
#577=ORIENTED_EDGE('',*,*,#451,.F.);
#578=ORIENTED_EDGE('',*,*,#452,.T.);
#579=ORIENTED_EDGE('',*,*,#453,.T.);
#580=ORIENTED_EDGE('',*,*,#454,.T.);
#581=ORIENTED_EDGE('',*,*,#454,.F.);
#582=ORIENTED_EDGE('',*,*,#455,.T.);
#583=ORIENTED_EDGE('',*,*,#456,.T.);
#584=ORIENTED_EDGE('',*,*,#457,.T.);
#585=ORIENTED_EDGE('',*,*,#458,.F.);
#586=ORIENTED_EDGE('',*,*,#459,.T.);
#587=ORIENTED_EDGE('',*,*,#460,.T.);
#588=ORIENTED_EDGE('',*,*,#461,.T.);
#589=ORIENTED_EDGE('',*,*,#452,.F.);
#590=ORIENTED_EDGE('',*,*,#462,.T.);
#591=ORIENTED_EDGE('',*,*,#461,.F.);
#592=ORIENTED_EDGE('',*,*,#463,.F.);
#593=ORIENTED_EDGE('',*,*,#459,.F.);
#594=ORIENTED_EDGE('',*,*,#464,.T.);
#595=ORIENTED_EDGE('',*,*,#465,.T.);
#596=ORIENTED_EDGE('',*,*,#466,.T.);
#597=ORIENTED_EDGE('',*,*,#465,.F.);
#598=ORIENTED_EDGE('',*,*,#467,.F.);
#599=ORIENTED_EDGE('',*,*,#468,.F.);
#600=ORIENTED_EDGE('',*,*,#469,.F.);
#601=ORIENTED_EDGE('',*,*,#470,.T.);
#602=ORIENTED_EDGE('',*,*,#471,.T.);
#603=ORIENTED_EDGE('',*,*,#472,.T.);
#604=ORIENTED_EDGE('',*,*,#468,.T.);
#605=ORIENTED_EDGE('',*,*,#472,.F.);
#606=ORIENTED_EDGE('',*,*,#473,.F.);
#607=ORIENTED_EDGE('',*,*,#474,.F.);
#608=ORIENTED_EDGE('',*,*,#475,.F.);
#609=ORIENTED_EDGE('',*,*,#476,.F.);
#610=ORIENTED_EDGE('',*,*,#477,.F.);
#611=ORIENTED_EDGE('',*,*,#478,.F.);
#612=ORIENTED_EDGE('',*,*,#479,.F.);
#613=ORIENTED_EDGE('',*,*,#455,.F.);
#614=ORIENTED_EDGE('',*,*,#453,.F.);
#615=ORIENTED_EDGE('',*,*,#463,.T.);
#616=ORIENTED_EDGE('',*,*,#460,.F.);
#617=ORIENTED_EDGE('',*,*,#466,.F.);
#618=ORIENTED_EDGE('',*,*,#469,.T.);
#619=ORIENTED_EDGE('',*,*,#424,.T.);
#620=ORIENTED_EDGE('',*,*,#427,.T.);
#621=ORIENTED_EDGE('',*,*,#422,.T.);
#622=ORIENTED_EDGE('',*,*,#430,.T.);
#623=ORIENTED_EDGE('',*,*,#433,.T.);
#624=ORIENTED_EDGE('',*,*,#436,.T.);
#625=ORIENTED_EDGE('',*,*,#439,.T.);
#626=ORIENTED_EDGE('',*,*,#442,.T.);
#627=ORIENTED_EDGE('',*,*,#445,.T.);
#628=ORIENTED_EDGE('',*,*,#448,.T.);
#629=ORIENTED_EDGE('',*,*,#480,.T.);
#630=ORIENTED_EDGE('',*,*,#481,.T.);
#631=ORIENTED_EDGE('',*,*,#482,.T.);
#632=ORIENTED_EDGE('',*,*,#483,.T.);
#633=ORIENTED_EDGE('',*,*,#484,.T.);
#634=ORIENTED_EDGE('',*,*,#485,.T.);
#635=ORIENTED_EDGE('',*,*,#486,.T.);
#636=ORIENTED_EDGE('',*,*,#487,.T.);
#637=ORIENTED_EDGE('',*,*,#488,.T.);
#638=ORIENTED_EDGE('',*,*,#489,.T.);
#639=ORIENTED_EDGE('',*,*,#478,.T.);
#640=ORIENTED_EDGE('',*,*,#490,.T.);
#641=ORIENTED_EDGE('',*,*,#491,.T.);
#642=ORIENTED_EDGE('',*,*,#492,.T.);
#643=ORIENTED_EDGE('',*,*,#490,.F.);
#644=ORIENTED_EDGE('',*,*,#477,.T.);
#645=ORIENTED_EDGE('',*,*,#493,.F.);
#646=ORIENTED_EDGE('',*,*,#494,.T.);
#647=ORIENTED_EDGE('',*,*,#495,.T.);
#648=ORIENTED_EDGE('',*,*,#493,.T.);
#649=ORIENTED_EDGE('',*,*,#476,.T.);
#650=ORIENTED_EDGE('',*,*,#496,.T.);
#651=ORIENTED_EDGE('',*,*,#496,.F.);
#652=ORIENTED_EDGE('',*,*,#475,.T.);
#653=ORIENTED_EDGE('',*,*,#497,.F.);
#654=ORIENTED_EDGE('',*,*,#498,.F.);
#655=ORIENTED_EDGE('',*,*,#474,.T.);
#656=ORIENTED_EDGE('',*,*,#499,.T.);
#657=ORIENTED_EDGE('',*,*,#500,.T.);
#658=ORIENTED_EDGE('',*,*,#497,.T.);
#659=ORIENTED_EDGE('',*,*,#471,.F.);
#660=ORIENTED_EDGE('',*,*,#501,.T.);
#661=ORIENTED_EDGE('',*,*,#499,.F.);
#662=ORIENTED_EDGE('',*,*,#473,.T.);
#663=ORIENTED_EDGE('',*,*,#480,.F.);
#664=ORIENTED_EDGE('',*,*,#502,.T.);
#665=ORIENTED_EDGE('',*,*,#503,.T.);
#666=ORIENTED_EDGE('',*,*,#502,.F.);
#667=ORIENTED_EDGE('',*,*,#503,.F.);
#668=ORIENTED_EDGE('',*,*,#481,.F.);
#669=ORIENTED_EDGE('',*,*,#504,.T.);
#670=ORIENTED_EDGE('',*,*,#505,.T.);
#671=ORIENTED_EDGE('',*,*,#504,.F.);
#672=ORIENTED_EDGE('',*,*,#505,.F.);
#673=ORIENTED_EDGE('',*,*,#482,.F.);
#674=ORIENTED_EDGE('',*,*,#506,.T.);
#675=ORIENTED_EDGE('',*,*,#507,.T.);
#676=ORIENTED_EDGE('',*,*,#508,.F.);
#677=ORIENTED_EDGE('',*,*,#489,.F.);
#678=ORIENTED_EDGE('',*,*,#509,.T.);
#679=ORIENTED_EDGE('',*,*,#510,.T.);
#680=ORIENTED_EDGE('',*,*,#506,.F.);
#681=ORIENTED_EDGE('',*,*,#488,.F.);
#682=ORIENTED_EDGE('',*,*,#511,.T.);
#683=ORIENTED_EDGE('',*,*,#512,.T.);
#684=ORIENTED_EDGE('',*,*,#509,.F.);
#685=ORIENTED_EDGE('',*,*,#487,.F.);
#686=ORIENTED_EDGE('',*,*,#513,.T.);
#687=ORIENTED_EDGE('',*,*,#514,.T.);
#688=ORIENTED_EDGE('',*,*,#511,.F.);
#689=ORIENTED_EDGE('',*,*,#486,.F.);
#690=ORIENTED_EDGE('',*,*,#515,.T.);
#691=ORIENTED_EDGE('',*,*,#516,.T.);
#692=ORIENTED_EDGE('',*,*,#513,.F.);
#693=ORIENTED_EDGE('',*,*,#485,.F.);
#694=ORIENTED_EDGE('',*,*,#517,.T.);
#695=ORIENTED_EDGE('',*,*,#518,.T.);
#696=ORIENTED_EDGE('',*,*,#515,.F.);
#697=ORIENTED_EDGE('',*,*,#484,.F.);
#698=ORIENTED_EDGE('',*,*,#519,.T.);
#699=ORIENTED_EDGE('',*,*,#520,.T.);
#700=ORIENTED_EDGE('',*,*,#517,.F.);
#701=ORIENTED_EDGE('',*,*,#483,.F.);
#702=ORIENTED_EDGE('',*,*,#508,.T.);
#703=ORIENTED_EDGE('',*,*,#521,.T.);
#704=ORIENTED_EDGE('',*,*,#519,.F.);
#705=ORIENTED_EDGE('',*,*,#521,.F.);
#706=ORIENTED_EDGE('',*,*,#507,.F.);
#707=ORIENTED_EDGE('',*,*,#510,.F.);
#708=ORIENTED_EDGE('',*,*,#512,.F.);
#709=ORIENTED_EDGE('',*,*,#514,.F.);
#710=ORIENTED_EDGE('',*,*,#516,.F.);
#711=ORIENTED_EDGE('',*,*,#518,.F.);
#712=ORIENTED_EDGE('',*,*,#520,.F.);
#713=ORIENTED_EDGE('',*,*,#456,.F.);
#714=ORIENTED_EDGE('',*,*,#479,.T.);
#715=ORIENTED_EDGE('',*,*,#492,.F.);
#716=ORIENTED_EDGE('',*,*,#522,.F.);
#717=ORIENTED_EDGE('',*,*,#470,.F.);
#718=ORIENTED_EDGE('',*,*,#467,.T.);
#719=ORIENTED_EDGE('',*,*,#464,.F.);
#720=ORIENTED_EDGE('',*,*,#458,.T.);
#721=ORIENTED_EDGE('',*,*,#462,.F.);
#722=ORIENTED_EDGE('',*,*,#451,.T.);
#723=ORIENTED_EDGE('',*,*,#457,.F.);
#724=ORIENTED_EDGE('',*,*,#522,.T.);
#725=ORIENTED_EDGE('',*,*,#491,.F.);
#726=ORIENTED_EDGE('',*,*,#494,.F.);
#727=ORIENTED_EDGE('',*,*,#495,.F.);
#728=ORIENTED_EDGE('',*,*,#498,.T.);
#729=ORIENTED_EDGE('',*,*,#500,.F.);
#730=ORIENTED_EDGE('',*,*,#501,.F.);
#731=TOROIDAL_SURFACE('',#796,35.,8.);
#732=ADVANCED_FACE('',(#189),#731,.F.);
#733=ADVANCED_FACE('',(#190),#166,.F.);
#734=ADVANCED_FACE('',(#191),#28,.T.);
#735=ADVANCED_FACE('',(#192),#167,.F.);
#736=ADVANCED_FACE('',(#193),#29,.T.);
#737=ADVANCED_FACE('',(#194),#168,.F.);
#738=ADVANCED_FACE('',(#195),#30,.T.);
#739=ADVANCED_FACE('',(#196),#169,.F.);
#740=ADVANCED_FACE('',(#197),#31,.T.);
#741=ADVANCED_FACE('',(#198),#170,.F.);
#742=ADVANCED_FACE('',(#199),#32,.T.);
#743=ADVANCED_FACE('',(#200),#171,.F.);
#744=ADVANCED_FACE('',(#201),#33,.T.);
#745=ADVANCED_FACE('',(#202),#172,.F.);
#746=ADVANCED_FACE('',(#203),#34,.T.);
#747=ADVANCED_FACE('',(#204),#173,.F.);
#748=ADVANCED_FACE('',(#205),#35,.T.);
#749=ADVANCED_FACE('',(#206),#174,.F.);
#750=ADVANCED_FACE('',(#207),#36,.T.);
#751=ADVANCED_FACE('',(#208),#175,.F.);
#752=ADVANCED_FACE('',(#209),#37,.T.);
#753=ADVANCED_FACE('',(#210),#176,.F.);
#754=ADVANCED_FACE('',(#211),#177,.F.);
#755=ADVANCED_FACE('',(#212),#178,.F.);
#756=ADVANCED_FACE('',(#213),#179,.T.);
#757=ADVANCED_FACE('',(#214),#180,.F.);
#758=ADVANCED_FACE('',(#215),#38,.T.);
#759=ADVANCED_FACE('',(#216),#181,.T.);
#760=ADVANCED_FACE('',(#217,#15,#16,#17,#18,#19,#20,#21,#22,#23,#24,#25,
#26,#27),#39,.T.);
#761=ADVANCED_FACE('',(#218),#182,.T.);
#762=ADVANCED_FACE('',(#219),#40,.T.);
#763=ADVANCED_FACE('',(#220),#183,.T.);
#764=ADVANCED_FACE('',(#221),#41,.T.);
#765=ADVANCED_FACE('',(#222),#184,.T.);
#766=ADVANCED_FACE('',(#223),#42,.T.);
#767=ADVANCED_FACE('',(#224),#185,.F.);
#768=ADVANCED_FACE('',(#225),#43,.T.);
#769=ADVANCED_FACE('',(#226),#186,.F.);
#770=ADVANCED_FACE('',(#227),#44,.T.);
#771=ADVANCED_FACE('',(#228),#45,.F.);
#772=ADVANCED_FACE('',(#229),#46,.F.);
#773=ADVANCED_FACE('',(#230),#47,.F.);
#774=ADVANCED_FACE('',(#231),#187,.F.);
#775=ADVANCED_FACE('',(#232),#48,.F.);
#776=ADVANCED_FACE('',(#233),#188,.F.);
#777=ADVANCED_FACE('',(#234),#49,.F.);
#778=ADVANCED_FACE('',(#235),#50,.F.);
#779=ADVANCED_FACE('',(#236),#51,.T.);
#780=ADVANCED_FACE('',(#237),#52,.T.);
#781=ADVANCED_FACE('',(#238),#53,.F.);
#782=CLOSED_SHELL('',(#732,#733,#734,#735,#736,#737,#738,#739,#740,#741,
#742,#743,#744,#745,#746,#747,#748,#749,#750,#751,#752,#753,#754,#755,#756,
#757,#758,#759,#760,#761,#762,#763,#764,#765,#766,#767,#768,#769,#770,#771,
#772,#773,#774,#775,#776,#777,#778,#779,#780,#781));
#783=DERIVED_UNIT_ELEMENT(#785,1.);
#784=DERIVED_UNIT_ELEMENT(#1377,-3.);
#785=(
MASS_UNIT()
NAMED_UNIT(*)
SI_UNIT(.KILO.,.GRAM.)
);
#786=DERIVED_UNIT((#783,#784));
#787=MEASURE_REPRESENTATION_ITEM('density measure',
POSITIVE_RATIO_MEASURE(7850.),#786);
#788=PROPERTY_DEFINITION_REPRESENTATION(#793,#790);
#789=PROPERTY_DEFINITION_REPRESENTATION(#794,#791);
#790=REPRESENTATION('material name',(#792),#1374);
#791=REPRESENTATION('density',(#787),#1374);
#792=DESCRIPTIVE_REPRESENTATION_ITEM('Steel','Steel');
#793=PROPERTY_DEFINITION('material property','material name',#1384);
#794=PROPERTY_DEFINITION('material property','density of part',#1384);
#795=AXIS2_PLACEMENT_3D('',#1148,#894,#895);
#796=AXIS2_PLACEMENT_3D('',#1149,#896,#897);
#797=AXIS2_PLACEMENT_3D('',#1151,#898,#899);
#798=AXIS2_PLACEMENT_3D('',#1153,#900,#901);
#799=AXIS2_PLACEMENT_3D('',#1154,#902,#903);
#800=AXIS2_PLACEMENT_3D('',#1155,#904,#905);
#801=AXIS2_PLACEMENT_3D('',#1157,#906,#907);
#802=AXIS2_PLACEMENT_3D('',#1159,#909,#910);
#803=AXIS2_PLACEMENT_3D('',#1160,#911,#912);
#804=AXIS2_PLACEMENT_3D('',#1162,#913,#914);
#805=AXIS2_PLACEMENT_3D('',#1165,#916,#917);
#806=AXIS2_PLACEMENT_3D('',#1166,#918,#919);
#807=AXIS2_PLACEMENT_3D('',#1167,#920,#921);
#808=AXIS2_PLACEMENT_3D('',#1169,#922,#923);
#809=AXIS2_PLACEMENT_3D('',#1172,#925,#926);
#810=AXIS2_PLACEMENT_3D('',#1173,#927,#928);
#811=AXIS2_PLACEMENT_3D('',#1174,#929,#930);
#812=AXIS2_PLACEMENT_3D('',#1176,#931,#932);
#813=AXIS2_PLACEMENT_3D('',#1179,#934,#935);
#814=AXIS2_PLACEMENT_3D('',#1180,#936,#937);
#815=AXIS2_PLACEMENT_3D('',#1181,#938,#939);
#816=AXIS2_PLACEMENT_3D('',#1183,#940,#941);
#817=AXIS2_PLACEMENT_3D('',#1186,#943,#944);
#818=AXIS2_PLACEMENT_3D('',#1187,#945,#946);
#819=AXIS2_PLACEMENT_3D('',#1188,#947,#948);
#820=AXIS2_PLACEMENT_3D('',#1190,#949,#950);
#821=AXIS2_PLACEMENT_3D('',#1193,#952,#953);
#822=AXIS2_PLACEMENT_3D('',#1194,#954,#955);
#823=AXIS2_PLACEMENT_3D('',#1195,#956,#957);
#824=AXIS2_PLACEMENT_3D('',#1197,#958,#959);
#825=AXIS2_PLACEMENT_3D('',#1200,#961,#962);
#826=AXIS2_PLACEMENT_3D('',#1201,#963,#964);
#827=AXIS2_PLACEMENT_3D('',#1202,#965,#966);
#828=AXIS2_PLACEMENT_3D('',#1204,#967,#968);
#829=AXIS2_PLACEMENT_3D('',#1207,#970,#971);
#830=AXIS2_PLACEMENT_3D('',#1208,#972,#973);
#831=AXIS2_PLACEMENT_3D('',#1209,#974,#975);
#832=AXIS2_PLACEMENT_3D('',#1211,#976,#977);
#833=AXIS2_PLACEMENT_3D('',#1214,#979,#980);
#834=AXIS2_PLACEMENT_3D('',#1215,#981,#982);
#835=AXIS2_PLACEMENT_3D('',#1216,#983,#984);
#836=AXIS2_PLACEMENT_3D('',#1218,#985,#986);
#837=AXIS2_PLACEMENT_3D('',#1221,#988,#989);
#838=AXIS2_PLACEMENT_3D('',#1222,#990,#991);
#839=AXIS2_PLACEMENT_3D('',#1223,#992,#993);
#840=AXIS2_PLACEMENT_3D('',#1226,#994,#995);
#841=AXIS2_PLACEMENT_3D('',#1230,#997,#998);
#842=AXIS2_PLACEMENT_3D('',#1232,#1000,#1001);
#843=AXIS2_PLACEMENT_3D('',#1234,#1002,#1003);
#844=AXIS2_PLACEMENT_3D('',#1237,#1005,#1006);
#845=AXIS2_PLACEMENT_3D('',#1238,#1007,#1008);
#846=AXIS2_PLACEMENT_3D('',#1241,#1009,#1010);
#847=AXIS2_PLACEMENT_3D('',#1245,#1012,#1013);
#848=AXIS2_PLACEMENT_3D('',#1247,#1015,#1016);
#849=AXIS2_PLACEMENT_3D('',#1248,#1017,#1018);
#850=AXIS2_PLACEMENT_3D('',#1249,#1019,#1020);
#851=AXIS2_PLACEMENT_3D('',#1250,#1021,#1022);
#852=AXIS2_PLACEMENT_3D('',#1252,#1023,#1024);
#853=AXIS2_PLACEMENT_3D('',#1255,#1026,#1027);
#854=AXIS2_PLACEMENT_3D('',#1256,#1028,#1029);
#855=AXIS2_PLACEMENT_3D('',#1262,#1033,#1034);
#856=AXIS2_PLACEMENT_3D('',#1264,#1035,#1036);
#857=AXIS2_PLACEMENT_3D('',#1267,#1038,#1039);
#858=AXIS2_PLACEMENT_3D('',#1268,#1040,#1041);
#859=AXIS2_PLACEMENT_3D('',#1272,#1043,#1044);
#860=AXIS2_PLACEMENT_3D('',#1276,#1046,#1047);
#861=AXIS2_PLACEMENT_3D('',#1280,#1049,#1050);
#862=AXIS2_PLACEMENT_3D('',#1283,#1052,#1053);
#863=AXIS2_PLACEMENT_3D('',#1285,#1054,#1055);
#864=AXIS2_PLACEMENT_3D('',#1294,#1059,#1060);
#865=AXIS2_PLACEMENT_3D('',#1298,#1062,#1063);
#866=AXIS2_PLACEMENT_3D('',#1302,#1066,#1067);
#867=AXIS2_PLACEMENT_3D('',#1306,#1069,#1070);
#868=AXIS2_PLACEMENT_3D('',#1308,#1072,#1073);
#869=AXIS2_PLACEMENT_3D('',#1312,#1076,#1077);
#870=AXIS2_PLACEMENT_3D('',#1314,#1078,#1079);
#871=AXIS2_PLACEMENT_3D('',#1316,#1081,#1082);
#872=AXIS2_PLACEMENT_3D('',#1320,#1085,#1086);
#873=AXIS2_PLACEMENT_3D('',#1323,#1088,#1089);
#874=AXIS2_PLACEMENT_3D('',#1324,#1090,#1091);
#875=AXIS2_PLACEMENT_3D('',#1326,#1093,#1094);
#876=AXIS2_PLACEMENT_3D('',#1329,#1096,#1097);
#877=AXIS2_PLACEMENT_3D('',#1330,#1098,#1099);
#878=AXIS2_PLACEMENT_3D('',#1331,#1100,#1101);
#879=AXIS2_PLACEMENT_3D('',#1334,#1103,#1104);
#880=AXIS2_PLACEMENT_3D('',#1335,#1105,#1106);
#881=AXIS2_PLACEMENT_3D('',#1336,#1107,#1108);
#882=AXIS2_PLACEMENT_3D('',#1342,#1112,#1113);
#883=AXIS2_PLACEMENT_3D('',#1346,#1116,#1117);
#884=AXIS2_PLACEMENT_3D('',#1350,#1120,#1121);
#885=AXIS2_PLACEMENT_3D('',#1353,#1123,#1124);
#886=AXIS2_PLACEMENT_3D('',#1354,#1125,#1126);
#887=AXIS2_PLACEMENT_3D('',#1358,#1129,#1130);
#888=AXIS2_PLACEMENT_3D('',#1361,#1132,#1133);
#889=AXIS2_PLACEMENT_3D('',#1362,#1134,#1135);
#890=AXIS2_PLACEMENT_3D('',#1366,#1138,#1139);
#891=AXIS2_PLACEMENT_3D('',#1368,#1141,#1142);
#892=AXIS2_PLACEMENT_3D('',#1369,#1143,#1144);
#893=AXIS2_PLACEMENT_3D('',#1371,#1146,#1147);
#894=DIRECTION('axis',(0.,0.,1.));
#895=DIRECTION('refdir',(1.,0.,0.));
#896=DIRECTION('center_axis',(0.,0.,-1.));
#897=DIRECTION('ref_axis',(-1.,0.,0.));
#898=DIRECTION('center_axis',(0.,0.,-1.));
#899=DIRECTION('ref_axis',(-1.,0.,0.));
#900=DIRECTION('center_axis',(0.,-1.,0.));
#901=DIRECTION('ref_axis',(1.,0.,0.));
#902=DIRECTION('center_axis',(0.,0.,1.));
#903=DIRECTION('ref_axis',(-1.,0.,0.));
#904=DIRECTION('center_axis',(0.,0.,-1.));
#905=DIRECTION('ref_axis',(-1.,0.,0.));
#906=DIRECTION('center_axis',(0.,0.,-1.));
#907=DIRECTION('ref_axis',(-1.,0.,0.));
#908=DIRECTION('',(0.,0.,-1.));
#909=DIRECTION('center_axis',(0.,0.,1.));
#910=DIRECTION('ref_axis',(-1.,0.,0.));
#911=DIRECTION('center_axis',(0.,0.,-1.));
#912=DIRECTION('ref_axis',(-1.,0.,0.));
#913=DIRECTION('center_axis',(0.,0.,-1.));
#914=DIRECTION('ref_axis',(-1.,0.,0.));
#915=DIRECTION('',(0.,0.,-1.));
#916=DIRECTION('center_axis',(0.,0.,-1.));
#917=DIRECTION('ref_axis',(-1.,0.,0.));
#918=DIRECTION('center_axis',(0.,0.,1.));
#919=DIRECTION('ref_axis',(-1.,0.,0.));
#920=DIRECTION('center_axis',(0.,0.,-1.));
#921=DIRECTION('ref_axis',(-1.,0.,0.));
#922=DIRECTION('center_axis',(0.,0.,-1.));
#923=DIRECTION('ref_axis',(-1.,0.,0.));
#924=DIRECTION('',(0.,0.,-1.));
#925=DIRECTION('center_axis',(0.,0.,-1.));
#926=DIRECTION('ref_axis',(-1.,0.,0.));
#927=DIRECTION('center_axis',(0.,0.,1.));
#928=DIRECTION('ref_axis',(-1.,0.,0.));
#929=DIRECTION('center_axis',(0.,0.,-1.));
#930=DIRECTION('ref_axis',(-1.,0.,0.));
#931=DIRECTION('center_axis',(0.,0.,-1.));
#932=DIRECTION('ref_axis',(-1.,0.,0.));
#933=DIRECTION('',(0.,0.,-1.));
#934=DIRECTION('center_axis',(0.,0.,-1.));
#935=DIRECTION('ref_axis',(-1.,0.,0.));
#936=DIRECTION('center_axis',(0.,0.,1.));
#937=DIRECTION('ref_axis',(-1.,0.,0.));
#938=DIRECTION('center_axis',(0.,0.,-1.));
#939=DIRECTION('ref_axis',(-1.,0.,0.));
#940=DIRECTION('center_axis',(0.,0.,-1.));
#941=DIRECTION('ref_axis',(-1.,0.,0.));
#942=DIRECTION('',(0.,0.,-1.));
#943=DIRECTION('center_axis',(0.,0.,-1.));
#944=DIRECTION('ref_axis',(-1.,0.,0.));
#945=DIRECTION('center_axis',(0.,0.,1.));
#946=DIRECTION('ref_axis',(-1.,0.,0.));
#947=DIRECTION('center_axis',(0.,0.,-1.));
#948=DIRECTION('ref_axis',(-1.,0.,0.));
#949=DIRECTION('center_axis',(0.,0.,-1.));
#950=DIRECTION('ref_axis',(-1.,0.,0.));
#951=DIRECTION('',(0.,0.,-1.));
#952=DIRECTION('center_axis',(0.,0.,-1.));
#953=DIRECTION('ref_axis',(-1.,0.,0.));
#954=DIRECTION('center_axis',(0.,0.,1.));
#955=DIRECTION('ref_axis',(-1.,0.,0.));
#956=DIRECTION('center_axis',(0.,0.,-1.));
#957=DIRECTION('ref_axis',(-1.,0.,0.));
#958=DIRECTION('center_axis',(0.,0.,-1.));
#959=DIRECTION('ref_axis',(-1.,0.,0.));
#960=DIRECTION('',(0.,0.,-1.));
#961=DIRECTION('center_axis',(0.,0.,-1.));
#962=DIRECTION('ref_axis',(-1.,0.,0.));
#963=DIRECTION('center_axis',(0.,0.,1.));
#964=DIRECTION('ref_axis',(-1.,0.,0.));
#965=DIRECTION('center_axis',(0.,0.,-1.));
#966=DIRECTION('ref_axis',(-1.,0.,0.));
#967=DIRECTION('center_axis',(0.,0.,-1.));
#968=DIRECTION('ref_axis',(-1.,0.,0.));
#969=DIRECTION('',(0.,0.,-1.));
#970=DIRECTION('center_axis',(0.,0.,-1.));
#971=DIRECTION('ref_axis',(-1.,0.,0.));
#972=DIRECTION('center_axis',(0.,0.,1.));
#973=DIRECTION('ref_axis',(-1.,0.,0.));
#974=DIRECTION('center_axis',(0.,0.,-1.));
#975=DIRECTION('ref_axis',(-1.,0.,0.));
#976=DIRECTION('center_axis',(0.,0.,-1.));
#977=DIRECTION('ref_axis',(-1.,0.,0.));
#978=DIRECTION('',(0.,0.,-1.));
#979=DIRECTION('center_axis',(0.,0.,-1.));
#980=DIRECTION('ref_axis',(-1.,0.,0.));
#981=DIRECTION('center_axis',(0.,0.,1.));
#982=DIRECTION('ref_axis',(-1.,0.,0.));
#983=DIRECTION('center_axis',(0.,0.,-1.));
#984=DIRECTION('ref_axis',(-1.,0.,0.));
#985=DIRECTION('center_axis',(0.,0.,-1.));
#986=DIRECTION('ref_axis',(-1.,0.,0.));
#987=DIRECTION('',(0.,0.,-1.));
#988=DIRECTION('center_axis',(0.,0.,-1.));
#989=DIRECTION('ref_axis',(-1.,0.,0.));
#990=DIRECTION('center_axis',(0.,0.,1.));
#991=DIRECTION('ref_axis',(-1.,0.,0.));
#992=DIRECTION('center_axis',(0.,0.,-1.));
#993=DIRECTION('ref_axis',(-0.995913697629752,-0.0903100596469417,0.));
#994=DIRECTION('center_axis',(0.,0.,-1.));
#995=DIRECTION('ref_axis',(-0.995913697629752,-0.0903100596469417,0.));
#996=DIRECTION('',(0.,0.,1.));
#997=DIRECTION('center_axis',(0.,0.,1.));
#998=DIRECTION('ref_axis',(-0.995913697629752,-0.0903100596469417,0.));
#999=DIRECTION('',(0.,0.,-1.));
#1000=DIRECTION('center_axis',(0.,0.,1.));
#1001=DIRECTION('ref_axis',(0.707106781186547,0.707106781186547,0.));
#1002=DIRECTION('center_axis',(0.,0.,1.));
#1003=DIRECTION('ref_axis',(0.707106781186547,0.707106781186547,0.));
#1004=DIRECTION('',(0.,0.,-1.));
#1005=DIRECTION('center_axis',(0.,0.,-1.));
#1006=DIRECTION('ref_axis',(0.707106781186547,0.707106781186547,0.));
#1007=DIRECTION('center_axis',(0.,0.,-1.));
#1008=DIRECTION('ref_axis',(0.541117583684272,0.840946942813692,0.));
#1009=DIRECTION('center_axis',(0.,0.,-1.));
#1010=DIRECTION('ref_axis',(0.541117583684272,0.840946942813692,0.));
#1011=DIRECTION('',(0.,0.,1.));
#1012=DIRECTION('center_axis',(0.,0.,1.));
#1013=DIRECTION('ref_axis',(0.541117583684272,0.840946942813692,0.));
#1014=DIRECTION('',(0.,0.,-1.));
#1015=DIRECTION('center_axis',(0.,0.,1.));
#1016=DIRECTION('ref_axis',(-1.83697019872103E-16,-1.,0.));
#1017=DIRECTION('center_axis',(0.,0.,1.));
#1018=DIRECTION('ref_axis',(1.,0.,0.));
#1019=DIRECTION('center_axis',(0.,0.,1.));
#1020=DIRECTION('ref_axis',(1.,0.,0.));
#1021=DIRECTION('center_axis',(0.,0.,1.));
#1022=DIRECTION('ref_axis',(-0.707106781186547,0.707106781186547,0.));
#1023=DIRECTION('center_axis',(0.,0.,-1.));
#1024=DIRECTION('ref_axis',(-0.707106781186547,0.707106781186547,0.));
#1025=DIRECTION('',(0.,0.,1.));
#1026=DIRECTION('center_axis',(0.,0.,1.));
#1027=DIRECTION('ref_axis',(-0.707106781186547,0.707106781186547,0.));
#1028=DIRECTION('center_axis',(1.0449157878825E-16,-1.,0.));
#1029=DIRECTION('ref_axis',(1.,1.0449157878825E-16,0.));
#1030=DIRECTION('',(-1.,-1.0449157878825E-16,0.));
#1031=DIRECTION('',(0.,0.,-1.));
#1032=DIRECTION('',(1.,1.0449157878825E-16,0.));
#1033=DIRECTION('center_axis',(0.,0.,-1.));
#1034=DIRECTION('ref_axis',(0.707106781186547,-0.707106781186547,0.));
#1035=DIRECTION('center_axis',(0.,0.,1.));
#1036=DIRECTION('ref_axis',(0.707106781186547,-0.707106781186547,0.));
#1037=DIRECTION('',(0.,0.,1.));
#1038=DIRECTION('center_axis',(0.,0.,-1.));
#1039=DIRECTION('ref_axis',(0.707106781186547,-0.707106781186547,0.));
#1040=DIRECTION('center_axis',(0.,0.,1.));
#1041=DIRECTION('ref_axis',(1.,0.,0.));
#1042=DIRECTION('',(-8.22387425648264E-17,-1.,0.));
#1043=DIRECTION('center_axis',(0.,0.,-1.));
#1044=DIRECTION('ref_axis',(0.707106781186547,0.707106781186547,0.));
#1045=DIRECTION('',(1.,0.,0.));
#1046=DIRECTION('center_axis',(0.,0.,-1.));
#1047=DIRECTION('ref_axis',(-0.707106781186547,0.707106781186547,0.));
#1048=DIRECTION('',(-8.22387425648264E-17,1.,0.));
#1049=DIRECTION('center_axis',(0.,0.,-1.));
#1050=DIRECTION('ref_axis',(-0.707106781186547,-0.707106781186547,0.));
#1051=DIRECTION('',(-1.,0.,0.));
#1052=DIRECTION('center_axis',(0.,0.,-1.));
#1053=DIRECTION('ref_axis',(-1.,0.,0.));
#1054=DIRECTION('center_axis',(0.,0.,-1.));
#1055=DIRECTION('ref_axis',(-1.,0.,0.));
#1056=DIRECTION('',(-1.,0.,0.));
#1057=DIRECTION('',(-9.15647855360954E-17,1.,0.));
#1058=DIRECTION('',(1.,-1.05735526154777E-16,0.));
#1059=DIRECTION('center_axis',(0.,0.,-1.));
#1060=DIRECTION('ref_axis',(-1.,0.,0.));
#1061=DIRECTION('',(1.,-1.05735526154777E-16,0.));
#1062=DIRECTION('center_axis',(0.,0.,-1.));
#1063=DIRECTION('ref_axis',(-1.,0.,0.));
#1064=DIRECTION('',(1.,-1.05735526154777E-16,0.));
#1065=DIRECTION('',(-9.15647855360954E-17,-1.,0.));
#1066=DIRECTION('center_axis',(0.,0.,1.));
#1067=DIRECTION('ref_axis',(-0.707106781186547,-0.707106781186547,0.));
#1068=DIRECTION('',(0.,0.,-1.));
#1069=DIRECTION('center_axis',(0.,0.,1.));
#1070=DIRECTION('ref_axis',(-0.707106781186547,-0.707106781186547,0.));
#1071=DIRECTION('',(0.,0.,1.));
#1072=DIRECTION('center_axis',(-1.,0.,0.));
#1073=DIRECTION('ref_axis',(0.,0.,1.));
#1074=DIRECTION('',(0.,0.,1.));
#1075=DIRECTION('',(8.22387425648264E-17,-1.,0.));
#1076=DIRECTION('center_axis',(0.,0.,-1.));
#1077=DIRECTION('ref_axis',(-0.707106781186547,0.707106781186547,0.));
#1078=DIRECTION('center_axis',(0.,0.,1.));
#1079=DIRECTION('ref_axis',(-0.707106781186547,0.707106781186547,0.));
#1080=DIRECTION('',(0.,0.,-1.));
#1081=DIRECTION('center_axis',(0.,1.,0.));
#1082=DIRECTION('ref_axis',(-1.,0.,0.));
#1083=DIRECTION('',(0.,0.,1.));
#1084=DIRECTION('',(1.,0.,0.));
#1085=DIRECTION('center_axis',(0.,0.,1.));
#1086=DIRECTION('ref_axis',(0.707106781186547,0.707106781186547,0.));
#1087=DIRECTION('',(0.,0.,-1.));
#1088=DIRECTION('center_axis',(0.,0.,1.));
#1089=DIRECTION('ref_axis',(0.707106781186547,0.707106781186547,0.));
#1090=DIRECTION('center_axis',(1.,0.,0.));
#1091=DIRECTION('ref_axis',(0.,0.,-1.));
#1092=DIRECTION('',(8.22387425648264E-17,1.,0.));
#1093=DIRECTION('center_axis',(0.,0.,-1.));
#1094=DIRECTION('ref_axis',(-1.,0.,0.));
#1095=DIRECTION('',(0.,0.,-1.));
#1096=DIRECTION('center_axis',(0.,0.,-1.));
#1097=DIRECTION('ref_axis',(-1.,0.,0.));
#1098=DIRECTION('center_axis',(0.,0.,1.));
#1099=DIRECTION('ref_axis',(-1.,0.,0.));
#1100=DIRECTION('center_axis',(0.,0.,-1.));
#1101=DIRECTION('ref_axis',(-1.,0.,0.));
#1102=DIRECTION('',(0.,0.,-1.));
#1103=DIRECTION('center_axis',(0.,0.,-1.));
#1104=DIRECTION('ref_axis',(-1.,0.,0.));
#1105=DIRECTION('center_axis',(0.,0.,1.));
#1106=DIRECTION('ref_axis',(-1.,0.,0.));
#1107=DIRECTION('center_axis',(0.,-1.,0.));
#1108=DIRECTION('ref_axis',(-1.,0.,0.));
#1109=DIRECTION('',(0.,0.,-1.));
#1110=DIRECTION('',(-1.,0.,0.));
#1111=DIRECTION('',(0.,0.,-1.));
#1112=DIRECTION('center_axis',(1.,-9.15647855360954E-17,0.));
#1113=DIRECTION('ref_axis',(-9.15647855360954E-17,-1.,0.));
#1114=DIRECTION('',(0.,0.,-1.));
#1115=DIRECTION('',(-9.15647855360954E-17,-1.,0.));
#1116=DIRECTION('center_axis',(1.05735526154777E-16,1.,0.));
#1117=DIRECTION('ref_axis',(1.,-1.05735526154777E-16,0.));
#1118=DIRECTION('',(0.,0.,-1.));
#1119=DIRECTION('',(1.,-1.05735526154777E-16,0.));
#1120=DIRECTION('center_axis',(0.,0.,-1.));
#1121=DIRECTION('ref_axis',(-7.27366154732462E-16,1.,0.));
#1122=DIRECTION('',(0.,0.,-1.));
#1123=DIRECTION('center_axis',(0.,0.,-1.));
#1124=DIRECTION('ref_axis',(-1.,0.,0.));
#1125=DIRECTION('center_axis',(1.05735526154777E-16,1.,0.));
#1126=DIRECTION('ref_axis',(1.,-1.05735526154777E-16,0.));
#1127=DIRECTION('',(0.,0.,-1.));
#1128=DIRECTION('',(1.,-1.05735526154777E-16,0.));
#1129=DIRECTION('center_axis',(0.,0.,-1.));
#1130=DIRECTION('ref_axis',(6.04901474817726E-16,1.,0.));
#1131=DIRECTION('',(0.,0.,-1.));
#1132=DIRECTION('center_axis',(0.,0.,-1.));
#1133=DIRECTION('ref_axis',(-1.,0.,0.));
#1134=DIRECTION('center_axis',(1.05735526154777E-16,1.,0.));
#1135=DIRECTION('ref_axis',(1.,-1.05735526154777E-16,0.));
#1136=DIRECTION('',(0.,0.,-1.));
#1137=DIRECTION('',(1.,-1.05735526154777E-16,0.));
#1138=DIRECTION('center_axis',(-1.,-9.15647855360954E-17,0.));
#1139=DIRECTION('ref_axis',(-9.15647855360954E-17,1.,0.));
#1140=DIRECTION('',(-9.15647855360954E-17,1.,0.));
#1141=DIRECTION('center_axis',(0.,0.,1.));
#1142=DIRECTION('ref_axis',(-1.,0.,0.));
#1143=DIRECTION('center_axis',(1.0449157878825E-16,-1.,0.));
#1144=DIRECTION('ref_axis',(1.,1.0449157878825E-16,0.));
#1145=DIRECTION('',(-1.,0.,0.));
#1146=DIRECTION('center_axis',(0.,0.,1.));
#1147=DIRECTION('ref_axis',(1.,0.,0.));
#1148=CARTESIAN_POINT('',(0.,0.,0.));
#1149=CARTESIAN_POINT('Origin',(-6.74273035933405E-15,-110.117143392341,
13.));
#1150=CARTESIAN_POINT('',(35.,-110.117143392341,5.));
#1151=CARTESIAN_POINT('Origin',(-6.74273035933405E-15,-110.117143392341,
5.));
#1152=CARTESIAN_POINT('',(43.,-110.117143392341,13.));
#1153=CARTESIAN_POINT('Origin',(35.,-110.117143392341,13.));
#1154=CARTESIAN_POINT('Origin',(-6.74273035933405E-15,-110.117143392341,
13.));
#1155=CARTESIAN_POINT('Origin',(-6.74273035933405E-15,-110.117143392341,
25.));
#1156=CARTESIAN_POINT('',(43.,-110.117143392341,25.));
#1157=CARTESIAN_POINT('Origin',(-6.74273035933405E-15,-110.117143392341,
25.));
#1158=CARTESIAN_POINT('',(43.,-110.117143392341,25.));
#1159=CARTESIAN_POINT('Origin',(-8.88178419700125E-15,-110.117143392341,
5.));
#1160=CARTESIAN_POINT('Origin',(39.9282230189953,-132.958706529425,25.));
#1161=CARTESIAN_POINT('',(42.4282230189953,-132.958706529425,25.));
#1162=CARTESIAN_POINT('Origin',(39.9282230189953,-132.958706529425,25.));
#1163=CARTESIAN_POINT('',(42.4282230189953,-132.958706529425,5.));
#1164=CARTESIAN_POINT('',(42.4282230189953,-132.958706529425,25.));
#1165=CARTESIAN_POINT('Origin',(39.9282230189953,-132.958706529425,5.));
#1166=CARTESIAN_POINT('Origin',(39.9282230189953,-132.958706529425,5.));
#1167=CARTESIAN_POINT('Origin',(-10.,-65.2172547510541,25.));
#1168=CARTESIAN_POINT('',(-8.35000000000001,-65.2172547510541,25.));
#1169=CARTESIAN_POINT('Origin',(-10.,-65.2172547510541,25.));
#1170=CARTESIAN_POINT('',(-8.35000000000001,-65.2172547510541,5.));
#1171=CARTESIAN_POINT('',(-8.35000000000001,-65.2172547510541,25.));
#1172=CARTESIAN_POINT('Origin',(-10.,-65.2172547510541,5.));
#1173=CARTESIAN_POINT('Origin',(-10.,-65.2172547510541,5.));
#1174=CARTESIAN_POINT('Origin',(-39.7480419150722,-133.270829144672,25.));
#1175=CARTESIAN_POINT('',(-37.2480419150722,-133.270829144672,25.));
#1176=CARTESIAN_POINT('Origin',(-39.7480419150722,-133.270829144672,25.));
#1177=CARTESIAN_POINT('',(-37.2480419150722,-133.270829144672,5.));
#1178=CARTESIAN_POINT('',(-37.2480419150722,-133.270829144672,25.));
#1179=CARTESIAN_POINT('Origin',(-39.7480419150722,-133.270829144672,5.));
#1180=CARTESIAN_POINT('Origin',(-39.7480419150722,-133.270829144672,5.));
#1181=CARTESIAN_POINT('Origin',(35.9147171457924,-142.090746578545,25.));
#1182=CARTESIAN_POINT('',(37.5647171457924,-142.090746578545,25.));
#1183=CARTESIAN_POINT('Origin',(35.9147171457924,-142.090746578545,25.));
#1184=CARTESIAN_POINT('',(37.5647171457924,-142.090746578545,5.));
#1185=CARTESIAN_POINT('',(37.5647171457924,-142.090746578545,25.));
#1186=CARTESIAN_POINT('Origin',(35.9147171457924,-142.090746578545,5.));
#1187=CARTESIAN_POINT('Origin',(35.9147171457924,-142.090746578545,5.));
#1188=CARTESIAN_POINT('Origin',(-45.5731837220473,-125.004565587165,25.));
#1189=CARTESIAN_POINT('',(-43.9231837220473,-125.004565587165,25.));
#1190=CARTESIAN_POINT('Origin',(-45.5731837220473,-125.004565587165,25.));
#1191=CARTESIAN_POINT('',(-43.9231837220473,-125.004565587165,5.));
#1192=CARTESIAN_POINT('',(-43.9231837220473,-125.004565587165,25.));
#1193=CARTESIAN_POINT('Origin',(-45.5731837220473,-125.004565587165,5.));
#1194=CARTESIAN_POINT('Origin',(-45.5731837220473,-125.004565587165,5.));
#1195=CARTESIAN_POINT('Origin',(0.0538470914172286,-64.1171749087571,25.));
#1196=CARTESIAN_POINT('',(2.55384709141723,-64.1171749087571,25.));
#1197=CARTESIAN_POINT('Origin',(0.0538470914172286,-64.1171749087571,25.));
#1198=CARTESIAN_POINT('',(2.55384709141723,-64.1171749087571,5.));
#1199=CARTESIAN_POINT('',(2.55384709141723,-64.1171749087571,25.));
#1200=CARTESIAN_POINT('Origin',(0.0538470914172286,-64.1171749087571,5.));
#1201=CARTESIAN_POINT('Origin',(0.0538470914172287,-64.1171749087571,5.));
#1202=CARTESIAN_POINT('Origin',(9.99999999999999,-65.2172547510541,25.));
#1203=CARTESIAN_POINT('',(11.65,-65.2172547510541,25.));
#1204=CARTESIAN_POINT('Origin',(9.99999999999999,-65.2172547510541,25.));
#1205=CARTESIAN_POINT('',(11.65,-65.2172547510541,5.));
#1206=CARTESIAN_POINT('',(11.65,-65.2172547510541,25.));
#1207=CARTESIAN_POINT('Origin',(9.99999999999999,-65.2172547510541,5.));
#1208=CARTESIAN_POINT('Origin',(9.99999999999999,-65.2172547510541,5.));
#1209=CARTESIAN_POINT('Origin',(-35.5618978301452,-142.318582990599,25.));
#1210=CARTESIAN_POINT('',(-33.9118978301452,-142.318582990599,25.));
#1211=CARTESIAN_POINT('Origin',(-35.5618978301452,-142.318582990599,25.));
#1212=CARTESIAN_POINT('',(-33.9118978301452,-142.318582990599,5.));
#1213=CARTESIAN_POINT('',(-33.9118978301452,-142.318582990599,25.));
#1214=CARTESIAN_POINT('Origin',(-35.5618978301452,-142.318582990599,5.));
#1215=CARTESIAN_POINT('Origin',(-35.5618978301452,-142.318582990599,5.));
#1216=CARTESIAN_POINT('Origin',(45.8154134982345,-124.713283805225,25.));
#1217=CARTESIAN_POINT('',(47.4654134982345,-124.713283805225,25.));
#1218=CARTESIAN_POINT('Origin',(45.8154134982345,-124.713283805225,25.));
#1219=CARTESIAN_POINT('',(47.4654134982345,-124.713283805225,5.));
#1220=CARTESIAN_POINT('',(47.4654134982345,-124.713283805225,25.));
#1221=CARTESIAN_POINT('Origin',(45.8154134982345,-124.713283805225,5.));
#1222=CARTESIAN_POINT('Origin',(45.8154134982345,-124.713283805225,5.));
#1223=CARTESIAN_POINT('Origin',(-33.0081726047405,-58.8193798807061,0.));
#1224=CARTESIAN_POINT('',(-31.3848198536877,-61.3422207091472,0.));
#1225=CARTESIAN_POINT('',(-30.0204315118513,-58.5484497017653,0.));
#1226=CARTESIAN_POINT('Origin',(-33.0081726047405,-58.8193798807061,0.));
#1227=CARTESIAN_POINT('',(-31.3848198536877,-61.3422207091472,25.));
#1228=CARTESIAN_POINT('',(-31.3848198536877,-61.3422207091472,0.));
#1229=CARTESIAN_POINT('',(-30.0204315118513,-58.5484497017653,25.));
#1230=CARTESIAN_POINT('Origin',(-33.0081726047405,-58.8193798807061,25.));
#1231=CARTESIAN_POINT('',(-30.0204315118513,-58.5484497017653,0.));
#1232=CARTESIAN_POINT('Origin',(-35.,-59.,0.));
#1233=CARTESIAN_POINT('',(-35.,-54.,25.));
#1234=CARTESIAN_POINT('Origin',(-35.,-59.,25.));
#1235=CARTESIAN_POINT('',(-35.,-54.,0.));
#1236=CARTESIAN_POINT('',(-35.,-54.,0.));
#1237=CARTESIAN_POINT('Origin',(-35.,-59.,0.));
#1238=CARTESIAN_POINT('Origin',(33.0081726047405,-58.8193798807061,0.));
#1239=CARTESIAN_POINT('',(30.0204315118512,-58.5484497017654,0.));
#1240=CARTESIAN_POINT('',(31.3848198536877,-61.3422207091472,0.));
#1241=CARTESIAN_POINT('Origin',(33.0081726047405,-58.8193798807061,0.));
#1242=CARTESIAN_POINT('',(30.0204315118512,-58.5484497017654,25.));
#1243=CARTESIAN_POINT('',(30.0204315118513,-58.5484497017654,0.));
#1244=CARTESIAN_POINT('',(31.3848198536877,-61.3422207091472,25.));
#1245=CARTESIAN_POINT('Origin',(33.0081726047405,-58.8193798807061,25.));
#1246=CARTESIAN_POINT('',(31.3848198536877,-61.3422207091472,0.));
#1247=CARTESIAN_POINT('Origin',(-6.74273035933405E-15,-110.117143392341,
0.));
#1248=CARTESIAN_POINT('Origin',(-6.74273035933405E-15,-110.117143392341,
0.));
#1249=CARTESIAN_POINT('Origin',(-6.74273035933405E-15,-110.117143392341,
25.));
#1250=CARTESIAN_POINT('Origin',(35.,-59.,0.));
#1251=CARTESIAN_POINT('',(35.,-54.,0.));
#1252=CARTESIAN_POINT('Origin',(35.,-59.,0.));
#1253=CARTESIAN_POINT('',(35.,-54.,25.));
#1254=CARTESIAN_POINT('',(35.,-54.,0.));
#1255=CARTESIAN_POINT('Origin',(35.,-59.,25.));
#1256=CARTESIAN_POINT('Origin',(30.,-54.,0.));
#1257=CARTESIAN_POINT('',(39.5,-54.,0.));
#1258=CARTESIAN_POINT('',(42.5,-54.,0.));
#1259=CARTESIAN_POINT('',(39.5,-54.,25.));
#1260=CARTESIAN_POINT('',(39.5,-54.,0.));
#1261=CARTESIAN_POINT('',(42.5,-54.,25.));
#1262=CARTESIAN_POINT('Origin',(39.5,-49.,0.));
#1263=CARTESIAN_POINT('',(44.5,-49.,0.));
#1264=CARTESIAN_POINT('Origin',(39.5,-49.,0.));
#1265=CARTESIAN_POINT('',(44.5,-49.,25.));
#1266=CARTESIAN_POINT('',(44.5,-49.,0.));
#1267=CARTESIAN_POINT('Origin',(39.5,-49.,25.));
#1268=CARTESIAN_POINT('Origin',(-8.88178419700125E-15,-57.0585716961707,
25.));
#1269=CARTESIAN_POINT('',(44.5,49.,25.));
#1270=CARTESIAN_POINT('',(44.5,54.,25.));
#1271=CARTESIAN_POINT('',(39.5,54.,25.));
#1272=CARTESIAN_POINT('Origin',(39.5,49.,25.));
#1273=CARTESIAN_POINT('',(-39.5,54.,25.));
#1274=CARTESIAN_POINT('',(42.5,54.,25.));
#1275=CARTESIAN_POINT('',(-44.5,49.,25.));
#1276=CARTESIAN_POINT('Origin',(-39.5,49.,25.));
#1277=CARTESIAN_POINT('',(-44.5,-49.,25.));
#1278=CARTESIAN_POINT('',(-44.5,-54.,25.));
#1279=CARTESIAN_POINT('',(-39.5,-54.,25.));
#1280=CARTESIAN_POINT('Origin',(-39.5,-49.,25.));
#1281=CARTESIAN_POINT('',(-42.5,-54.,25.));
#1282=CARTESIAN_POINT('',(-18.75,-50.5,25.));
#1283=CARTESIAN_POINT('Origin',(-20.,-50.5,25.));
#1284=CARTESIAN_POINT('',(40.25,-50.5,25.));
#1285=CARTESIAN_POINT('Origin',(39.,-50.5,25.));
#1286=CARTESIAN_POINT('',(42.,-48.,25.));
#1287=CARTESIAN_POINT('',(-42.,-48.,25.));
#1288=CARTESIAN_POINT('',(21.,-48.,25.));
#1289=CARTESIAN_POINT('',(-42.,49.,25.));
#1290=CARTESIAN_POINT('',(-42.,-52.5292858480854,25.));
#1291=CARTESIAN_POINT('',(-20.6770509831249,49.,25.));
#1292=CARTESIAN_POINT('',(-21.,49.,25.));
#1293=CARTESIAN_POINT('',(-17.3229490168752,49.,25.));
#1294=CARTESIAN_POINT('Origin',(-19.,50.5,25.));
#1295=CARTESIAN_POINT('',(37.3229490168752,49.,25.));
#1296=CARTESIAN_POINT('',(-8.66147450843758,49.,25.));
#1297=CARTESIAN_POINT('',(40.6770509831248,49.,25.));
#1298=CARTESIAN_POINT('Origin',(39.,50.5,25.));
#1299=CARTESIAN_POINT('',(42.,49.,25.));
#1300=CARTESIAN_POINT('',(20.3385254915624,49.,25.));
#1301=CARTESIAN_POINT('',(42.,-4.02928584808534,25.));
#1302=CARTESIAN_POINT('Origin',(-39.5,-49.,0.));
#1303=CARTESIAN_POINT('',(-44.5,-49.,0.));
#1304=CARTESIAN_POINT('',(-44.5,-49.,0.));
#1305=CARTESIAN_POINT('',(-39.5,-54.,0.));
#1306=CARTESIAN_POINT('Origin',(-39.5,-49.,0.));
#1307=CARTESIAN_POINT('',(-39.5,-54.,0.));
#1308=CARTESIAN_POINT('Origin',(-44.5,54.,0.));
#1309=CARTESIAN_POINT('',(-44.5,49.,0.));
#1310=CARTESIAN_POINT('',(-44.5,49.,0.));
#1311=CARTESIAN_POINT('',(-44.5,-54.,0.));
#1312=CARTESIAN_POINT('Origin',(-39.5,49.,0.));
#1313=CARTESIAN_POINT('',(-39.5,54.,0.));
#1314=CARTESIAN_POINT('Origin',(-39.5,49.,0.));
#1315=CARTESIAN_POINT('',(-39.5,54.,0.));
#1316=CARTESIAN_POINT('Origin',(42.5,54.,0.));
#1317=CARTESIAN_POINT('',(39.5,54.,0.));
#1318=CARTESIAN_POINT('',(39.5,54.,0.));
#1319=CARTESIAN_POINT('',(42.5,54.,0.));
#1320=CARTESIAN_POINT('Origin',(39.5,49.,0.));
#1321=CARTESIAN_POINT('',(44.5,49.,0.));
#1322=CARTESIAN_POINT('',(44.5,49.,0.));
#1323=CARTESIAN_POINT('Origin',(39.5,49.,0.));
#1324=CARTESIAN_POINT('Origin',(44.5,-54.,0.));
#1325=CARTESIAN_POINT('',(44.5,54.,0.));
#1326=CARTESIAN_POINT('Origin',(-20.,-50.5,25.));
#1327=CARTESIAN_POINT('',(-18.75,-50.5,0.999999999999996));
#1328=CARTESIAN_POINT('',(-18.75,-50.5,25.));
#1329=CARTESIAN_POINT('Origin',(-20.,-50.5,0.999999999999996));
#1330=CARTESIAN_POINT('Origin',(-20.,-50.5,0.999999999999996));
#1331=CARTESIAN_POINT('Origin',(39.,-50.5,25.));
#1332=CARTESIAN_POINT('',(40.25,-50.5,0.999999999999996));
#1333=CARTESIAN_POINT('',(40.25,-50.5,25.));
#1334=CARTESIAN_POINT('Origin',(39.,-50.5,0.999999999999996));
#1335=CARTESIAN_POINT('Origin',(39.,-50.5,0.999999999999996));
#1336=CARTESIAN_POINT('Origin',(42.,-48.,25.));
#1337=CARTESIAN_POINT('',(42.,-48.,0.999999999999996));
#1338=CARTESIAN_POINT('',(42.,-48.,25.));
#1339=CARTESIAN_POINT('',(-42.,-48.,0.999999999999996));
#1340=CARTESIAN_POINT('',(-42.,-48.,0.999999999999996));
#1341=CARTESIAN_POINT('',(-42.,-48.,25.));
#1342=CARTESIAN_POINT('Origin',(42.,49.,25.));
#1343=CARTESIAN_POINT('',(42.,49.,0.999999999999996));
#1344=CARTESIAN_POINT('',(42.,49.,25.));
#1345=CARTESIAN_POINT('',(42.,-48.,0.999999999999996));
#1346=CARTESIAN_POINT('Origin',(40.6770509831248,49.,25.));
#1347=CARTESIAN_POINT('',(40.6770509831249,49.,0.999999999999996));
#1348=CARTESIAN_POINT('',(40.6770509831248,49.,25.));
#1349=CARTESIAN_POINT('',(42.,49.,0.999999999999996));
#1350=CARTESIAN_POINT('Origin',(39.,50.5,25.));
#1351=CARTESIAN_POINT('',(37.3229490168752,49.,0.999999999999996));
#1352=CARTESIAN_POINT('',(37.3229490168752,49.,25.));
#1353=CARTESIAN_POINT('Origin',(39.,50.5,0.999999999999996));
#1354=CARTESIAN_POINT('Origin',(-17.3229490168752,49.,25.));
#1355=CARTESIAN_POINT('',(-17.3229490168752,49.,0.999999999999996));
#1356=CARTESIAN_POINT('',(-17.3229490168752,49.,25.));
#1357=CARTESIAN_POINT('',(42.,49.,0.999999999999996));
#1358=CARTESIAN_POINT('Origin',(-19.,50.5,25.));
#1359=CARTESIAN_POINT('',(-20.6770509831249,49.,0.999999999999996));
#1360=CARTESIAN_POINT('',(-20.6770509831249,49.,25.));
#1361=CARTESIAN_POINT('Origin',(-19.,50.5,0.999999999999996));
#1362=CARTESIAN_POINT('Origin',(-42.,49.,25.));
#1363=CARTESIAN_POINT('',(-42.,49.,0.999999999999996));
#1364=CARTESIAN_POINT('',(-42.,49.,25.));
#1365=CARTESIAN_POINT('',(42.,49.,0.999999999999996));
#1366=CARTESIAN_POINT('Origin',(-42.,-48.,25.));
#1367=CARTESIAN_POINT('',(-42.,49.,0.999999999999996));
#1368=CARTESIAN_POINT('Origin',(-8.88178419700125E-15,2.37500000000001,
0.999999999999996));
#1369=CARTESIAN_POINT('Origin',(-42.5,-54.,0.));
#1370=CARTESIAN_POINT('',(-42.5,-54.,0.));
#1371=CARTESIAN_POINT('Origin',(-8.88178419700125E-15,-57.0585716961707,
0.));
#1372=UNCERTAINTY_MEASURE_WITH_UNIT(LENGTH_MEASURE(0.01),#1376,
'DISTANCE_ACCURACY_VALUE',
'Maximum model space distance between geometric entities at asserted c
onnectivities');
#1373=UNCERTAINTY_MEASURE_WITH_UNIT(LENGTH_MEASURE(0.01),#1376,
'DISTANCE_ACCURACY_VALUE',
'Maximum model space distance between geometric entities at asserted c
onnectivities');
#1374=(
GEOMETRIC_REPRESENTATION_CONTEXT(3)
GLOBAL_UNCERTAINTY_ASSIGNED_CONTEXT((#1372))
GLOBAL_UNIT_ASSIGNED_CONTEXT((#1376,#1378,#1379))
REPRESENTATION_CONTEXT('','3D')
);
#1375=(
GEOMETRIC_REPRESENTATION_CONTEXT(3)
GLOBAL_UNCERTAINTY_ASSIGNED_CONTEXT((#1373))
GLOBAL_UNIT_ASSIGNED_CONTEXT((#1376,#1378,#1379))
REPRESENTATION_CONTEXT('','3D')
);
#1376=(
LENGTH_UNIT()
NAMED_UNIT(*)
SI_UNIT(.MILLI.,.METRE.)
);
#1377=(
LENGTH_UNIT()
NAMED_UNIT(*)
SI_UNIT($,.METRE.)
);
#1378=(
NAMED_UNIT(*)
PLANE_ANGLE_UNIT()
SI_UNIT($,.RADIAN.)
);
#1379=(
NAMED_UNIT(*)
SI_UNIT($,.STERADIAN.)
SOLID_ANGLE_UNIT()
);
#1380=SHAPE_DEFINITION_REPRESENTATION(#1381,#1382);
#1381=PRODUCT_DEFINITION_SHAPE('',$,#1384);
#1382=SHAPE_REPRESENTATION('',(#795),#1374);
#1383=PRODUCT_DEFINITION_CONTEXT('part definition',#1388,'design');
#1384=PRODUCT_DEFINITION('Pi & Rumble','Pi & Rumble v1',#1385,#1383);
#1385=PRODUCT_DEFINITION_FORMATION('',$,#1390);
#1386=PRODUCT_RELATED_PRODUCT_CATEGORY('Pi & Rumble v1',
'Pi & Rumble v1',(#1390));
#1387=APPLICATION_PROTOCOL_DEFINITION('international standard',
'automotive_design',2009,#1388);
#1388=APPLICATION_CONTEXT(
'Core Data for Automotive Mechanical Design Process');
#1389=PRODUCT_CONTEXT('part definition',#1388,'mechanical');
#1390=PRODUCT('Pi & Rumble','Pi & Rumble v1',$,(#1389));
#1391=PRESENTATION_STYLE_ASSIGNMENT((#1392));
#1392=SURFACE_STYLE_USAGE(.BOTH.,#1393);
#1393=SURFACE_SIDE_STYLE('',(#1394));
#1394=SURFACE_STYLE_FILL_AREA(#1395);
#1395=FILL_AREA_STYLE('Steel - Satin',(#1396));
#1396=FILL_AREA_STYLE_COLOUR('Steel - Satin',#1397);
#1397=COLOUR_RGB('Steel - Satin',0.627450980392157,0.627450980392157,0.627450980392157);
ENDSEC;
END-ISO-10303-21;
